<?xml version="1.0" standalone="no"?>
<!DOCTYPE svg PUBLIC "-//W3C//DTD SVG 1.1//EN" "http://www.w3.org/Graphics/SVG/1.1/DTD/svg11.dtd" >
<svg xmlns="http://www.w3.org/2000/svg" xmlns:xlink="http://www.w3.org/1999/xlink" version="1.1">
<metadata>
Created by FontForge 20170731 at Thu May  7 13:38:30 2015
 By Aleksey,,,
Copyright (c) 2010-2015 by Claus Eggers Srensen (es@forthehearts.net), with Reserved Font Name 'Playfair'.
</metadata>
<defs>
<font id="PlayfairDisplaySC-Italic" horiz-adv-x="0" >
  <font-face 
    font-family="Playfair Display SC"
    font-weight="400"
    font-style="italic"
    font-stretch="normal"
    units-per-em="1240"
    panose-1="0 0 5 0 0 0 0 0 0 0"
    ascent="999"
    descent="-241"
    x-height="608"
    cap-height="708"
    bbox="-749 -241 1099 957.657"
    underline-thickness="20"
    underline-position="-140"
    slope="-14"
    unicode-range="U+000D-25CA"
  />
<missing-glyph horiz-adv-x="562" 
d="M60 772h442v-772h-442v772zM96 30h370v712h-370v-712z" />
    <glyph glyph-name="T_h.liga" unicode="Th" horiz-adv-x="1149" 
d="M1080 162h19l-25 -73q-36 -103 -121 -103q-29 0 -46 10t-21.5 30t-1 44t14.5 56l95 286q29 84 -22 84q-58 0 -129.5 -114t-127.5 -297l-24 -85h-87l189 675q-50 -21 -135 -21q-67 0 -153 14l-147 -552q-16 -58 -2 -76.5t77 -19.5l-4 -20q-52 3 -149 3q-98 0 -146 -3l4 20
q61 2 85.5 21.5t41.5 74.5l151 566q-76 12 -129 12q-87 0 -112 -17q18 -25 18 -58q0 -23 -13 -40.5t-37 -17.5q-21 0 -32.5 13.5t-11.5 36.5q0 52 53 78q47 23 134 23q70 0 190.5 -19t188.5 -19q84 0 135 24l23 83q57 2 91 14l-147 -523q59 138 115 197t123 59
q115 0 66 -151l-97 -292q-21 -62 16 -62q20 0 38.5 22.5t38.5 79.5z" />
    <glyph glyph-name=".notdef" horiz-adv-x="562" 
d="M60 772h442v-772h-442v772zM96 30h370v712h-370v-712z" />
    <glyph glyph-name=".null" 
 />
    <glyph glyph-name="nonmarkingreturn" horiz-adv-x="413" 
 />
    <glyph glyph-name="CR" unicode="&#xd;" 
 />
    <glyph glyph-name="space" unicode=" " horiz-adv-x="253" 
 />
    <glyph glyph-name="exclam" unicode="!" horiz-adv-x="263" 
d="M94 199q30 117 62 306.5t45 237.5q11 39 45 39q29 0 40 -18t2 -44q-9 -32 -76.5 -216.5t-99.5 -307.5zM8 50q5 26 26.5 45t46.5 19q26 0 40.5 -18.5t9.5 -45.5q-3 -17 -14 -32t-27 -23.5t-33 -8.5q-25 0 -39.5 19t-9.5 45z" />
    <glyph glyph-name="quotedbl" unicode="&#x22;" horiz-adv-x="296" 
d="M233 697q0 -16 -7 -34.5t-17 -36t-26 -48t-29 -60.5h-14q6 44 10.5 96t9.5 74q5 21 16.5 31.5t25.5 10.5q31 0 31 -33zM342 697q0 -20 -10 -42.5t-32 -61.5t-37 -75h-14q5 39 8.5 75.5t5.5 56.5t6 38q5 21 16.5 31.5t25.5 10.5q31 0 31 -33z" />
    <glyph glyph-name="numbersign" unicode="#" horiz-adv-x="639" 
d="M625 434h-144l-77 -167h143l-10 -20h-142l-68 -146h-24l68 146h-163l-68 -146h-24l68 146h-147l9 20h147l77 167h-146l8 20h147l69 148h24l-69 -148h163l69 148h24l-69 -148h143zM380 267l77 167h-163l-77 -167h163z" />
    <glyph glyph-name="dollar" unicode="$" horiz-adv-x="551" 
d="M518 664q19 -15 35.5 -44t16.5 -61t-16.5 -55.5t-43.5 -23.5q-25 0 -38 19t-13 46q0 45 39 106q-22 22 -57 37l-87 -314q55 -51 85 -95t30 -97q0 -45 -19.5 -81.5t-52 -59.5t-71 -36.5t-80.5 -17.5l-33 -119h-22l33 118h-8q-42 0 -72 9l-35 -127h-22l37 133
q-28 10 -71 43q-14 11 -25.5 26t-19 36t-7.5 43q0 32 16.5 55.5t43.5 23.5q25 0 38 -19t13 -46q0 -45 -39 -106q23 -23 57 -36l91 330q-41 42 -63.5 82.5t-22.5 93.5q0 83 55 133.5t134 59.5l33 120h22l-33 -118h9q39 0 71 -8l35 126h22l-37 -133q29 -10 72 -43zM336 391
l85 303q-30 9 -65 9h-15l-69 -249q24 -26 64 -63zM216 576q0 -49 39 -102l63 226q-47 -9 -74.5 -40t-27.5 -84zM219 6h10l74 265q-10 10 -65 63l-88 -319q30 -9 69 -9zM366 131q0 62 -46 120l-68 -243q114 15 114 123z" />
    <glyph glyph-name="percent" unicode="%" horiz-adv-x="766" 
d="M824 824l15 -13l-833 -866l-15 13zM112 534q0 53 26.5 105t75 87t105.5 35q53 0 82 -27.5t29 -76.5q0 -53 -26 -105t-74.5 -87t-105.5 -35q-53 0 -82.5 27t-29.5 77zM311 743q-30 0 -56.5 -25.5t-42 -62.5t-24.5 -74.5t-9 -65.5q0 -67 52 -67q30 0 56.5 25.5t42 62.5
t24.5 74.5t9 66.5q0 66 -52 66zM376 90q0 53 26.5 105t75 87t105.5 35q21 0 38.5 -4.5t31 -13t22.5 -21t14 -29t5 -36.5q0 -53 -26 -105t-74.5 -87t-105.5 -35q-26 0 -47 7t-35.5 20t-22 32.5t-7.5 44.5zM575 299q-30 0 -56.5 -25.5t-42 -62.5t-24.5 -74.5t-9 -65.5
q0 -67 52 -67q30 0 56.5 25.5t42 62.5t24.5 74.5t9 66.5q0 66 -52 66z" />
    <glyph glyph-name="ampersand" unicode="&#x26;" horiz-adv-x="817" 
d="M743 722q58 0 91.5 -28t33.5 -86q0 -34 -12.5 -62t-39.5 -53t-70 -46q-44 -22 -160 -64q73 -61 73 -150q0 -103 -90 -175t-243 -72q-133 0 -210.5 56.5t-77.5 154.5q0 88 60.5 156.5t154.5 94.5q-34 18 -52 48t-18 64q0 65 61.5 103.5t136.5 38.5q56 0 89.5 -24t33.5 -63
q0 -36 -26 -55.5t-59 -19.5l2 18q28 0 45 14.5t17 40.5q0 22 -13 39t-34.5 25.5t-49.5 8.5q-40 0 -72.5 -19t-50.5 -53t-18 -77q0 -46 22 -83q36 6 63 6q36 0 36 -21q0 -10 -9 -15.5t-22 -5.5q-25 0 -69 22q-68 -20 -110.5 -74.5t-42.5 -122.5q0 -87 69.5 -135t181.5 -48
q118 0 196.5 51.5t78.5 134.5q0 23 -6.5 46t-22 46t-38.5 39q-76 -27 -127 -47q-20 -8 -34.5 -15t-32.5 -19.5t-28 -29t-10 -35.5q0 -21 12 -36.5t31 -23t42 -7.5q64 0 102 59l13 -9q-40 -66 -119 -66q-46 0 -77 23t-31 75q0 58 41.5 96t124.5 69q8 3 66 23.5t109 40
t84 35.5q32 15 53.5 30t35.5 36t14 45q0 37 -28.5 61.5t-70.5 24.5q-26 0 -32 -9q21 -12 21 -38q0 -23 -20 -40t-46 -17q-20 0 -32.5 11t-12.5 31q0 41 50 63q32 14 73 14z" />
    <glyph glyph-name="quotesingle" unicode="'" horiz-adv-x="187" 
d="M233 697q0 -16 -7 -34.5t-17 -36t-26 -48t-29 -60.5h-14q6 44 10.5 96t9.5 74q5 21 16.5 31.5t25.5 10.5q31 0 31 -33z" />
    <glyph glyph-name="parenleft" unicode="(" horiz-adv-x="361" 
d="M207 -182q-84 95 -126.5 188t-42.5 217q0 162 120.5 319t312.5 264l10 -13q-86 -58 -150.5 -118.5t-114.5 -132t-75.5 -155t-25.5 -175.5q0 -226 110 -381z" />
    <glyph glyph-name="parenright" unicode=")" horiz-adv-x="361" 
d="M163 806q84 -95 126.5 -188t42.5 -217q0 -162 -120.5 -319t-312.5 -264l-10 13q86 58 150.5 118.5t114.5 132t75.5 155t25.5 175.5q0 226 -110 381z" />
    <glyph glyph-name="asterisk" unicode="*" horiz-adv-x="495" 
d="M510 623q5 -13 -4.5 -28.5t-36.5 -29.5q-13 -6 -31 -12t-33 -10t-45 -11.5l-50 -12.5q20 -6 55 -16t53.5 -16.5t30.5 -14.5q21 -14 24 -31.5t-9 -28.5q-9 -13 -25 -15t-39 11q-13 8 -25.5 21.5t-32 38.5t-34.5 42q1 -22 3 -60.5t2 -49t-2 -39.5q-5 -19 -13.5 -31.5
t-18 -17.5t-19.5 -5q-7 0 -12 2.5t-9 9t-4.5 17t2.5 25.5q2 11 5.5 22.5t11 28t13 28t18 36t19.5 39.5h-1q-19 -15 -52 -43t-51.5 -42t-34.5 -23q-54 -26 -66 6q-5 12 4.5 27.5t36.5 30.5q11 5 23.5 9.5t27.5 9t29 8t37 9t41 10.5q-20 7 -54.5 16.5t-53 16t-30.5 14.5
q-21 14 -24 31.5t9 28.5q9 13 25 15t39 -11q10 -7 21.5 -18t20 -22.5t24 -30.5t29.5 -35q-1 14 -3 38l-3 36t-1.5 28.5t0 28t2.5 22.5q6 28 20 41t29 13t22.5 -13t1.5 -41q-2 -13 -8.5 -30t-13 -31.5t-19.5 -42.5t-22 -47q18 14 51 41.5t51 41t33 22.5q54 26 66 -6z" />
    <glyph glyph-name="plus" unicode="+" horiz-adv-x="585" 
d="M63 370h233l67 236h36l-67 -236h232l-9 -30h-232l-67 -235h-36l67 235h-233z" />
    <glyph glyph-name="comma" unicode="," horiz-adv-x="252" 
d="M129 55q0 -53 -39.5 -104.5t-107.5 -84.5l-5 14q47 29 75 63t31 68q-29 -25 -52 -25q-18 0 -28 9.5t-10 25.5q0 33 29 63t63 30q22 0 33 -17t11 -42z" />
    <glyph glyph-name="hyphen" unicode="-" horiz-adv-x="504" 
d="M68 283h361l-15 -58h-361z" />
    <glyph glyph-name="period" unicode="." horiz-adv-x="244" 
d="M0 50q3 17 14 32t26.5 23.5t32.5 8.5q26 0 40.5 -18.5t9.5 -45.5t-26.5 -45.5t-47.5 -18.5q-25 0 -39.5 19t-9.5 45z" />
    <glyph glyph-name="slash" unicode="/" horiz-adv-x="468" 
d="M-40 -14l548 736h33l-548 -736h-33z" />
    <glyph glyph-name="zero" unicode="0" horiz-adv-x="565" 
d="M356 529q76 0 116.5 -46.5t40.5 -130.5q0 -89 -42.5 -173.5t-117 -138.5t-158.5 -54q-77 0 -120.5 46t-43.5 132q0 89 44.5 173.5t120.5 138t160 53.5zM337 511q-54 0 -103.5 -50t-80 -133t-30.5 -173q0 -151 91 -151q56 0 104.5 54t75.5 137.5t27 171.5q0 144 -84 144z
" />
    <glyph glyph-name="one" unicode="1" horiz-adv-x="342" 
d="M314 526l-155 -526h-87l128 433q-58 -33 -150 -61l3 21q58 18 108 43.5t73 42.5t60 47h20z" />
    <glyph glyph-name="two" unicode="2" horiz-adv-x="503" 
d="M304 528q41 0 71 -11.5t47 -34t17 -53.5q0 -32 -19.5 -68t-49 -66t-69.5 -62.5t-74.5 -56.5t-71 -49.5t-52.5 -39.5q28 0 105 -14t107 -14q69 0 69 48q0 37 -44 57l13 13q55 -26 55 -79q0 -43 -31.5 -73.5t-93.5 -30.5q-26 0 -57 7t-64 14.5t-63 8.5q-35 1 -60.5 -4.5
t-59.5 -19.5l5 21q15 12 44 32.5t55.5 39t59.5 44t60.5 49.5t55 53t46.5 57t31 60t12 62q0 41 -20 64.5t-57 23.5q-57 0 -114 -51.5t-57 -109.5q0 -25 13.5 -36.5t44.5 -11.5q18 0 33.5 5t28.5 13.5t30 22.5l12 -14q-51 -48 -111 -48q-19 0 -34.5 5t-28 21t-12.5 42
q0 68 68.5 126t159.5 58z" />
    <glyph glyph-name="three" unicode="3" horiz-adv-x="485" 
d="M303 531q62 0 98.5 -26t36.5 -73q0 -43 -34 -82t-79.5 -63.5t-93.5 -36.5q70 -2 115 -31.5t45 -82.5t-31 -100t-81.5 -80t-113 -57.5t-125.5 -36.5t-120 -13l5 18q49 3 100 15.5t100 36t87.5 54.5t62 75.5t23.5 94.5q0 40 -22.5 64.5t-62.5 26.5q-42 -17 -58 -17
q-22 0 -17 15q5 22 67 18q62 24 104.5 69.5t42.5 99.5q0 21 -5.5 37.5t-16 28.5t-26 18t-34.5 6q-34 0 -71.5 -19t-63.5 -50t-26 -62q0 -16 5.5 -26.5t18.5 -16t34 -5.5q33 0 62 15l11 -15q-39 -21 -80 -21q-14 0 -26 3t-23.5 10t-18.5 21t-7 34q0 57 65.5 105.5t152.5 48.5
z" />
    <glyph glyph-name="four" unicode="4" horiz-adv-x="515" 
d="M434 91l-16 -57h-133l-47 -175h-87l47 175h-249l6 21l436 474h26l-117 -438h134zM14 91h199l82 307z" />
    <glyph glyph-name="five" unicode="5" horiz-adv-x="459" 
d="M427 538l12 -7q-51 -110 -137 -110q-18 0 -56.5 19t-54.5 16l-112 -229q65 34 140 34q77 0 115 -31t38 -83q0 -57 -30.5 -105.5t-79 -82t-109.5 -57.5t-120.5 -36t-113.5 -14l5 18q39 0 79.5 8.5t80 23.5t74.5 39t61.5 53.5t42 68.5t15.5 82q0 40 -26 63t-79 23t-111 -27
l-10 5l150 309q18 1 35.5 -2.5t30 -8.5t33.5 -9.5t44 -4.5q57 0 83 45z" />
    <glyph glyph-name="six" unicode="6" horiz-adv-x="527" 
d="M524 722l6 -20q-71 -17 -142.5 -68t-129.5 -124.5t-94.5 -172t-36.5 -200.5q0 -73 18 -102t54 -29q40 0 75.5 30.5t57.5 77t34.5 98t12.5 96.5q0 101 -65 101q-33 0 -64 -28.5t-54 -93.5l-16 6q17 53 46.5 87t58.5 46t62 12q57 0 91.5 -39.5t34.5 -110.5
q0 -77 -39.5 -147t-107 -112.5t-143.5 -42.5q-147 0 -147 179q0 63 17.5 124.5t47.5 113t70 98.5t85 83.5t92.5 65.5t92 47t83.5 25z" />
    <glyph glyph-name="seven" unicode="7" horiz-adv-x="487" 
d="M515 514h26q-27 -37 -89 -108t-104.5 -124t-89 -135.5t-68.5 -164.5q-5 -19 -10.5 -46.5l-6.5 -32.5q-6 -22 -22.5 -36.5t-39.5 -14.5q-39 0 -29 56q9 50 41.5 111.5t81.5 125.5t94.5 117.5t100.5 115t79 90.5q-63 -42 -146 -42q-41 0 -94 14.5t-80 14.5q-25 0 -44.5 -7
t-30.5 -22.5t-11 -37.5q0 -42 34 -70t105 -45l-6 -15q-157 30 -157 141q0 48 36 84.5t105 36.5q46 0 114.5 -24t104.5 -26t61 7.5t45 36.5z" />
    <glyph glyph-name="eight" unicode="8" horiz-adv-x="544" 
d="M537 616q0 -114 -198 -220q30 -29 44 -44t35.5 -43t30.5 -56t9 -60q0 -93 -78 -150t-193 -57q-81 0 -129 32t-48 97q0 43 21 83t57.5 72t76 56t84.5 44q-45 44 -68.5 81.5t-23.5 86.5q0 27 9.5 52.5t26 45.5t39.5 36t49.5 27t56 17t58.5 6q63 0 102 -27t39 -79zM328 407
q54 36 91 93.5t37 118.5q0 85 -78 85q-57 0 -97.5 -40.5t-40.5 -103.5q0 -42 22.5 -77t65.5 -76zM369 172q0 30 -8 56t-26.5 50.5t-32.5 39.5t-41 41q-72 -40 -117.5 -109t-45.5 -144q0 -102 98 -102q71 0 122 45.5t51 122.5z" />
    <glyph glyph-name="nine" unicode="9" horiz-adv-x="513" 
d="M319 528q147 0 147 -179q0 -84 -33 -165t-85 -142.5t-116 -111t-127 -79t-117 -39.5l-6 20q69 16 139 65.5t126.5 120t92 165.5t35.5 194q0 73 -18 102t-54 29q-32 0 -61.5 -20t-50.5 -52.5t-37 -72.5t-23.5 -80.5t-7.5 -76.5q0 -101 65 -101q33 0 64 28.5t54 93.5l16 -6
q-17 -53 -46.5 -87t-58.5 -46t-62 -12q-38 0 -66 17t-44 51t-16 82q0 77 39.5 147t107 112.5t143.5 42.5z" />
    <glyph glyph-name="colon" unicode=":" horiz-adv-x="278" 
d="M117 464q3 17 14 32t26.5 23.5t32.5 8.5q13 0 23.5 -5t17 -13.5t9 -20.5t0.5 -25q-5 -27 -26.5 -45.5t-47.5 -18.5q-25 0 -39.5 19t-9.5 45zM17 50q4 26 26 45t47 19q26 0 40.5 -18.5t9.5 -45.5t-26.5 -45.5t-47.5 -18.5q-25 0 -39.5 19t-9.5 45z" />
    <glyph glyph-name="semicolon" unicode=";" horiz-adv-x="287" 
d="M118 464q5 26 26.5 45t46.5 19q13 0 23.5 -5t17 -13.5t9 -20.5t0.5 -25q-3 -17 -14 -32t-27 -23.5t-33 -8.5q-25 0 -39.5 19t-9.5 45zM149 55q0 -53 -39.5 -104.5t-107.5 -84.5l-5 14q47 29 75 63t31 68q-29 -25 -52 -25q-18 0 -28 9.5t-10 25.5q0 33 29 63t63 30
q22 0 33 -17t11 -42z" />
    <glyph glyph-name="less" unicode="&#x3c;" horiz-adv-x="602" 
d="M603 582l10 -29l-487 -202l331 -174l-16 -32l-390 210z" />
    <glyph glyph-name="equal" unicode="=" horiz-adv-x="663" 
d="M110 410l9 30h501l-9 -30h-501zM70 270l9 30h501l-9 -30h-501z" />
    <glyph glyph-name="greater" unicode="&#x3e;" horiz-adv-x="602" 
d="M62 155l-10 29l460 192l-370 198l16 29l429 -231z" />
    <glyph glyph-name="question" unicode="?" horiz-adv-x="438" 
d="M311 765q-33 0 -64.5 -13t-39.5 -36q10 -3 18 -15.5t7 -28.5q-2 -20 -17 -32.5t-36 -12.5q-20 0 -30 11.5t-10 30.5q0 48 58 80.5t130 32.5q44 0 77 -13.5t52 -40t19 -64.5q0 -48 -36.5 -97.5t-128.5 -120.5q-19 -15 -47.5 -36t-41.5 -31t-30 -25t-24 -25.5t-12.5 -24.5
t-5.5 -30q0 -30 17 -49.5t54 -19.5q30 0 58 12t38 32q-10 1 -18.5 11.5t-7.5 23.5q0 16 13 28.5t32 12.5q34 0 34 -35q0 -44 -54 -73t-114 -29q-52 0 -83.5 25t-31.5 72q0 16 4.5 31.5t9.5 27.5t18.5 27.5t21.5 24.5t29 26t30.5 24t36.5 27t36 27q74 56 102 91t28 80
q0 43 -23 68.5t-68 25.5zM108 50q4 26 25.5 45t47.5 19t40.5 -18.5t9.5 -45.5t-26.5 -45.5t-47.5 -18.5q-25 0 -39.5 19t-9.5 45z" />
    <glyph glyph-name="at" unicode="@" horiz-adv-x="848" 
d="M534 26q-97 0 -63 120q-30 -62 -65 -91t-83 -29q-54 0 -78.5 33t-24.5 88q0 74 38.5 152t100 128.5t121.5 50.5t66 -64l14 50q57 0 90 14l-106 -367q-10 -34 -4.5 -47t27.5 -13q21 0 50.5 14t62 43.5t60.5 69t46 96.5t18 120q0 67 -23 117.5t-64 80t-92 44t-112 14.5
q-90 0 -175.5 -41t-148.5 -109.5t-101.5 -162t-38.5 -192.5q0 -61 15 -109t41 -81.5t64 -55.5t82.5 -32t97.5 -10q116 0 206 54l7 -13q-84 -59 -214 -59q-147 0 -233 75.5t-86 228.5q0 100 38 195.5t102 168t154.5 117t188.5 44.5q67 0 122.5 -16t98.5 -48t67 -86t24 -125
q0 -65 -19 -124.5t-49.5 -102.5t-68.5 -75.5t-78 -48.5t-75 -16zM357 56q37 0 72 51t75 157l34 121q0 25 -6.5 40.5t-18.5 22.5t-29 7q-47 0 -89 -46.5t-66 -116t-24 -139.5q0 -97 52 -97z" />
    <glyph glyph-name="A" unicode="A" horiz-adv-x="629" 
d="M504 84q3 -33 17 -48t32 -16l-4 -20q-41 3 -109 3q-81 0 -120 -3l4 20q51 2 69.5 18.5t16.5 65.5l-9 164h-246l-75 -106q-53 -79 -45.5 -109.5t72.5 -32.5l-5 -20q-55 3 -114 3q-43 0 -75 -3l5 20q46 10 100 87l431 606h15zM169 288h231l-17 303z" />
    <glyph glyph-name="B" unicode="B" horiz-adv-x="632" 
d="M395 374q164 -27 164 -163q0 -100 -89.5 -155.5t-208.5 -55.5q-23 0 -79 1.5t-93 1.5q-80 0 -122 -3l4 20q52 2 70.5 17t32.5 69l132 496q15 44 5 64.5t-64 21.5l5 20q40 -3 119 -3q23 0 69 1t72 1q93 0 140.5 -34t47.5 -94q0 -72 -59.5 -125t-145.5 -80zM302 617
l-64 -241h66q88 0 142.5 58t54.5 138q0 59 -26 87.5t-82 28.5q-44 0 -62 -14t-29 -57zM218 23q127 0 184 51.5t57 151.5q0 133 -143 133h-82l-67 -253q-15 -46 -6 -64.5t57 -18.5z" />
    <glyph glyph-name="C" unicode="C" horiz-adv-x="670" 
d="M712 708q-33 -86 -64 -230h-22q14 99 -10 148q-18 37 -53.5 57.5t-77.5 20.5q-83 0 -162 -79.5t-125.5 -196.5t-46.5 -228q0 -96 38 -146t105 -50q44 0 93 20.5t85 57.5q43 43 90 158h22q-47 -173 -59 -240h-22q3 21 3 34q0 22 -8 25t-25 -8q-35 -23 -55.5 -34t-56.5 -21
t-77 -10q-111 0 -172 60t-61 175q0 85 33.5 174t89.5 161.5t139 119t174 46.5q40 0 70.5 -10.5t44.5 -22t34 -32.5q7 -7 13 -8t13 4.5t14 19t15 35.5h21z" />
    <glyph glyph-name="D" unicode="D" horiz-adv-x="725" 
d="M704 487q0 -93 -36 -181.5t-97.5 -156t-151 -108.5t-189.5 -41q-13 0 -65 1.5t-75 1.5q-81 0 -120 -3l3 20q49 2 67.5 17.5t32.5 68.5l131 496q15 49 5 67t-63 19l3 20q61 -4 122 -3q138 3 151 3q282 0 282 -221zM218 18q93 0 168.5 40.5t123 109.5t73 157t25.5 187
q0 91 -51 134.5t-163 43.5q-46 0 -64.5 -17t-32.5 -69l-131 -500q-16 -44 -7 -65t59 -21z" />
    <glyph glyph-name="E" unicode="E" horiz-adv-x="610" 
d="M443 705q140 0 199 3q-26 -72 -38 -118q-11 -36 -14 -62h-23q18 88 1 122.5t-93 34.5h-73q-52 0 -70 -14.5t-33 -68.5l-63 -236h66q21 0 38.5 7t28.5 16t22 26t15.5 27t13 30.5t10.5 25.5h23q-13 -40 -41 -142q-14 -53 -32 -142h-23q1 5 2 14q3 31 5.5 57t-14 43.5
t-54.5 17.5h-66l-64 -240q-14 -55 -3.5 -69t62.5 -14h73q90 0 131.5 37t79.5 140h23q-11 -29 -22 -72q-16 -56 -27 -128q-68 3 -229 3q-192 0 -289 -3l5 20q52 2 70 17t33 69l133 496q14 55 3.5 69.5t-61.5 16.5l5 20q98 -3 290 -3z" />
    <glyph glyph-name="F" unicode="F" horiz-adv-x="566" 
d="M443 705q140 0 199 3q-25 -71 -41 -128q-10 -37 -19 -82h-23q22 104 3.5 145.5t-107.5 41.5h-53q-52 0 -70 -14.5t-33 -68.5l-66 -246h73q21 0 38.5 7.5t28.5 15t22.5 26.5t15.5 26.5t13 31t10 25.5h23q-13 -40 -41 -142q-16 -66 -32 -142h-23q1 5 3 19t2.5 19.5t2 18
t0.5 18t-2 15.5t-4.5 14.5t-8.5 11t-12.5 9t-17.5 5t-23 2.5h-73l-62 -230q-15 -54 -0.5 -69t78.5 -17l-5 -20q-53 3 -147 3q-85 0 -127 -3l5 20q52 2 70 17t33 69l133 496q14 55 3.5 69.5t-61.5 16.5l5 20q98 -3 290 -3z" />
    <glyph glyph-name="G" unicode="G" horiz-adv-x="705" 
d="M316 6q61 0 114 31q34 20 46 63l23 88q15 61 1.5 77.5t-76.5 18.5l5 20q53 -3 140 -3q69 0 105 3l-5 -20q-34 -2 -46.5 -16.5t-27.5 -69.5l-53 -198h-20q5 17 2.5 37t-14.5 20q-11 0 -38 -17q-85 -54 -170 -54q-122 0 -187 59.5t-65 169.5q0 85 32.5 174.5t88 163.5
t139.5 121.5t178 47.5q60 0 95.5 -16.5t68.5 -48.5q15 -16 28.5 -5t28.5 56h22q-33 -86 -64 -230h-22q5 43 5 75q0 46 -14 73q-21 37 -62 57.5t-92 20.5q-64 0 -120.5 -36.5t-95.5 -93.5t-67.5 -127.5t-42 -138.5t-13.5 -126q0 -90 42.5 -133t130.5 -43z" />
    <glyph glyph-name="H" unicode="H" horiz-adv-x="755" 
d="M691 705q85 0 129 3l-5 -20q-52 -2 -70.5 -17t-32.5 -69l-132 -496q-14 -55 -3.5 -69.5t62.5 -16.5l-4 -20q-42 3 -128 3q-81 0 -127 -3l4 20q52 2 70.5 17t32.5 69l64 240h-321l-64 -240q-14 -55 -3.5 -69.5t62.5 -16.5l-4 -20q-47 3 -127 3q-84 0 -127 -3l5 20
q51 2 69 17t32 69l132 496q13 55 2.5 69.5t-61.5 16.5l5 20q41 -3 127 -3q80 0 128 3l-5 -20q-52 -2 -70.5 -17t-32.5 -69l-63 -236h321l63 236q14 55 3 69.5t-62 16.5l5 20q45 -3 126 -3z" />
    <glyph glyph-name="I" unicode="I" horiz-adv-x="341" 
d="M166 106q-14 -55 -3.5 -69.5t62.5 -16.5l-4 -20q-47 3 -127 3q-84 0 -127 -3l5 20q51 2 69 17t32 69l132 496q13 55 2.5 69.5t-61.5 16.5l5 20q41 -3 127 -3q80 0 128 3l-5 -20q-52 -2 -70.5 -17t-32.5 -69z" />
    <glyph glyph-name="J" unicode="J" horiz-adv-x="636" 
d="M737 730q7 -8 5.5 -17t-20 -21.5t-52.5 -25.5q-140 -93 -208 -300h99l-3 -20h-102q-8 -26 -11 -39l-62 -242q-29 -112 -88 -182.5t-148 -70.5q-46 0 -73.5 14t-28.5 41q-1 23 15 41t40 18q18 0 29.5 -11.5t12.5 -28.5q1 -34 -40 -53q15 -5 35 -5q18 0 33.5 5t28.5 17
t23 24.5t19.5 34t16.5 38.5t15 46t13 48t13 52t13 52l30 117q13 48 28 84h-133l3 20h138q42 91 107 157t168 140q-116 -60 -198 -60q-48 0 -122.5 28t-123.5 28q-68 0 -65 -66q1 -59 74 -73l-3 -20q-107 19 -110 116q-2 54 29.5 88.5t86.5 34.5q37 0 72.5 -16.5t60 -37
t59.5 -37t71 -16.5q46 0 82 10t95 35q49 76 76 53z" />
    <glyph glyph-name="K" unicode="K" horiz-adv-x="675" 
d="M648 722q63 0 59 -59q-2 -23 -16.5 -43.5t-41.5 -20.5q-21 0 -30.5 12.5t-8.5 30.5q2 30 32 59h-3q-20 -1 -36 -14q-19 -17 -35 -55.5t-30 -79t-33.5 -80.5t-53.5 -68.5t-81 -34.5q56 -11 81 -43t22 -121l-4 -113q-1 -26 4.5 -38.5t25.5 -12.5q25 0 42.5 18.5t31.5 59.5
l17 51h20l-26 -77q-36 -107 -122 -107q-92 0 -84 116l7 113q4 67 -4.5 96t-31.5 47q-88 -22 -88 11q0 34 91 10q48 6 82.5 34.5t53 68.5t32 80.5t30.5 79.5t38 57q29 23 60 23zM166 106q-14 -55 -3.5 -69.5t62.5 -16.5l-4 -20q-47 3 -127 3q-84 0 -127 -3l5 20q51 2 69 17
t32 69l132 496q13 55 2.5 69.5t-61.5 16.5l5 20q41 -3 127 -3q80 0 128 3l-5 -20q-52 -2 -70.5 -17t-32.5 -69z" />
    <glyph glyph-name="L" unicode="L" horiz-adv-x="586" 
d="M535 210q-7 -19 -25 -82q-16 -56 -27 -128q-68 3 -229 3q-192 0 -289 -3l5 20q52 2 70 17t33 69l133 496q14 55 3.5 69.5t-61.5 16.5l5 20q42 -3 128 -3q81 0 127 3l-5 -20q-52 -2 -70.5 -17t-33.5 -69l-133 -496q-14 -55 -3.5 -69t62.5 -14h73q90 0 132 39t82 148h23z
" />
    <glyph glyph-name="M" unicode="M" horiz-adv-x="868" 
d="M760 705h48q77 0 125 3l-5 -20q-52 -2 -70.5 -17t-32.5 -69l-132 -496q-13 -55 -2.5 -69.5t61.5 -16.5l-4 -20q-46 3 -124 3q-88 0 -130 -3l4 20q52 2 70.5 17t32.5 69l145 539l-415 -650h-22l-68 658l-142 -537q-15 -55 -2.5 -74.5t69.5 -21.5l-5 -20q-35 3 -101 3
q-59 0 -94 -3l5 20q51 2 70.5 21t34.5 75l130 486q13 55 2.5 69.5t-61.5 16.5l5 20q32 -3 89 -3q53 0 88 3l55 -593z" />
    <glyph glyph-name="N" unicode="N" horiz-adv-x="770" 
d="M812 754q60 0 60 -51q0 -27 -16 -49.5t-43 -22.5q-38 0 -38 39q0 33 32 63h-3q-49 -1 -82 -51q-44 -66 -92 -232.5t-109 -454.5h-22l-228 644q-109 -561 -176 -650q-47 -63 -107 -63t-60 52q0 27 16 49t43 22q38 0 38 -39q0 -33 -32 -63h3q51 1 83 52q67 105 164 603
q11 55 -1 69.5t-70 16.5l5 20q32 -3 89 -3q46 0 81 3l189 -553q96 430 168 535q44 64 108 64z" />
    <glyph glyph-name="O" unicode="O" horiz-adv-x="729" 
d="M54 226q0 84 30.5 171t83 159.5t132.5 119t171 46.5q112 0 174 -63t62 -178q0 -83 -30.5 -170t-83.5 -159.5t-133.5 -119t-170.5 -46.5q-111 0 -173 63t-62 177zM462 704q-75 0 -146 -72t-113.5 -186.5t-42.5 -232.5q0 -97 38 -153t100 -56q75 0 146 72t113.5 186.5
t42.5 232.5q0 97 -38 153t-100 56z" />
    <glyph glyph-name="P" unicode="P" horiz-adv-x="589" 
d="M421 707q98 0 148.5 -40.5t50.5 -110.5q0 -119 -105 -195.5t-272 -76.5h-30l-47 -178q-16 -46 -6.5 -65.5t65.5 -20.5l-4 -20q-47 3 -124 3q-88 0 -130 -3l4 20q52 2 70.5 17t32.5 69l132 496q15 47 4.5 66t-63.5 20l5 20q40 -3 123 -3q24 0 72.5 1t73.5 1zM253 304
q140 0 203 73t63 195q0 59 -30 87.5t-97 28.5q-44 0 -62 -17t-32 -69l-79 -298h34z" />
    <glyph glyph-name="Q" unicode="Q" horiz-adv-x="781" 
d="M647 50q22 0 36 -15.5t14 -41.5q0 -67 -82.5 -124t-173.5 -57q-49 0 -96.5 22.5t-75.5 47t-68 66.5q-84 -30 -142 -30q-49 0 -76.5 19.5t-27.5 54.5q0 39 34.5 64t87.5 25q36 0 71.5 -14.5t56 -29t59.5 -45.5q154 79 269 225.5t115 291.5q0 89 -44.5 142t-126.5 53
q-110 0 -182 -90.5t-72 -204.5q0 -72 31 -107.5t83 -35.5q66 0 111.5 50.5t45.5 107.5q0 27 -7 40q-10 -21 -31 -33t-43 -12t-34.5 13t-12.5 34q0 26 19.5 43.5t49.5 17.5q36 0 57.5 -27t21.5 -71q0 -76 -61 -131t-154 -55q-84 0 -131 48t-47 127q0 85 54.5 156t139.5 109.5
t179 38.5q120 0 189 -55t69 -152q0 -77 -42.5 -158.5t-112 -151t-151.5 -127.5t-167 -98q40 -31 68.5 -49.5t76.5 -34.5t100 -16q103 0 144 68q-15 -6 -31 -6q-23 0 -36 13.5t-13 34.5q0 24 17 42t42 18zM70 -65q50 0 120 25q-33 35 -50 51t-43.5 32t-49.5 16q-29 0 -51 -18
t-22 -47q0 -59 96 -59z" />
    <glyph glyph-name="R" unicode="R" horiz-adv-x="664" 
d="M587 107l5 14h23l-4 -13q-18 -63 -45.5 -92.5t-73.5 -29.5q-47 0 -70 28t-20 68l8 112q3 43 -1.5 67t-24 42.5t-56.5 25.5t-101 7l-61 -230q-16 -46 -5.5 -65.5t64.5 -20.5l-4 -20q-47 3 -124 3q-88 0 -130 -3l4 20q52 2 70.5 17t32.5 69l132 496q15 47 4 66t-63 20l5 20
q40 -3 123 -3q24 0 72.5 1t73.5 1q98 0 148.5 -37.5t50.5 -103.5q0 -82 -71 -142t-190 -80q13 -1 35 -5q64 -12 89.5 -40t20.5 -92l-8 -102q-3 -36 4 -59.5t28 -22.5q17 1 30.5 21t28.5 63zM298 602l-65 -246h30q135 0 195.5 59t60.5 157q0 59 -30 87.5t-97 28.5
q-44 0 -62 -17t-32 -69z" />
    <glyph glyph-name="S" unicode="S" horiz-adv-x="554" 
d="M576 715q-36 -91 -59 -204h-20q6 29 6 57q0 59 -35 97t-107 38q-63 0 -101.5 -32t-38.5 -95q0 -41 26 -82t63.5 -75t74.5 -69t63 -78.5t26 -89.5q0 -65 -40 -111t-95.5 -65.5t-117.5 -19.5q-84 0 -142 46q-19 15 -36 15q-12 0 -20 -12t-21 -42h-20q33 80 68 240h20
q-10 -55 -9 -81q6 -146 163 -146q68 0 107.5 31t39.5 94q0 46 -24 87t-57.5 72.5t-67.5 64.5t-58 77t-24 95q0 91 65.5 143t154.5 52q75 0 130 -42q24 -18 33 -18q14 0 33 53h20z" />
    <glyph glyph-name="T" unicode="T" horiz-adv-x="659" 
d="M768 817q22 0 33.5 -13.5t11.5 -34.5q0 -43 -47 -72q-53 -33 -158 -33q-44 0 -102 7l-148 -555q-16 -58 -2 -76.5t77 -19.5l-4 -20q-53 3 -149 3q-98 0 -146 -3l4 20q62 2 86 21.5t41 74.5l151 567q-81 11 -129 11q-87 0 -112 -17q18 -25 18 -58q0 -23 -13 -40.5
t-37 -17.5q-44 0 -44 50q0 52 53 78q47 23 134 23q60 0 165.5 -14t163.5 -14q86 0 129 22q-25 25 -25 56q0 22 12.5 38.5t36.5 16.5z" />
    <glyph glyph-name="U" unicode="U" horiz-adv-x="682" 
d="M631 592q14 54 -1 74t-66 22l5 20q35 -3 101 -3q60 0 94 3l-5 -20q-51 -2 -71.5 -21t-34.5 -75l-78 -301q-36 -138 -98 -212q-80 -93 -205 -93q-107 0 -154 54q-34 39 -35 98.5t25 149.5l83 314q13 55 2.5 69.5t-61.5 16.5l6 20q40 -3 129 -3q77 0 125 3l-6 -20
q-52 -2 -70.5 -17t-32.5 -69l-88 -331q-12 -45 -17.5 -79t-4.5 -68t13 -55t38 -34.5t67 -13.5q105 0 165.5 68t92.5 191z" />
    <glyph glyph-name="V" unicode="V" horiz-adv-x="632" 
d="M666 705q44 0 76 3l-5 -20q-53 -11 -101 -87l-394 -606h-15l-79 629q-4 33 -19.5 48t-32.5 16l5 20q39 -3 108 -3q77 0 120 3l-5 -20q-52 -2 -69 -17t-11 -67l57 -483l277 425q35 53 41.5 84t-11.5 44t-61 14l5 20q55 -3 114 -3z" />
    <glyph glyph-name="W" unicode="W" horiz-adv-x="902" 
d="M918 705q44 0 76 3l-5 -20q-59 -13 -95 -87l-299 -606h-16l-72 456l-271 -456h-16l-79 629q-8 62 -55 64l4 20q40 -3 99 -3q72 0 108 3l-4 -20q-36 -2 -49 -19t-7 -65l56 -477l209 355l-22 142q-10 62 -45 64l4 20q36 -3 89 -3q86 0 128 3l-4 -20q-53 -2 -68.5 -18
t-7.5 -66l72 -455l195 397q41 86 30.5 113t-74.5 29l5 20q56 -3 114 -3z" />
    <glyph glyph-name="X" unicode="X" horiz-adv-x="699" 
d="M690 722q34 0 47.5 -16.5t11.5 -42.5q-3 -24 -17.5 -44t-41.5 -20q-21 0 -30.5 12.5t-7.5 30.5q4 34 32 59h-3q-35 0 -64 -21q-45 -33 -100.5 -110.5t-106.5 -187.5l26 -227q13 -114 79 -114q29 0 47 18t33 60l17 51h20l-26 -77q-36 -107 -122 -107q-112 0 -131 156
l-18 157q-39 -83 -100.5 -161t-116.5 -117q-46 -35 -92 -35q-34 0 -47.5 16.5t-11.5 42.5q3 24 17.5 44t41.5 20q21 0 30.5 -12.5t7.5 -30.5q-4 -34 -32 -59h4q34 1 63 21q52 34 114.5 112.5t117.5 191.5l-26 221q-13 114 -79 114q-29 0 -47 -18t-33 -60l-17 -51h-20l26 77
q36 107 122 107q112 0 131 -156l18 -155q39 85 92 161.5t100 114.5q46 35 92 35z" />
    <glyph glyph-name="Y" unicode="Y" horiz-adv-x="670" 
d="M700 722q31 0 44.5 -17t11.5 -42q-2 -24 -17 -44t-42 -20q-40 0 -38 43q1 30 32 59h-3q-27 -1 -55 -22q-124 -89 -229 -341l-58 -232q-13 -55 -2.5 -69.5t61.5 -16.5l-5 -20q-45 3 -124 3q-88 0 -131 -3l5 20q52 2 71 17t32 69l59 233q-38 328 -117 328q-33 0 -48 -47
l-28 -82h-22l33 97q16 47 36.5 67t61.5 20q40 0 68.5 -24.5t47.5 -75.5t30 -111t21 -151q73 183 187 297q65 65 118 65z" />
    <glyph glyph-name="Z" unicode="Z" horiz-adv-x="652" 
d="M713 713q6 -8 5 -19.5t-21 -27t-53 -28.5l-277 -272h152l-8 -20h-164l-283 -278q92 54 173 54q42 0 106.5 -28t107.5 -28q68 0 68 66q0 59 -72 73l4 20q106 -19 106 -116q0 -54 -33 -88.5t-88 -34.5q-27 0 -52 11t-44.5 26.5t-38.5 31.5t-43.5 27t-50.5 11
q-38 0 -69 -10.5t-79 -34.5q-23 -33 -48.5 -49t-39.5 -4q-6 8 -5 19.5t21 27t53 28.5l281 276h-162l7 20h175l279 274q-92 -54 -173 -54q-42 0 -106.5 28t-107.5 28q-68 0 -68 -66q0 -59 72 -73l-4 -20q-106 19 -106 116q0 54 33 88.5t88 34.5q27 0 52 -11t44.5 -27
t38.5 -31.5t43.5 -26.5t50.5 -11q38 0 69 10.5t79 34.5q23 34 48 49.5t40 3.5z" />
    <glyph glyph-name="bracketleft" unicode="[" horiz-adv-x="300" 
d="M-24 -181l237 953h170l-4 -19h-81l-229 -915h81l-4 -19h-170z" />
    <glyph glyph-name="backslash" unicode="\" horiz-adv-x="492" 
d="M163 722l228 -736h-33l-226 736h31z" />
    <glyph glyph-name="bracketright" unicode="]" horiz-adv-x="300" 
d="M324 772l-237 -953h-170l4 19h81l229 915h-81l4 19h170z" />
    <glyph glyph-name="asciicircum" unicode="^" horiz-adv-x="535" 
d="M289 442q-38 -33 -92 -65.5t-108 -54.5l-4 14q72 31 135.5 82.5t102.5 109.5h18q4 -28 15 -55.5t28.5 -52.5t41 -47t51.5 -37l-12 -14q-54 22 -102.5 54.5t-73.5 65.5z" />
    <glyph glyph-name="underscore" unicode="_" horiz-adv-x="744" 
d="M-40 -120h601l-11 -40h-600z" />
    <glyph glyph-name="a" unicode="a" horiz-adv-x="632" 
d="M505 84q4 -33 18 -48t31 -16l-5 -20q-40 3 -109 3q-81 0 -120 -3l5 20q52 2 72 19t14 65l-15 124h-254l-68 -85q-26 -33 -35.5 -58t3.5 -43.5t53 -21.5v-20q-30 3 -91 3q-62 0 -87 -3v20q44 12 109 93l402 502h15zM158 248h236l-31 254z" />
    <glyph glyph-name="b" unicode="b" horiz-adv-x="613" 
d="M370 324q164 -23 164 -133q0 -80 -81 -135.5t-191 -55.5q-23 0 -79 1.5t-93 1.5q-80 0 -122 -3l4 20q52 2 70.5 17t32.5 69l106 396q16 46 5 66t-64 20l5 20q40 -3 119 -3q22 0 68.5 1t72.5 1q62 0 105 -13.5t63 -37.5t20 -57q0 -61 -59.5 -106.5t-145.5 -68.5zM277 517
l-51 -191h53q88 0 142.5 48.5t54.5 117.5q0 49 -26 72.5t-82 23.5q-44 0 -62 -14t-29 -57zM219 23q64 0 107 13t66 39t32.5 57t9.5 74q0 103 -143 103h-69l-54 -203q-15 -46 -6 -64.5t57 -18.5z" />
    <glyph glyph-name="c" unicode="c" horiz-adv-x="665" 
d="M274 -14q-110 0 -171 54.5t-61 155.5q0 59 18 119.5t54 115.5t84.5 97.5t114.5 68t139 25.5q55 0 88.5 -17.5t59.5 -47.5q25 -31 55 51h22q-31 -90 -65 -230h-22q6 51 6 77q0 39 -16 71q-18 38 -54.5 58t-82.5 20q-60 0 -116.5 -40.5t-96.5 -102.5t-64 -138.5t-24 -146.5
q0 -83 37.5 -127.5t103.5 -44.5q46 0 95 20.5t85 57.5q26 27 45 61t45 97h22q-47 -173 -59 -240h-22q3 21 3 34q0 40 -33 17q-46 -32 -89.5 -48.5t-100.5 -16.5z" />
    <glyph glyph-name="d" unicode="d" horiz-adv-x="724" 
d="M680 387q0 -82 -31.5 -153t-89 -123t-142 -81.5t-185.5 -29.5q-13 0 -65 1.5t-75 1.5q-81 0 -120 -3l3 20q49 2 67.5 17.5t32.5 68.5l105 396q16 49 5.5 67t-63.5 19l3 20q61 -4 122 -3q139 3 151 3q94 0 157 -25.5t94 -74.5t31 -121zM220 18q94 0 165 29t114 82t64 124
t21 159q0 91 -51 134.5t-163 43.5q-46 0 -64.5 -17t-32.5 -69l-105 -400q-15 -47 -6 -66.5t58 -19.5z" />
    <glyph glyph-name="e" unicode="e" horiz-adv-x="619" 
d="M407 605q151 0 217 3q-19 -47 -36 -108q-15 -58 -17 -72h-23q18 89 -2 123t-96 34h-73q-52 0 -70.5 -14.5t-32.5 -68.5l-50 -186h93q17 0 31 5t25.5 15.5t19.5 20t16 25.5t11.5 23.5t9.5 22.5h23q-24 -71 -36 -122q-1 -5 -7 -27t-11 -43.5t-9 -51.5h-23q3 17 3.5 27.5
t0.5 25.5t-4 24t-11 18t-21 13t-34 4h-83l-51 -190q-14 -55 -3.5 -69t62.5 -14h73q81 0 126 39t82 138h23q-18 -53 -24 -82q-11 -37 -25 -118q-70 3 -235 3q-185 0 -280 -3l5 20q52 2 70.5 17t32.5 69l107 396q13 55 3 69.5t-61 16.5l5 20q94 -3 279 -3z" />
    <glyph glyph-name="f" unicode="f" horiz-adv-x="578" 
d="M407 605q154 0 220 3q-19 -47 -36 -108q-15 -58 -17 -72h-23q18 88 -3.5 122.5t-97.5 34.5h-73q-36 0 -53.5 -6t-28.5 -22.5t-21 -54.5l-50 -186h103q20 0 37 8.5t27.5 18.5t21.5 29t15.5 28.5t11.5 27.5h23q-24 -71 -36 -122q-1 -5 -7 -27t-11 -43.5t-9 -51.5h-23
q3 28 4 53t-13.5 42t-46.5 17h-103l-51 -190q-14 -54 0.5 -69t77.5 -17l-5 -20q-51 3 -146 3q-85 0 -128 -3l5 20q52 2 70.5 17t32.5 69l107 396q13 55 3 69.5t-61 16.5l5 20q94 -3 279 -3z" />
    <glyph glyph-name="g" unicode="g" horiz-adv-x="697" 
d="M534 0h-20q5 14 2.5 30.5t-14.5 16.5q-16 0 -53 -23q-62 -38 -155 -38q-82 0 -138.5 24.5t-85 71t-28.5 113.5q0 72 28 146.5t78.5 137.5t130 103t173.5 40q60 0 95.5 -16.5t68.5 -48.5q15 -16 28.5 -5t28.5 56h22q-32 -92 -64 -230h-22q5 43 5 75q0 46 -14 73
q-21 37 -62 57.5t-92 20.5q-46 0 -87 -17t-72 -45.5t-56.5 -66t-43 -78.5t-29.5 -84t-17.5 -81t-5.5 -70q0 -79 42.5 -117.5t130.5 -38.5q17 0 35 2.5t38 8t37 14.5t30 23t18 32l18 67q7 26 8.5 41.5t-1.5 26.5t-14 16.5t-26 8t-42 3.5l4 20q52 -3 141 -3q68 0 104 3l-4 -20
q-36 -2 -48.5 -16.5t-27.5 -69.5z" />
    <glyph glyph-name="h" unicode="h" horiz-adv-x="758" 
d="M666 605q86 0 129 3l-5 -20q-52 -2 -70.5 -17t-32.5 -69l-105 -396q-14 -55 -3.5 -69.5t62.5 -16.5l-4 -20q-42 3 -128 3q-81 0 -127 -3l4 20q52 2 70.5 17t32.5 69l50 190h-321l-50 -190q-14 -55 -3.5 -69.5t62.5 -16.5l-4 -20q-47 3 -127 3q-83 0 -127 -3l5 20
q51 2 69 17t32 69l105 396q13 55 2.5 69.5t-61.5 16.5l5 20q41 -3 127 -3q80 0 128 3l-5 -20q-52 -2 -70.5 -17t-32.5 -69l-49 -186h321l49 186q14 55 3 69.5t-62 16.5l5 20q45 -3 126 -3z" />
    <glyph glyph-name="i" unicode="i" horiz-adv-x="344" 
d="M168 106q-14 -55 -3.5 -69.5t62.5 -16.5l-4 -20q-46 3 -127 3q-84 0 -127 -3l5 20q51 2 69 17t32 69l105 396q13 55 2.5 69.5t-61.5 16.5l5 20q40 -3 127 -3q80 0 128 3l-5 -20q-37 -2 -54 -8t-28 -23t-21 -55z" />
    <glyph glyph-name="j" unicode="j" horiz-adv-x="615" 
d="M673 620q7 -8 5.5 -17t-20.5 -21.5t-52 -25.5q-62 -51 -98 -118.5t-71 -181.5h100l-3 -20h-103q-1 -1 -1.5 -3t-0.5 -3l-70 -235q-24 -80 -85 -131.5t-151 -51.5q-46 0 -73.5 14t-28.5 41q-1 23 15 41t40 18q18 0 29.5 -11.5t12.5 -28.5q1 -34 -40 -53q15 -5 35 -5
q19 0 34.5 3t29 12t23.5 17t20 25.5t16 29.5t15 38t14 42t15 49q6 20 9 31l33 110q6 22 17 51h-126l3 20h131q17 42 39 79.5t39 61t51.5 57t51 47.5t61.5 52q-100 -60 -168 -60q-46 0 -117.5 28t-118.5 28q-33 0 -50 -17.5t-15 -48.5q1 -59 74 -73l-3 -20q-46 8 -77.5 35.5
t-32.5 80.5q-2 54 29.5 88.5t86.5 34.5q25 0 48.5 -8t41.5 -20t38 -25.5t37.5 -25.5t40.5 -20t47 -8q38 0 69 10.5t78 34.5q49 76 76 53z" />
    <glyph glyph-name="k" unicode="k" horiz-adv-x="674" 
d="M605 622q32 0 46.5 -16.5t12.5 -42.5q-2 -23 -16.5 -43.5t-41.5 -20.5q-21 0 -30.5 12.5t-8.5 30.5q2 30 32 59h-3q-19 0 -36 -14q-16 -15 -30 -48t-26 -67.5t-28.5 -68.5t-45 -58t-67.5 -29q57 -12 84 -46t23 -104l-2 -86q-1 -18 9 -28.5t24 -10.5q25 0 42.5 18.5
t31.5 59.5l17 51h20l-26 -77q-36 -107 -122 -107q-47 0 -68 30t-16 86l6 74q3 32 -1 59.5t-15 46.5t-26 26q-96 -25 -96 8q0 32 94 9q51 5 84.5 41t46 78t31 89t41.5 66q29 23 60 23zM168 106q-14 -55 -3.5 -69.5t62.5 -16.5l-4 -20q-46 3 -127 3q-84 0 -127 -3l5 20
q51 2 69 17t32 69l105 396q13 55 2.5 69.5t-61.5 16.5l5 20q40 -3 127 -3q80 0 128 3l-5 -20q-52 -2 -70.5 -17t-32.5 -69z" />
    <glyph glyph-name="l" unicode="l" horiz-adv-x="594" 
d="M537 210q-23 -68 -28 -92q-11 -37 -25 -118q-70 3 -238 3q-185 0 -280 -3l5 20q52 2 70.5 17t32.5 69l107 396q13 55 3 69.5t-61 16.5l5 20q40 -3 127 -3q80 0 128 3l-5 -20q-37 -2 -54.5 -8t-28.5 -23t-21 -55l-107 -396q-14 -55 -3.5 -69t62.5 -14h63q76 0 132 43.5
t93 143.5h23z" />
    <glyph glyph-name="m" unicode="m" horiz-adv-x="866" 
d="M784 619q77 0 125 3l-5 -20q-52 -2 -70.5 -17t-32.5 -69l-109 -410q-13 -55 -2.5 -69.5t61.5 -16.5l-4 -20q-46 3 -124 3q-88 0 -130 -3l4 20q37 2 54 8.5t28 23t21 54.5l121 451l-391 -562h-22l-91 571l-119 -450q-15 -55 -3 -74.5t69 -21.5l-5 -20q-36 3 -101 3
q-61 0 -94 -3l5 20q51 2 71.5 21t35.5 75l106 400q13 55 2.5 69.5t-61.5 16.5l5 20q31 -3 89 -3q49 0 84 3l79 -516l356 513h48z" />
    <glyph glyph-name="n" unicode="n" horiz-adv-x="797" 
d="M811 654q60 0 60 -51q0 -27 -16 -49.5t-43 -22.5q-20 0 -29 11.5t-9 27.5q0 35 32 63h-3q-46 -1 -82 -51q-88 -123 -201 -587h-22l-228 548q-107 -468 -176 -554q-16 -19 -27.5 -30.5t-33 -22t-46.5 -10.5q-60 0 -60 52q0 27 16 49t43 22q14 0 23 -6.5t12 -14.5t3 -18
q0 -33 -32 -63h2q48 1 84 52q72 107 170 541q2 28 -13.5 37t-63.5 11l5 20q31 -3 89 -3q47 0 81 3l190 -471q96 360 167 453q48 64 108 64z" />
    <glyph glyph-name="o" unicode="o" horiz-adv-x="732" 
d="M292 -14q-112 0 -179 61t-67 180q0 67 29 136.5t79.5 127.5t127 94.5t162.5 36.5q112 0 179 -61t67 -180q0 -67 -29 -136.5t-79.5 -127.5t-127 -94.5t-162.5 -36.5zM435 604q-79 0 -145 -58t-101.5 -147.5t-35.5 -185.5q0 -108 39.5 -158.5t108.5 -50.5q79 0 145 58
t101.5 147.5t35.5 185.5q0 73 -19.5 121t-51.5 68t-77 20z" />
    <glyph glyph-name="p" unicode="p" horiz-adv-x="582" 
d="M395 607q98 0 148.5 -35t50.5 -96q0 -101 -102.5 -166.5t-264.5 -65.5h-23l-37 -138q-8 -30 -8.5 -48t14.5 -27t53 -11l-4 -20q-46 3 -124 3q-88 0 -130 -3l4 20q52 2 70.5 17t32.5 69l105 396q14 44 3.5 63.5t-62.5 22.5l5 20q40 -3 123 -3q24 0 72.5 1t73.5 1zM237 264
q47 0 85.5 8t66 23t48 35.5t32.5 46t18 54t6 61.5q0 24 -7 42t-22.5 30t-39.5 18t-58 6q-44 0 -62 -17t-32 -69l-63 -238h28z" />
    <glyph glyph-name="q" unicode="q" horiz-adv-x="777" 
d="M642 30q23 0 36.5 -15.5t13.5 -40.5q0 -47 -39.5 -85.5t-95.5 -57.5t-112 -19q-41 0 -78 10.5t-69 31t-54.5 40t-50.5 47.5q-80 -23 -137 -23q-50 0 -78 19t-28 52q0 40 32.5 61t85.5 21q37 0 74 -14.5t59 -29.5t61 -44q71 31 135 76.5t115 101t81 122.5t30 134
q0 86 -44.5 136.5t-125.5 50.5q-105 0 -180 -74t-75 -182q0 -44 15.5 -74.5t41 -44t60.5 -13.5q56 0 104.5 39t48.5 90q0 26 -8 40q-7 -14 -18.5 -24.5t-25.5 -16t-28 -5.5q-22 0 -34.5 13t-12.5 34q0 26 19.5 43.5t47.5 17.5q24 0 42.5 -11.5t28.5 -32.5t10 -49
q0 -37 -18 -68t-47 -51t-66.5 -31t-76.5 -11q-91 0 -138 39.5t-47 105.5q0 65 35 120.5t89.5 90t118.5 54t125 19.5q116 0 189.5 -55.5t73.5 -152.5q0 -68 -40 -136.5t-105.5 -125t-143 -103t-159.5 -78.5q27 -21 48 -34.5t49.5 -28t60 -21.5t65.5 -7q58 0 96.5 11t69.5 40
q-18 -9 -36 -9q-23 0 -36 14t-13 35q0 23 17 41t42 18zM55 -65q57 0 125 19q-3 4 -10 10q-30 30 -45.5 44t-39.5 27.5t-46 13.5q-29 0 -50 -15t-21 -42q0 -29 26.5 -43t60.5 -14z" />
    <glyph glyph-name="r" unicode="r" horiz-adv-x="647" 
d="M562 107l5 14h23l-4 -13q-18 -62 -47.5 -92t-75.5 -30t-67 27.5t-18 68.5l4 63q2 39 -2 62.5t-19.5 41.5t-46 26.5t-80.5 10.5h-6h-13l-48 -180q-8 -30 -8.5 -48t14.5 -27t53 -11l-4 -20q-46 3 -124 3q-88 0 -130 -3l4 20q52 2 70.5 17t32.5 69l106 396q14 44 3.5 63.5
t-62.5 22.5l5 20q40 -3 123 -3q24 0 72.5 1t73.5 1q98 0 148.5 -32.5t50.5 -88.5q0 -75 -68 -125.5t-186 -67.5l21 -3q63 -12 89.5 -40.5t22.5 -91.5l-3 -53q-3 -42 3.5 -62.5t28.5 -19.5q17 1 30.5 21t28.5 63zM273 502l-52 -196h17q141 0 198.5 43t57.5 143q0 24 -7 42
t-22.5 30t-39.5 18t-58 6q-44 0 -62 -17t-32 -69z" />
    <glyph glyph-name="s" unicode="s" horiz-adv-x="563" 
d="M556 615q-36 -91 -59 -204h-20q6 28 6 56q0 60 -35 98t-109 38q-40 0 -70.5 -11t-49 -35.5t-18.5 -59.5q0 -48 32 -81.5t98 -76.5q31 -20 45 -29.5t37 -29t33.5 -35t19.5 -38t9 -47.5t-8 -47.5t-22 -40t-33 -32t-41.5 -24.5t-47.5 -17t-50 -10t-50 -3q-37 0 -67.5 8
t-44 16.5t-31.5 21.5q-19 15 -35 15q-13 0 -21 -11.5t-21 -42.5h-20q33 80 68 240h20q-10 -55 -9 -81q5 -146 165 -146q33 0 59 6.5t45.5 19t30 33t10.5 48.5q0 26 -9 48.5t-27.5 42.5t-35 33t-44.5 32q-3 2 -8 5l-28.5 19.5t-25.5 19.5t-24.5 21.5t-19.5 22.5t-16.5 26.5
t-9.5 29t-4 34.5q0 55 32.5 96t82.5 60t108 19q41 0 69 -10t58 -32q25 -18 33 -18q14 0 33 53h20z" />
    <glyph glyph-name="t" unicode="t" horiz-adv-x="611" 
d="M686 717q15 0 25.5 -6.5t15 -17t4.5 -23.5q0 -40 -46 -74q-56 -32 -138 -32q-38 0 -85 5l-131 -453q-17 -56 -2 -75.5t77 -20.5l-4 -20q-52 3 -149 3q-98 0 -146 -3l4 20q63 2 86.5 20.5t40.5 75.5l135 466q-88 12 -126 12q-64 0 -94 -17q18 -25 18 -58q0 -23 -13 -40.5
t-37 -17.5q-14 0 -24 6.5t-15 17.5t-5 26q0 51 52 78q43 23 113 23q56 0 157 -14t152 -14q66 0 111 22q-25 25 -25 56q0 22 12.5 38.5t36.5 16.5z" />
    <glyph glyph-name="u" unicode="u" horiz-adv-x="683" 
d="M574 291q-36 -138 -98 -212q-37 -43 -90.5 -68t-114.5 -25q-112 0 -154 54q-33 42 -35 94.5t25 153.5l57 214q13 55 2.5 69.5t-61.5 16.5l6 20q40 -3 129 -3q77 0 125 3l-6 -20q-52 -2 -70.5 -17t-32.5 -69l-62 -231q-12 -45 -17.5 -79t-4.5 -68t13 -55t38 -34.5
t67 -13.5q105 0 165.5 68t92.5 191l57 212q15 54 0 74t-67 22l5 20q36 -3 101 -3q61 0 94 3l-5 -20q-45 -2 -68 -22t-38 -74z" />
    <glyph glyph-name="v" unicode="v" horiz-adv-x="636" 
d="M658 605q41 0 68 3l-5 -20q-30 -12 -52.5 -32t-58.5 -66l-395 -495h-15l-66 529q-4 33 -19.5 48t-32.5 16l5 20q39 -3 108 -3q77 0 120 3l-5 -20q-18 -1 -29 -2.5t-22 -5t-16 -9t-10.5 -14.5t-4.5 -22t2 -31l48 -396l272 340q59 77 56 107.5t-63 32.5l5 20q28 -3 110 -3z
" />
    <glyph glyph-name="w" unicode="w" horiz-adv-x="906" 
d="M895 605q63 0 87 3l-5 -20q-31 -9 -55 -30.5t-52 -68.5l-302 -494h-16l-74 453l-269 -453h-16l-66 529q-8 62 -55 64l4 20q40 -3 99 -3q72 0 108 3l-4 -20q-36 -2 -49 -19t-7 -65l43 -376l207 350l-7 46q-10 62 -45 64l4 20q36 -3 89 -3q86 0 128 3l-4 -20
q-54 -2 -69.5 -18t-6.5 -66l64 -376l188 309q21 35 32 61t13 43t-5 27t-20.5 14.5t-34.5 5.5l5 20q30 -3 91 -3z" />
    <glyph glyph-name="x" unicode="x" horiz-adv-x="676" 
d="M641 622q17 0 29.5 -5t19 -13t9 -18.5t1.5 -22.5q-3 -24 -17.5 -44t-41.5 -20q-21 0 -30.5 12.5t-7.5 30.5q4 34 32 59h-3q-34 -1 -64 -21q-39 -28 -88 -92.5t-95 -156.5l20 -176q13 -114 79 -114q29 0 47 18t33 60l17 51h20l-26 -77q-36 -107 -122 -107q-114 0 -131 156
l-12 108q-41 -70 -93 -132.5t-98 -96.5q-48 -35 -92 -35q-34 0 -47.5 16.5t-11.5 42.5q3 24 17.5 44t41.5 20q21 0 30.5 -12.5t7.5 -30.5q-4 -34 -32 -59h3q36 2 64 21q45 29 100.5 95t105.5 160l-19 170q-13 114 -79 114q-20 0 -34.5 -8.5t-25 -25t-20.5 -44.5l-17 -51h-20
l26 77q36 107 122 107q114 0 131 -156l12 -105q38 72 82.5 133t84.5 93q44 35 92 35z" />
    <glyph glyph-name="y" unicode="y" horiz-adv-x="638" 
d="M643 622q31 0 44.5 -17t11.5 -42q-2 -24 -17 -44t-42 -20q-40 0 -38 43q2 30 32 59h-3q-25 -1 -55 -22q-122 -91 -216 -306l-43 -167q-14 -55 -3.5 -69.5t62.5 -16.5l-5 -20q-45 3 -124 3q-88 0 -131 -3l5 20q52 2 71 17t32 69l48 184q-31 277 -94 277q-17 0 -28.5 -11
t-19.5 -36l-28 -82h-22l33 97q16 47 36.5 67t61.5 20q21 0 38 -7t30 -24t22.5 -36.5t17.5 -52.5t14 -64t14 -78l8 -49q70 151 170 250q61 61 118 61z" />
    <glyph glyph-name="z" unicode="z" horiz-adv-x="654" 
d="M694 613q5 -4 6 -10.5t-3 -14.5t-12.5 -16t-23.5 -17t-36 -17l-268 -222h116l-8 -20h-132l-275 -228q92 54 173 54q42 0 106.5 -28t107.5 -28q33 0 50.5 17.5t17.5 48.5q0 59 -72 73l4 20q45 -8 75.5 -35.5t30.5 -80.5q0 -54 -33 -88.5t-88 -34.5q-23 0 -44.5 8t-37.5 20
l-34 25.5t-33.5 25.5t-36.5 20t-43 8q-38 0 -69 -10.5t-79 -34.5q-23 -33 -48.5 -49t-39.5 -4q-5 4 -6 10.5t3 14.5t12.5 16t24 17t35.5 17l273 226h-114l7 20h131l270 224q-92 -54 -173 -54q-42 0 -106.5 28t-107.5 28q-33 0 -50.5 -17.5t-17.5 -48.5q0 -59 72 -73l-4 -20
q-45 8 -75.5 35.5t-30.5 80.5q0 36 14.5 63.5t42 43.5t64.5 16q27 0 52 -11t44.5 -27t38.5 -31.5t43.5 -26.5t50.5 -11q38 0 69 10.5t79 34.5q23 34 48 49.5t40 3.5z" />
    <glyph glyph-name="braceleft" unicode="{" horiz-adv-x="306" 
d="M159 -188q-34 0 -58.5 6.5t-39.5 16.5t-23.5 28t-11 35t0 43.5t7 48t12.5 53.5q33 133 33 184q-1 30 -12 43.5t-35 15.5h-5l3 18h5q47 4 74 53t63 190q35 136 83.5 185.5t143.5 49.5l-5 -19q-35 -1 -53.5 -14t-36.5 -57.5t-42 -144.5q-16 -64 -39 -111t-51 -74.5
t-55 -42.5t-60 -24q35 -10 57 -31t30.5 -45t8.5 -57t-4.5 -59t-12.5 -60q-30 -123 -29 -162q0 -29 13.5 -39t43.5 -11z" />
    <glyph glyph-name="bar" unicode="|" horiz-adv-x="318" 
d="M189 858v-1053h-40v1053h40z" />
    <glyph glyph-name="braceright" unicode="}" horiz-adv-x="306" 
d="M148 782q34 0 58.5 -6.5t39.5 -16.5t23.5 -28t11 -35t0 -43.5t-7 -48t-12.5 -53.5q-33 -134 -33 -184q1 -30 12 -43.5t35 -15.5h5l-3 -18h-5q-47 -4 -74 -53t-63 -190q-35 -136 -83.5 -185.5t-143.5 -49.5l5 19q35 1 53.5 14t36.5 57.5t42 144.5q16 64 38.5 111t51 74.5
t55.5 42.5t60 24q-35 10 -57 31t-30.5 45t-8.5 57t4 59t13 60q30 123 29 162q0 29 -13.5 39t-43.5 11z" />
    <glyph glyph-name="asciitilde" unicode="~" horiz-adv-x="649" 
d="M420 237q-34 0 -67 12t-55 27t-53 27t-62 12q-65 0 -101 -58l-14 5q15 33 39.5 57t56.5 37t69 13q34 0 67 -12t54.5 -27t53 -27t62.5 -12q65 0 101 58l14 -5q-23 -50 -66.5 -78.5t-98.5 -28.5z" />
    <glyph glyph-name="uni00A0" unicode="&#xa0;" horiz-adv-x="253" 
 />
    <glyph glyph-name="exclamdown" unicode="&#xa1;" horiz-adv-x="249" 
d="M107 464q2 10 6.5 20t12 18t16 13.5t18.5 9t20 3.5q13 0 23.5 -5t17 -13.5t9 -20.5t0.5 -25q-5 -27 -26.5 -45.5t-47.5 -18.5q-25 0 -39.5 19t-9.5 45zM142 316q-25 -100 -51 -262.5t-36 -202.5q-9 -39 -45 -39q-29 0 -40 18t-2 44q8 29 68 185t88 260z" />
    <glyph glyph-name="cent" unicode="&#xa2;" horiz-adv-x="433" 
d="M652 608h22q-31 -90 -65 -230h-22q6 51 6 77q0 39 -16 71q-18 38 -54.5 58t-82.5 20q-63 0 -126 -47l-137 -509q38 -44 103 -44q46 0 95 20.5t85 57.5q26 27 45 61.5t45 96.5h22q-25 -93 -38.5 -148t-20.5 -92h-22q3 21 3 34q0 40 -33 17q-46 -32 -89.5 -48.5
t-100.5 -16.5q-56 0 -106 16l-49 -183h-22l52 192q-107 50 -107 185q0 58 18 118t51 113.5t83.5 98t110.5 68.5l31 114h22l-28 -105q59 19 122 19q38 0 67.5 -10t46.5 -22.5t34 -32.5q25 -31 55 51zM162 71l124 461q-66 -63 -106.5 -162.5t-40.5 -193.5q0 -64 23 -105z" />
    <glyph glyph-name="sterling" unicode="&#xa3;" horiz-adv-x="624" 
d="M502 639q0 8 2.5 15.5t6.5 14t10 12t13.5 10t15.5 6.5q0 10 -17.5 17t-38.5 7q-27 0 -50 -8t-39.5 -19.5t-32 -33t-25.5 -40t-20.5 -49t-17 -51t-15.5 -55.5l-13 -48h136l-6 -20h-135l-21 -80h135l-6 -20h-135q-14 -43 -38.5 -82.5t-49.5 -68t-67 -70.5q69 32 126 32
q34 0 94 -22.5t99 -22.5q35 0 60.5 20.5t25.5 53.5q0 56 -65 69l6 17q43 -7 72 -33.5t29 -68.5q0 -51 -43 -93t-100 -42q-26 0 -50 9.5t-43 23.5t-38.5 28t-44 23.5t-50.5 9.5q-41 0 -87 -20q-25 -35 -50.5 -54.5t-45.5 -19.5q-13 0 -13 10q0 16 27.5 38t71.5 35
q42 82 71 189l10 39h-97l6 20h97l21 80h-97l6 20h96l6 22q80 297 302 297q51 0 77.5 -19.5t26.5 -48.5q0 -25 -18 -44t-44 -19q-7 0 -14 2.5t-11.5 6.5t-7.5 10.5t-3 14.5z" />
    <glyph glyph-name="currency" unicode="&#xa4;" horiz-adv-x="569" 
d="M96 138l43 43q-42 52 -42 119t43 120l-44 44l28 28l44 -44q52 42 119 42q66 0 119 -43l45 45l28 -28l-45 -45q42 -53 42 -119q0 -67 -42 -119l44 -43l-28 -29l-44 44q-53 -42 -119 -42q-69 0 -119 41l-43 -43zM138 300q0 -62 44 -107t105 -45t104.5 45t43.5 107
t-44 107.5t-104 45.5q-61 0 -105 -45.5t-44 -107.5z" />
    <glyph glyph-name="yen" unicode="&#xa5;" horiz-adv-x="703" 
d="M708 722q31 0 44.5 -17t11.5 -42q-2 -24 -17 -44t-42 -20q-40 0 -38 43q1 30 32 59h-3q-27 -1 -55 -22q-124 -89 -229 -341l-10 -41h141l-5 -20h-141l-15 -60h139l-5 -20h-139l-23 -91q-13 -55 -2.5 -69.5t61.5 -16.5l-5 -20q-45 3 -124 3q-88 0 -131 -3l5 20q52 2 71 17
t32 69l23 91h-141l5 20h141l15 60h-139l5 20h139l11 42q-38 328 -117 328q-33 0 -48 -47l-28 -82h-22l33 97q16 47 36.5 67t61.5 20q40 0 68.5 -24.5t47.5 -75.5t30 -111t21 -151q73 183 187 297q65 65 118 65z" />
    <glyph glyph-name="brokenbar" unicode="&#xa6;" horiz-adv-x="322" 
d="M191 858v-474h-40v474h40zM151 -195v521h40v-521h-40z" />
    <glyph glyph-name="section" unicode="&#xa7;" horiz-adv-x="508" 
d="M411 663q0 23 16.5 40t41.5 24q-6 20 -32.5 28t-55.5 8q-26 0 -50 -7t-45.5 -21.5t-34 -41.5t-12.5 -63q0 -10 2 -19.5t4.5 -17.5t9 -18.5t10.5 -16.5t14 -16.5t14 -15t16.5 -16t16.5 -14.5t18 -15t17 -14q27 -23 43.5 -39t31.5 -35t22 -39t7 -42q0 -64 -44.5 -114.5
t-116.5 -86.5q43 -48 43 -102q0 -82 -66 -139.5t-154 -57.5q-33 0 -63 8.5t-53.5 30.5t-23.5 54q0 26 19.5 47t47.5 21q20 0 31.5 -10.5t11.5 -29.5q0 -24 -16.5 -41.5t-41.5 -24.5q6 -19 33.5 -27.5t54.5 -8.5q21 0 41 4t38.5 14t32 25t22 38.5t8.5 53.5q0 11 -2 21
t-7.5 20.5t-9.5 18.5t-13.5 18.5t-14.5 16.5t-18 17.5t-18 16t-20 17t-19 15.5q-54 46 -79 79.5t-25 75.5q0 64 44.5 114.5t116.5 86.5q-43 48 -43 102q0 82 66 139.5t154 57.5q23 0 46.5 -5t45.5 -15.5t35.5 -28.5t13.5 -41q0 -28 -19.5 -49.5t-48.5 -21.5
q-20 0 -31.5 11.5t-11.5 30.5zM295 400q-64 54 -80 70q-107 -57 -107 -132q0 -36 26.5 -68t78.5 -76q64 -54 80 -70q107 57 107 132q0 20 -7.5 38.5t-25 38t-32 32.5t-40.5 35z" />
    <glyph glyph-name="copyright" unicode="&#xa9;" horiz-adv-x="924" 
d="M88 384q0 108 53 200t145 145t200 53t200 -53t145 -145t53 -200t-53 -200t-145 -145t-200 -53t-200 53t-145 145t-53 200zM128 384q0 -99 48 -183.5t130.5 -133.5t179.5 -49t179.5 49t130.5 133.5t48 183.5q0 74 -28.5 142t-76 117t-114 78t-139.5 29q-97 0 -179.5 -49
t-130.5 -133.5t-48 -183.5zM509 156q44 0 82.5 25t63.5 78l19 -7q-17 -57 -63.5 -98t-119.5 -41q-96 0 -159 72t-63 193q0 123 65 200.5t169 77.5q65 0 113.5 -30.5t48.5 -78.5q0 -18 -7 -30.5t-19 -19t-27 -6.5q-23 0 -39 14.5t-16 39.5q0 21 11.5 34t30.5 17
q-10 18 -35.5 30t-54.5 12q-27 0 -50.5 -12t-45.5 -39t-34.5 -77.5t-12.5 -119.5q0 -121 40 -177.5t103 -56.5z" />
    <glyph glyph-name="ordfeminine" unicode="&#xaa;" horiz-adv-x="454" 
d="M427 453l9 25h19l-18 -49q-14 -39 -35.5 -54t-54.5 -15q-32 0 -40 21t6 73l12 43q-66 -137 -150 -137q-36 0 -57 22t-21 58q0 58 38 124.5t96 112t111 45.5q14 0 25 -8.5t13 -26.5l7 26q40 0 70 9l-94 -292q-13 -41 11 -41q16 0 28.5 14t24.5 50zM195 385q21 0 50.5 28.5
t58.5 76t48 100.5l20 70q-1 38 -25 38q-25 0 -56 -23t-58 -59t-45 -85.5t-18 -98.5q0 -47 25 -47z" />
    <glyph glyph-name="guillemotleft" unicode="&#xab;" horiz-adv-x="517" 
d="M318 528q-33 -69 -99 -157t-120 -127q41 -34 83.5 -114.5t57.5 -143.5h-18q-87 171 -198 257v2q144 102 276 283h18zM483 528q-30 -67 -97 -155.5t-122 -128.5q41 -34 83.5 -114.5t57.5 -143.5h-18q-87 171 -198 257v2q144 102 276 283h18z" />
    <glyph glyph-name="logicalnot" unicode="&#xac;" horiz-adv-x="661" 
d="M94 340l9 30h501l-59 -205h-36l50 175h-465z" />
    <glyph glyph-name="uni00AD" unicode="&#xad;" horiz-adv-x="504" 
 />
    <glyph glyph-name="registered" unicode="&#xae;" horiz-adv-x="699" 
d="M405 782q115 0 197 -82t82 -197.5t-82 -197t-197 -81.5t-197 81.5t-82 197.5q0 57 22 108.5t59.5 89t89 59.5t108.5 22zM405 256q99 0 168 72.5t69 174.5t-69 174.5t-168 72.5t-168 -72.5t-69 -174.5t69 -174.5t168 -72.5zM542 364q8 0 12 8l10 -7q-11 -21 -44 -21
q-25 0 -37.5 9.5t-17.5 31.5l-17 74q-6 29 -21 37t-67 9v-101q0 -23 4 -29t19 -8v-15q-6 0 -23.5 0.5t-27.5 0.5q-12 0 -29.5 -0.5t-22.5 -0.5v15q8 1 12 2.5t6.5 5.5t3.5 10.5t1 18.5v219q0 16 -2 23.5t-6.5 10.5t-14.5 4v15q12 -1 48 -1q21 0 51.5 0.5t34.5 0.5
q38 0 64 -9.5t39 -27t13 -42.5q0 -68 -98 -85q40 -4 57 -17.5t23 -40.5l12 -57q1 -2 1.5 -6t1 -6.5t1.5 -5.5t1.5 -5t2 -4t3 -3t3.5 -2t4 -1zM398 661q-12 0 -19.5 -1.5t-11.5 -5t-5.5 -9.5t-1.5 -17v-107h24q49 0 66.5 17t17.5 49q0 26 -6.5 42t-22 24t-41.5 8z" />
    <glyph glyph-name="degree" unicode="&#xb0;" horiz-adv-x="335" 
d="M261 820q51 0 86.5 -33t35.5 -87t-35.5 -87.5t-86.5 -33.5q-50 0 -85.5 33.5t-35.5 87.5t35.5 87t85.5 33zM261 596q38 0 67.5 27t29.5 76q0 48 -30 76t-67 28t-66.5 -28t-29.5 -76q0 -49 29 -76t67 -27z" />
    <glyph glyph-name="plusminus" unicode="&#xb1;" horiz-adv-x="635" 
d="M84 370h233l67 236h36l-67 -236h232l-9 -30h-232l-67 -235h-36l67 235h-233zM-9 0l9 30h501l-9 -30h-501z" />
    <glyph glyph-name="uni00B2" unicode="&#xb2;" horiz-adv-x="341" 
d="M294 754q79 0 79 -57q0 -30 -24.5 -62.5t-51.5 -53.5t-69.5 -50.5t-55.5 -40.5q16 0 62.5 -9t63.5 -9q21 0 34 9.5t13 25.5q0 11 -4 19l17 7q10 -15 10 -32q0 -29 -24 -48.5t-66 -19.5q-10 0 -20 1t-18 3t-18 4t-19 4t-20.5 3.5t-23.5 2.5q-36 2 -78 -14l4 18
q8 5 45.5 28.5t62.5 41.5t56.5 44.5t48 54t16.5 53.5q0 43 -54 43q-62 0 -107 -52l-14 11q26 32 66 53.5t89 21.5z" />
    <glyph glyph-name="uni00B3" unicode="&#xb3;" horiz-adv-x="326" 
d="M299 754q18 0 32 -3.5t25 -10t17 -16.5t6 -24q0 -39 -44.5 -70.5t-94.5 -43.5q47 -2 78 -19.5t31 -54.5q0 -36 -30 -66.5t-76.5 -51t-98.5 -32.5t-101 -16v18q60 5 114.5 23.5t93 53.5t38.5 79q0 50 -55 52q-19 -10 -32 -10q-18 0 -18 13q0 19 44 17q93 34 93 94
q0 37 -47 37q-60 0 -116 -56l-14 12q25 29 66.5 52t88.5 23z" />
    <glyph glyph-name="paragraph" unicode="&#xb6;" horiz-adv-x="640" 
d="M354 -13q-318 0 -318 242q0 98 37 186.5t99.5 153t150 102.5t184.5 38q29 0 78 -1.5t72 -1.5q40 0 60 2l-5 -19q-46 -2 -65.5 -17.5t-29.5 -50.5l-139 -528q-75 -281 -245 -281q-46 0 -73.5 14t-28.5 41q0 22 18 41.5t41 19.5q15 0 24 -8.5t9 -22.5q0 -33 -35 -64
q15 -5 35 -5q50 0 79 40.5t52 118.5zM418 337q-19 -74 -32 -147t-14 -103t0 -39q161 604 163 608q-3 0 -20.5 -38t-43 -109t-45.5 -143q-70 0 -139.5 -3t-106.5 -6.5t-38 -5.5q0 -1 13.5 -3t39.5 -4t59 -3.5t76.5 -2.5t87.5 -1z" />
    <glyph glyph-name="periodcentered" unicode="&#xb7;" horiz-adv-x="258" 
d="M56 251q5 26 26.5 45t46.5 19q26 0 40.5 -18.5t9.5 -45.5t-26.5 -45.5t-47.5 -18.5q-25 0 -39.5 19t-9.5 45z" />
    <glyph glyph-name="uni00B9" unicode="&#xb9;" horiz-adv-x="253" 
d="M316 753l-101 -316h-59l81 251q-63 -37 -126 -54l5 19q44 13 82 33t53 31t46 36h19z" />
    <glyph glyph-name="ordmasculine" unicode="&#xba;" horiz-adv-x="411" 
d="M107 465q0 38 14 81.5t39.5 83.5t67.5 66t91 26q54 0 84.5 -26.5t30.5 -78.5q0 -38 -14 -81.5t-39.5 -83t-67.5 -65.5t-91 -26q-54 0 -84.5 26.5t-30.5 77.5zM314 704q-35 0 -67 -42t-50 -103.5t-18 -121.5q0 -58 48 -58q35 0 67 42t50 103.5t18 121.5q0 58 -48 58z" />
    <glyph glyph-name="guillemotright" unicode="&#xbb;" horiz-adv-x="516" 
d="M111 528q88 -173 198 -258v-1q-144 -102 -276 -283h-18q33 69 99 157t120 127q-41 34 -83.5 114.5t-57.5 143.5h18zM276 528q88 -173 198 -258v-1q-144 -102 -276 -283h-18q33 69 99 157t120 127q-41 34 -83.5 114.5t-57.5 143.5h18z" />
    <glyph glyph-name="onequarter" unicode="&#xbc;" horiz-adv-x="606" 
d="M719 824l15 -13l-833 -866l-15 13zM156 437l81 251q-63 -37 -126 -54l5 19q44 13 82 33t53 31t46 36h19l-101 -316h-59zM446 317h19l-71 -244h56l-11 -41h-57l-34 -117h-52l34 117h-189l5 18zM199 73h143l49 170z" />
    <glyph glyph-name="onehalf" unicode="&#xbd;" horiz-adv-x="606" 
d="M719 824l15 -13l-833 -866l-15 13zM316 753l-101 -316h-59l81 251q-63 -37 -126 -54l5 19q44 13 82 33t53 31t46 36h19zM451 317q79 0 79 -57q0 -30 -24.5 -62.5t-51.5 -53.5t-69.5 -50.5t-55.5 -40.5q16 0 62.5 -9t63.5 -9q21 0 34 9.5t13 25.5q0 11 -4 19l17 7
q10 -15 10 -32q0 -29 -24 -48.5t-66 -19.5q-21 0 -58 8.5t-61 9.5q-36 2 -78 -14l4 18q8 5 45.5 28.5t62.5 41.5t56.5 44.5t48 54t16.5 53.5q0 43 -54 43q-62 0 -107 -52l-14 11q26 32 66 53.5t89 21.5z" />
    <glyph glyph-name="threequarters" unicode="&#xbe;" horiz-adv-x="706" 
d="M819 824l15 -13l-833 -866l-15 13zM349 512q0 -36 -30 -66.5t-76.5 -51t-98.5 -32.5t-101 -16v18q60 5 114.5 23.5t93 53.5t38.5 79q0 50 -55 52q-19 -10 -32 -10q-18 0 -18 13q0 19 44 17q93 34 93 94q0 37 -47 37q-60 0 -116 -56l-14 12q25 29 66.5 52t88.5 23
q24 0 41.5 -5.5t28 -18t10.5 -30.5q0 -39 -44.5 -70.5t-94.5 -43.5q47 -2 78 -19.5t31 -54.5zM546 317h19l-71 -244h56l-11 -41h-57l-34 -117h-52l34 117h-189l5 18zM299 73h143l49 170z" />
    <glyph glyph-name="questiondown" unicode="&#xbf;" horiz-adv-x="446" 
d="M201 464q4 26 25.5 45t47.5 19q17 0 29.5 -8.5t18 -23.5t2.5 -32q-5 -27 -26.5 -45.5t-47.5 -18.5q-17 0 -29.5 8.5t-17.5 23.5t-2 32zM123 -171q24 0 49 5t46.5 16.5t27.5 27.5q-10 3 -18 15.5t-7 28.5q1 20 16.5 32.5t36.5 12.5q13 0 22 -5.5t13.5 -14.5t4.5 -22
q0 -48 -64 -80.5t-146 -32.5q-66 0 -106 25.5t-40 72.5q0 44 34 79t131 99q12 9 35 25t32 22t24 18t21 19t13 17.5t9.5 20t2.5 21.5q0 28 -19 48t-49 20q-32 0 -62.5 -12t-42.5 -32q10 -1 18.5 -11.5t7.5 -23.5q0 -16 -13 -28.5t-32 -12.5q-34 0 -34 35q0 30 29 54t69 36
t80 12q52 0 83.5 -25t31.5 -71q0 -20 -8 -39.5t-18 -33.5t-32 -33t-37.5 -30.5t-47.5 -34.5q-15 -10 -23 -16q-71 -47 -98 -74.5t-27 -61.5q0 -29 23 -48.5t64 -19.5z" />
    <glyph glyph-name="Agrave" unicode="&#xc0;" horiz-adv-x="629" 
d="M487 769q-41 33 -91.5 69t-66.5 51q-33 33 -12 59q14 13 33 8.5t33 -19.5t47.5 -65.5t66.5 -92.5zM504 84q3 -33 17 -48t32 -16l-4 -20q-41 3 -109 3q-81 0 -120 -3l4 20q51 2 69.5 18.5t16.5 65.5l-9 164h-246l-75 -106q-53 -79 -45.5 -109.5t72.5 -32.5l-5 -20
q-55 3 -114 3q-43 0 -75 -3l5 20q46 10 100 87l431 606h15zM169 288h231l-17 303z" />
    <glyph glyph-name="Aacute" unicode="&#xc1;" horiz-adv-x="629" 
d="M705 920q6 -14 -4.5 -29t-28.5 -25q-21 -12 -91.5 -38.5t-130.5 -55.5l-7 11q55 37 114.5 83t81.5 59q18 11 36.5 11.5t29.5 -16.5zM504 84q3 -33 17 -48t32 -16l-4 -20q-41 3 -109 3q-81 0 -120 -3l4 20q51 2 69.5 18.5t16.5 65.5l-9 164h-246l-75 -106
q-53 -79 -45.5 -109.5t72.5 -32.5l-5 -20q-55 3 -114 3q-43 0 -75 -3l5 20q46 10 100 87l431 606h15zM169 288h231l-17 303z" />
    <glyph glyph-name="Acircumflex" unicode="&#xc2;" horiz-adv-x="629" 
d="M511 916q57 -98 139 -130l-4 -14q-19 4 -35.5 7.5t-31.5 9t-25 9t-24.5 10.5t-20 9.5t-21 11.5t-19.5 11q-111 -47 -206 -68l-5 14q152 47 235 130h18zM504 84q3 -33 17 -48t32 -16l-4 -20q-41 3 -109 3q-81 0 -120 -3l4 20q51 2 69.5 18.5t16.5 65.5l-9 164h-246
l-75 -106q-53 -79 -45.5 -109.5t72.5 -32.5l-5 -20q-55 3 -114 3q-43 0 -75 -3l5 20q46 10 100 87l431 606h15zM169 288h231l-17 303z" />
    <glyph glyph-name="Atilde" unicode="&#xc3;" horiz-adv-x="629" 
d="M663 880l18 -5q-22 -52 -57 -77.5t-73 -25.5q-31 0 -56 11.5t-39 25t-34.5 25t-43.5 11.5q-38 0 -70 -58l-18 5q22 52 57 77.5t73 25.5q39 0 67.5 -18.5t53 -36.5t52.5 -18q38 0 70 58zM504 84q3 -33 17 -48t32 -16l-4 -20q-41 3 -109 3q-81 0 -120 -3l4 20
q51 2 69.5 18.5t16.5 65.5l-9 164h-246l-75 -106q-53 -79 -45.5 -109.5t72.5 -32.5l-5 -20q-55 3 -114 3q-43 0 -75 -3l5 20q46 10 100 87l431 606h15zM169 288h231l-17 303z" />
    <glyph glyph-name="Adieresis" unicode="&#xc4;" horiz-adv-x="629" 
d="M348 772q-22 0 -36 14.5t-14 36.5q0 24 20.5 44.5t46.5 20.5q21 0 35.5 -14.5t14.5 -35.5q0 -25 -20 -45.5t-47 -20.5zM577 888q21 0 35.5 -14.5t14.5 -35.5q0 -25 -20 -45.5t-47 -20.5q-22 0 -36 14.5t-14 36.5q0 24 20.5 44.5t46.5 20.5zM504 84q3 -33 17 -48t32 -16
l-4 -20q-41 3 -109 3q-81 0 -120 -3l4 20q51 2 69.5 18.5t16.5 65.5l-9 164h-246l-75 -106q-53 -79 -45.5 -109.5t72.5 -32.5l-5 -20q-55 3 -114 3q-43 0 -75 -3l5 20q46 10 100 87l431 606h15zM169 288h231l-17 303z" />
    <glyph glyph-name="Aring" unicode="&#xc5;" horiz-adv-x="629" 
d="M461 742q-36 0 -59.5 21.5t-23.5 58.5q0 43 32 73t77 30q37 0 61.5 -22t24.5 -58q0 -42 -33.5 -72.5t-78.5 -30.5zM483 904q-31 0 -55 -24.5t-24 -56.5q0 -28 18 -44t43 -16q32 0 57 24t25 59q0 27 -19.5 42.5t-44.5 15.5zM504 84q3 -33 17 -48t32 -16l-4 -20
q-41 3 -109 3q-81 0 -120 -3l4 20q51 2 69.5 18.5t16.5 65.5l-9 164h-246l-75 -106q-53 -79 -45.5 -109.5t72.5 -32.5l-5 -20q-55 3 -114 3q-43 0 -75 -3l5 20q46 10 100 87l431 606h15zM169 288h231l-17 303z" />
    <glyph glyph-name="AE" unicode="&#xc6;" horiz-adv-x="897" 
d="M727 705q144 0 207 3q-13 -36 -38 -118q-9 -30 -13 -62h-22q16 88 -2.5 122.5t-78.5 34.5h-93q-50 0 -68 -14.5t-32 -68.5l-63 -236h108q21 0 37.5 8.5t29 27t19 33.5t17.5 43h22q-10 -31 -34 -122q-11 -41 -26 -122h-22q0 10 2.5 28.5t2.5 30t-3 24.5t-15.5 20.5
t-33.5 8.5h-109l-64 -240q-14 -55 -3.5 -69t60.5 -14h103q70 0 107 38t72 139h22q-8 -22 -21 -72q-17 -59 -26 -128q-68 3 -226 3q-190 0 -288 -3l4 20q52 2 70.5 17t32.5 69l64 240h-163l-223 -252q-13 -14 -19.5 -24t-8.5 -19t3.5 -15t19.5 -10t38 -6v-20q-27 3 -86 3
q-43 0 -67 -3v20q31 2 86 64l496 561q1 25 -13 33t-54 10l5 20q72 -2 116 -2l59 67h26l-60 -67q59 -1 146 -1zM281 366h150l63 236q0 1 1 3.5t1 3.5z" />
    <glyph glyph-name="Ccedilla" unicode="&#xc7;" horiz-adv-x="670" 
d="M691 708h21q-33 -86 -64 -230h-22q14 99 -10 148q-18 37 -53.5 57.5t-77.5 20.5q-83 0 -162 -79.5t-125.5 -196.5t-46.5 -228q0 -96 38 -146t105 -50q44 0 93 20.5t85 57.5q43 43 90 158h22q-47 -173 -59 -240h-22q3 21 3 34q0 22 -8 25t-25 -8q-33 -22 -53 -33t-54 -21
t-72 -11l-28 -58q24 7 51 7q53 0 53 -40t-48.5 -61.5t-104.5 -21.5q-66 0 -100 22l7 15q32 -13 80 -13q33 0 67.5 12.5t34.5 38.5q0 24 -38 24q-20 0 -41 -7l40 82q-104 5 -160 65t-56 170q0 85 33.5 174t89.5 161.5t139 119t174 46.5q40 0 70.5 -10.5t44.5 -22t34 -32.5
q7 -7 13 -8t13 4.5t14 19t15 35.5z" />
    <glyph glyph-name="Egrave" unicode="&#xc8;" horiz-adv-x="610" 
d="M452 769q-41 33 -91.5 69t-66.5 51q-33 33 -12 59q14 13 33 8.5t33 -19.5t47.5 -65.5t66.5 -92.5zM443 705q140 0 199 3q-26 -72 -38 -118q-11 -36 -14 -62h-23q18 88 1 122.5t-93 34.5h-73q-52 0 -70 -14.5t-33 -68.5l-63 -236h66q21 0 38.5 7t28.5 16t22 26t15.5 27
t13 30.5t10.5 25.5h23q-13 -40 -41 -142q-14 -53 -32 -142h-23q1 5 2 14q3 31 5.5 57t-14 43.5t-54.5 17.5h-66l-64 -240q-14 -55 -3.5 -69t62.5 -14h73q90 0 131.5 37t79.5 140h23q-11 -29 -22 -72q-16 -56 -27 -128q-68 3 -229 3q-192 0 -289 -3l5 20q52 2 70 17t33 69
l133 496q14 55 3.5 69.5t-61.5 16.5l5 20q98 -3 290 -3z" />
    <glyph glyph-name="Eacute" unicode="&#xc9;" horiz-adv-x="610" 
d="M670 920q6 -14 -4.5 -29t-28.5 -25q-21 -12 -91.5 -38.5t-130.5 -55.5l-7 11q55 37 114.5 83t81.5 59q18 11 36.5 11.5t29.5 -16.5zM153 708q98 -3 290 -3q140 0 199 3q-26 -72 -38 -118q-11 -36 -14 -62h-23q18 88 1 122.5t-93 34.5h-73q-52 0 -70 -14.5t-33 -68.5
l-63 -236h66q21 0 38.5 7t28.5 16t22 26t15.5 27t13 30.5t10.5 25.5h23q-13 -40 -41 -142q-14 -53 -32 -142h-23q1 5 2 14q3 31 5.5 57t-14 43.5t-54.5 17.5h-66l-64 -240q-14 -55 -3.5 -69t62.5 -14h73q90 0 131.5 37t79.5 140h23q-11 -29 -22 -72q-16 -56 -27 -128
q-68 3 -229 3q-192 0 -289 -3l5 20q52 2 70 17t33 69l133 496q14 55 3.5 69.5t-61.5 16.5z" />
    <glyph glyph-name="Ecircumflex" unicode="&#xca;" horiz-adv-x="610" 
d="M434 840q-111 -47 -206 -68l-5 14q152 47 235 130h18q57 -98 139 -130l-4 -14q-19 4 -35.5 7.5t-31.5 9t-25 9t-24.5 10.5t-20 9.5t-21 11.5t-19.5 11zM443 705q140 0 199 3q-26 -72 -38 -118q-11 -36 -14 -62h-23q18 88 1 122.5t-93 34.5h-73q-52 0 -70 -14.5t-33 -68.5
l-63 -236h66q21 0 38.5 7t28.5 16t22 26t15.5 27t13 30.5t10.5 25.5h23q-13 -40 -41 -142q-14 -53 -32 -142h-23q1 5 2 14q3 31 5.5 57t-14 43.5t-54.5 17.5h-66l-64 -240q-14 -55 -3.5 -69t62.5 -14h73q90 0 131.5 37t79.5 140h23q-11 -29 -22 -72q-16 -56 -27 -128
q-68 3 -229 3q-192 0 -289 -3l5 20q52 2 70 17t33 69l133 496q14 55 3.5 69.5t-61.5 16.5l5 20q98 -3 290 -3z" />
    <glyph glyph-name="Edieresis" unicode="&#xcb;" horiz-adv-x="610" 
d="M313 772q-22 0 -36 14.5t-14 36.5q0 24 20.5 44.5t46.5 20.5q21 0 35.5 -14.5t14.5 -35.5q0 -25 -20 -45.5t-47 -20.5zM525 772q-22 0 -36 14.5t-14 36.5q0 24 20.5 44.5t46.5 20.5q21 0 35.5 -14.5t14.5 -35.5q0 -25 -20 -45.5t-47 -20.5zM443 705q140 0 199 3
q-26 -72 -38 -118q-11 -36 -14 -62h-23q18 88 1 122.5t-93 34.5h-73q-52 0 -70 -14.5t-33 -68.5l-63 -236h66q21 0 38.5 7t28.5 16t22 26t15.5 27t13 30.5t10.5 25.5h23q-13 -40 -41 -142q-14 -53 -32 -142h-23q1 5 2 14q3 31 5.5 57t-14 43.5t-54.5 17.5h-66l-64 -240
q-14 -55 -3.5 -69t62.5 -14h73q90 0 131.5 37t79.5 140h23q-11 -29 -22 -72q-16 -56 -27 -128q-68 3 -229 3q-192 0 -289 -3l5 20q52 2 70 17t33 69l133 496q14 55 3.5 69.5t-61.5 16.5l5 20q98 -3 290 -3z" />
    <glyph glyph-name="Igrave" unicode="&#xcc;" horiz-adv-x="341" 
d="M330 769q-41 33 -91.5 69t-66.5 51q-33 33 -12 59q14 13 33 8.5t33 -19.5t47.5 -65.5t66.5 -92.5zM166 106q-14 -55 -3.5 -69.5t62.5 -16.5l-4 -20q-47 3 -127 3q-84 0 -127 -3l5 20q51 2 69 17t32 69l132 496q13 55 2.5 69.5t-61.5 16.5l5 20q41 -3 127 -3q80 0 128 3
l-5 -20q-52 -2 -70.5 -17t-32.5 -69z" />
    <glyph glyph-name="Iacute" unicode="&#xcd;" horiz-adv-x="341" 
d="M286 783q55 37 114.5 83t81.5 59q18 11 36.5 11.5t29.5 -16.5q6 -14 -4.5 -29t-28.5 -25q-21 -12 -91.5 -38.5t-130.5 -55.5zM166 106q-14 -55 -3.5 -69.5t62.5 -16.5l-4 -20q-47 3 -127 3q-84 0 -127 -3l5 20q51 2 69 17t32 69l132 496q13 55 2.5 69.5t-61.5 16.5l5 20
q41 -3 127 -3q80 0 128 3l-5 -20q-52 -2 -70.5 -17t-32.5 -69z" />
    <glyph glyph-name="Icircumflex" unicode="&#xce;" horiz-adv-x="341" 
d="M312 840q-111 -47 -206 -68l-5 14q152 47 235 130h18q57 -98 139 -130l-4 -14q-19 4 -35.5 7.5t-31.5 9t-25 9t-24.5 10.5t-20 9.5t-21 11.5t-19.5 11zM166 106q-14 -55 -3.5 -69.5t62.5 -16.5l-4 -20q-47 3 -127 3q-84 0 -127 -3l5 20q51 2 69 17t32 69l132 496
q13 55 2.5 69.5t-61.5 16.5l5 20q41 -3 127 -3q80 0 128 3l-5 -20q-52 -2 -70.5 -17t-32.5 -69z" />
    <glyph glyph-name="Idieresis" unicode="&#xcf;" horiz-adv-x="341" 
d="M141 823q0 24 20.5 44.5t46.5 20.5q21 0 35.5 -14.5t14.5 -35.5q0 -25 -20 -45.5t-47 -20.5q-22 0 -36 14.5t-14 36.5zM353 823q0 24 20.5 44.5t46.5 20.5q21 0 35.5 -14.5t14.5 -35.5q0 -25 -20 -45.5t-47 -20.5q-22 0 -36 14.5t-14 36.5zM166 106q-14 -55 -3.5 -69.5
t62.5 -16.5l-4 -20q-47 3 -127 3q-84 0 -127 -3l5 20q51 2 69 17t32 69l132 496q13 55 2.5 69.5t-61.5 16.5l5 20q41 -3 127 -3q80 0 128 3l-5 -20q-52 -2 -70.5 -17t-32.5 -69z" />
    <glyph glyph-name="Eth" unicode="&#xd0;" horiz-adv-x="725" 
d="M422 708q282 0 282 -221q0 -93 -36 -181.5t-97.5 -156t-151 -108.5t-189.5 -41q-13 0 -65 1.5t-75 1.5q-81 0 -120 -3l3 20q49 2 67.5 17.5t32.5 68.5l62 235h-115l6 25h116l62 236q15 49 5 67t-63 19l3 20q61 -4 122 -3q138 3 151 3zM218 18q93 0 168.5 40.5t123 109.5
t73 157t25.5 187q0 91 -51 134.5t-163 43.5q-46 0 -64.5 -17t-32.5 -69l-62 -238h203l-6 -25h-204l-62 -237q-16 -44 -7 -65t59 -21z" />
    <glyph glyph-name="Ntilde" unicode="&#xd1;" horiz-adv-x="770" 
d="M441 845q-38 0 -70 -58l-18 5q22 52 57 77.5t73 25.5q39 0 67.5 -18.5t53 -36.5t52.5 -18q38 0 70 58l18 -5q-22 -52 -57 -77.5t-73 -25.5q-31 0 -56 11.5t-39 25t-34.5 25t-43.5 11.5zM812 754q60 0 60 -51q0 -27 -16 -49.5t-43 -22.5q-38 0 -38 39q0 33 32 63h-3
q-49 -1 -82 -51q-44 -66 -92 -232.5t-109 -454.5h-22l-228 644q-109 -561 -176 -650q-47 -63 -107 -63t-60 52q0 27 16 49t43 22q38 0 38 -39q0 -33 -32 -63h3q51 1 83 52q67 105 164 603q11 55 -1 69.5t-70 16.5l5 20q32 -3 89 -3q46 0 81 3l189 -553q96 430 168 535
q44 64 108 64z" />
    <glyph glyph-name="Ograve" unicode="&#xd2;" horiz-adv-x="729" 
d="M525 769q-41 33 -91.5 69t-66.5 51q-33 33 -12 59q14 13 33 8.5t33 -19.5t47.5 -65.5t66.5 -92.5zM54 226q0 84 30.5 171t83 159.5t132.5 119t171 46.5q112 0 174 -63t62 -178q0 -83 -30.5 -170t-83.5 -159.5t-133.5 -119t-170.5 -46.5q-111 0 -173 63t-62 177zM462 704
q-75 0 -146 -72t-113.5 -186.5t-42.5 -232.5q0 -97 38 -153t100 -56q75 0 146 72t113.5 186.5t42.5 232.5q0 97 -38 153t-100 56z" />
    <glyph glyph-name="Oacute" unicode="&#xd3;" horiz-adv-x="729" 
d="M481 783q55 37 114.5 83t81.5 59q18 11 36.5 11.5t29.5 -16.5q6 -14 -4.5 -29t-28.5 -25q-21 -12 -91.5 -38.5t-130.5 -55.5zM54 226q0 84 30.5 171t83 159.5t132.5 119t171 46.5q112 0 174 -63t62 -178q0 -83 -30.5 -170t-83.5 -159.5t-133.5 -119t-170.5 -46.5
q-111 0 -173 63t-62 177zM462 704q-75 0 -146 -72t-113.5 -186.5t-42.5 -232.5q0 -97 38 -153t100 -56q75 0 146 72t113.5 186.5t42.5 232.5q0 97 -38 153t-100 56z" />
    <glyph glyph-name="Ocircumflex" unicode="&#xd4;" horiz-adv-x="729" 
d="M507 840q-111 -47 -206 -68l-5 14q152 47 235 130h18q57 -98 139 -130l-4 -14q-19 4 -35.5 7.5t-31.5 9t-25 9t-24.5 10.5t-20 9.5t-21 11.5t-19.5 11zM54 226q0 84 30.5 171t83 159.5t132.5 119t171 46.5q112 0 174 -63t62 -178q0 -83 -30.5 -170t-83.5 -159.5
t-133.5 -119t-170.5 -46.5q-111 0 -173 63t-62 177zM462 704q-75 0 -146 -72t-113.5 -186.5t-42.5 -232.5q0 -97 38 -153t100 -56q75 0 146 72t113.5 186.5t42.5 232.5q0 97 -38 153t-100 56z" />
    <glyph glyph-name="Otilde" unicode="&#xd5;" horiz-adv-x="729" 
d="M458 895q39 0 67.5 -18.5t53 -36.5t52.5 -18q38 0 70 58l18 -5q-22 -52 -57 -77.5t-73 -25.5q-31 0 -56 11.5t-39 25t-34.5 25t-43.5 11.5q-38 0 -70 -58l-18 5q22 52 57 77.5t73 25.5zM54 226q0 84 30.5 171t83 159.5t132.5 119t171 46.5q112 0 174 -63t62 -178
q0 -83 -30.5 -170t-83.5 -159.5t-133.5 -119t-170.5 -46.5q-111 0 -173 63t-62 177zM462 704q-75 0 -146 -72t-113.5 -186.5t-42.5 -232.5q0 -97 38 -153t100 -56q75 0 146 72t113.5 186.5t42.5 232.5q0 97 -38 153t-100 56z" />
    <glyph glyph-name="Odieresis" unicode="&#xd6;" horiz-adv-x="729" 
d="M336 823q0 24 20.5 44.5t46.5 20.5q21 0 35.5 -14.5t14.5 -35.5q0 -25 -20 -45.5t-47 -20.5q-22 0 -36 14.5t-14 36.5zM548 823q0 24 20.5 44.5t46.5 20.5q21 0 35.5 -14.5t14.5 -35.5q0 -25 -20 -45.5t-47 -20.5q-22 0 -36 14.5t-14 36.5zM54 226q0 84 30.5 171
t83 159.5t132.5 119t171 46.5q112 0 174 -63t62 -178q0 -83 -30.5 -170t-83.5 -159.5t-133.5 -119t-170.5 -46.5q-111 0 -173 63t-62 177zM462 704q-75 0 -146 -72t-113.5 -186.5t-42.5 -232.5q0 -97 38 -153t100 -56q75 0 146 72t113.5 186.5t42.5 232.5q0 97 -38 153
t-100 56z" />
    <glyph glyph-name="multiply" unicode="&#xd7;" horiz-adv-x="513" 
d="M27 182l223 173l-125 175l26 18l123 -175l227 177l16 -22l-227 -176l125 -173l-25 -18l-124 173l-224 -174z" />
    <glyph glyph-name="Oslash" unicode="&#xd8;" horiz-adv-x="729" 
d="M787 760l-121 -127q41 -59 41 -152q0 -83 -30.5 -170t-83.5 -159.5t-133.5 -119t-170.5 -46.5q-113 0 -175 65l-117 -124l-17 14l119 127q-45 61 -45 158q0 84 30.5 171t83 159.5t132.5 119t171 46.5q121 0 183 -73l118 124zM462 704q-75 0 -146 -72t-113.5 -186.5
t-42.5 -232.5q0 -42 8 -80l421 454q-16 56 -49 86.5t-78 30.5zM298 4q75 0 146 72t113.5 186.5t42.5 232.5q0 37 -6 67l-419 -454q16 -49 48.5 -76.5t74.5 -27.5z" />
    <glyph glyph-name="Ugrave" unicode="&#xd9;" horiz-adv-x="682" 
d="M505 769q-41 33 -91.5 69t-66.5 51q-33 33 -12 59q14 13 33 8.5t33 -19.5t47.5 -65.5t66.5 -92.5zM631 592q14 54 -1 74t-66 22l5 20q35 -3 101 -3q60 0 94 3l-5 -20q-51 -2 -71.5 -21t-34.5 -75l-78 -301q-36 -138 -98 -212q-80 -93 -205 -93q-107 0 -154 54
q-34 39 -35 98.5t25 149.5l83 314q13 55 2.5 69.5t-61.5 16.5l6 20q40 -3 129 -3q77 0 125 3l-6 -20q-52 -2 -70.5 -17t-32.5 -69l-88 -331q-12 -45 -17.5 -79t-4.5 -68t13 -55t38 -34.5t67 -13.5q105 0 165.5 68t92.5 191z" />
    <glyph glyph-name="Uacute" unicode="&#xda;" horiz-adv-x="682" 
d="M461 783q55 37 114.5 83t81.5 59q18 11 36.5 11.5t29.5 -16.5q6 -14 -4.5 -29t-28.5 -25q-21 -12 -91.5 -38.5t-130.5 -55.5zM631 592q14 54 -1 74t-66 22l5 20q35 -3 101 -3q60 0 94 3l-5 -20q-51 -2 -71.5 -21t-34.5 -75l-78 -301q-36 -138 -98 -212q-80 -93 -205 -93
q-107 0 -154 54q-34 39 -35 98.5t25 149.5l83 314q13 55 2.5 69.5t-61.5 16.5l6 20q40 -3 129 -3q77 0 125 3l-6 -20q-52 -2 -70.5 -17t-32.5 -69l-88 -331q-12 -45 -17.5 -79t-4.5 -68t13 -55t38 -34.5t67 -13.5q105 0 165.5 68t92.5 191z" />
    <glyph glyph-name="Ucircumflex" unicode="&#xdb;" horiz-adv-x="682" 
d="M487 840q-111 -47 -206 -68l-5 14q152 47 235 130h18q57 -98 139 -130l-4 -14q-19 4 -35.5 7.5t-31.5 9t-25 9t-24.5 10.5t-20 9.5t-21 11.5t-19.5 11zM631 592q14 54 -1 74t-66 22l5 20q35 -3 101 -3q60 0 94 3l-5 -20q-51 -2 -71.5 -21t-34.5 -75l-78 -301
q-36 -138 -98 -212q-80 -93 -205 -93q-107 0 -154 54q-34 39 -35 98.5t25 149.5l83 314q13 55 2.5 69.5t-61.5 16.5l6 20q40 -3 129 -3q77 0 125 3l-6 -20q-52 -2 -70.5 -17t-32.5 -69l-88 -331q-12 -45 -17.5 -79t-4.5 -68t13 -55t38 -34.5t67 -13.5q105 0 165.5 68
t92.5 191z" />
    <glyph glyph-name="Udieresis" unicode="&#xdc;" horiz-adv-x="682" 
d="M316 823q0 24 20.5 44.5t46.5 20.5q21 0 35.5 -14.5t14.5 -35.5q0 -25 -20 -45.5t-47 -20.5q-22 0 -36 14.5t-14 36.5zM528 823q0 24 20.5 44.5t46.5 20.5q21 0 35.5 -14.5t14.5 -35.5q0 -25 -20 -45.5t-47 -20.5q-22 0 -36 14.5t-14 36.5zM631 592q14 54 -1 74t-66 22
l5 20q35 -3 101 -3q60 0 94 3l-5 -20q-51 -2 -71.5 -21t-34.5 -75l-78 -301q-36 -138 -98 -212q-80 -93 -205 -93q-107 0 -154 54q-34 39 -35 98.5t25 149.5l83 314q13 55 2.5 69.5t-61.5 16.5l6 20q40 -3 129 -3q77 0 125 3l-6 -20q-52 -2 -70.5 -17t-32.5 -69l-88 -331
q-12 -45 -17.5 -79t-4.5 -68t13 -55t38 -34.5t67 -13.5q105 0 165.5 68t92.5 191z" />
    <glyph glyph-name="Yacute" unicode="&#xdd;" horiz-adv-x="670" 
d="M686 866q-21 -12 -91.5 -38.5t-130.5 -55.5l-7 11q55 37 114.5 83t81.5 59q18 11 36.5 11.5t29.5 -16.5q6 -14 -4.5 -29t-28.5 -25zM700 722q31 0 44.5 -17t11.5 -42q-2 -24 -17 -44t-42 -20q-40 0 -38 43q1 30 32 59h-3q-27 -1 -55 -22q-124 -89 -229 -341l-58 -232
q-13 -55 -2.5 -69.5t61.5 -16.5l-5 -20q-45 3 -124 3q-88 0 -131 -3l5 20q52 2 71 17t32 69l59 233q-38 328 -117 328q-33 0 -48 -47l-28 -82h-22l33 97q16 47 36.5 67t61.5 20q40 0 68.5 -24.5t47.5 -75.5t30 -111t21 -151q73 183 187 297q65 65 118 65z" />
    <glyph glyph-name="Thorn" unicode="&#xde;" horiz-adv-x="605" 
d="M178 152l-12 -46q-14 -55 -3.5 -69.5t62.5 -16.5l-4 -20q-47 3 -127 3q-84 0 -127 -3l5 20q51 2 69 17t32 69l132 496q13 55 2.5 69.5t-61.5 16.5l5 20q41 -3 127 -3q80 0 128 3l-5 -20q-52 -2 -70.5 -17t-32.5 -69l-8 -29q70 2 106 2q98 0 148.5 -40.5t50.5 -110.5
q0 -119 -105 -195.5t-272 -76.5h-40zM285 553l-101 -381h44q140 0 203 73t63 195q0 59 -30 87.5t-97 28.5q-49 0 -82 -3z" />
    <glyph glyph-name="germandbls" unicode="&#xdf;" horiz-adv-x="613" 
d="M60 -174q-57 -2 -97 -14l154 565q34 126 111.5 185.5t181.5 59.5q73 0 113 -27t40 -78q0 -61 -57 -110.5t-144 -72.5q88 -8 128 -49.5t40 -99.5q0 -84 -74 -141.5t-174 -57.5q-48 0 -78 14.5t-30 41.5q0 21 16.5 39.5t40.5 18.5q18 0 29.5 -12t11.5 -29q0 -32 -39 -50
q22 -7 51 -7q65 0 107.5 54t42.5 129q0 57 -25.5 98.5t-66.5 41.5q-44 -12 -52 -12q-20 0 -20 12q0 9 8.5 14.5t18.5 5.5q31 0 51 -9q57 19 88 69.5t31 111.5q0 90 -77 90q-23 0 -44 -7.5t-44 -25.5t-43 -53.5t-34 -86.5z" />
    <glyph glyph-name="agrave" unicode="&#xe0;" horiz-adv-x="632" 
d="M466 669q-41 33 -91.5 69t-66.5 51q-8 8 -13 17t-6 21t7 21q14 13 33 8.5t33 -19.5t47.5 -65.5t66.5 -92.5zM505 84q4 -33 18 -48t31 -16l-5 -20q-40 3 -109 3q-81 0 -120 -3l5 20q52 2 72 19t14 65l-15 124h-254l-68 -85q-26 -33 -35.5 -58t3.5 -43.5t53 -21.5v-20
q-30 3 -91 3q-62 0 -87 -3v20q44 12 109 93l402 502h15zM158 248h236l-31 254z" />
    <glyph glyph-name="aacute" unicode="&#xe1;" horiz-adv-x="632" 
d="M624 820q6 -14 -4.5 -29t-28.5 -25q-21 -12 -91.5 -38.5t-130.5 -55.5l-7 11q55 37 114.5 83t81.5 59q11 7 23.5 10t25 0t17.5 -15zM505 84q4 -33 18 -48t31 -16l-5 -20q-40 3 -109 3q-81 0 -120 -3l5 20q52 2 72 19t14 65l-15 124h-254l-68 -85q-26 -33 -35.5 -58
t3.5 -43.5t53 -21.5v-20q-30 3 -91 3q-62 0 -87 -3v20q44 12 109 93l402 502h15zM158 248h236l-31 254z" />
    <glyph glyph-name="acircumflex" unicode="&#xe2;" horiz-adv-x="632" 
d="M492 816q19 -32 36.5 -54t43.5 -42.5t59 -33.5l-4 -14q-19 4 -35.5 7.5t-31.5 9t-25 9t-24.5 10.5t-20 9.5t-21 11.5t-19.5 11q-111 -47 -206 -68l-5 14q72 22 134 56.5t101 73.5h18zM505 84q4 -33 18 -48t31 -16l-5 -20q-40 3 -109 3q-81 0 -120 -3l5 20q52 2 72 19
t14 65l-15 124h-254l-68 -85q-26 -33 -35.5 -58t3.5 -43.5t53 -21.5v-20q-30 3 -91 3q-62 0 -87 -3v20q44 12 109 93l402 502h15zM158 248h236l-31 254z" />
    <glyph glyph-name="atilde" unicode="&#xe3;" horiz-adv-x="632" 
d="M617 780l18 -5q-22 -52 -57 -77.5t-73 -25.5q-31 0 -56 11.5t-39 25t-34.5 25t-43.5 11.5q-38 0 -70 -58l-18 5q22 52 57 77.5t73 25.5q31 0 56 -11.5t39 -25t34.5 -25t43.5 -11.5q38 0 70 58zM505 84q4 -33 18 -48t31 -16l-5 -20q-40 3 -109 3q-81 0 -120 -3l5 20
q52 2 72 19t14 65l-15 124h-254l-68 -85q-26 -33 -35.5 -58t3.5 -43.5t53 -21.5v-20q-30 3 -91 3q-62 0 -87 -3v20q44 12 109 93l402 502h15zM158 248h236l-31 254z" />
    <glyph glyph-name="adieresis" unicode="&#xe4;" horiz-adv-x="632" 
d="M326 672q-22 0 -36 14.5t-14 36.5q0 24 20.5 44.5t46.5 20.5q21 0 35.5 -14.5t14.5 -35.5q0 -25 -20 -45.5t-47 -20.5zM555 788q21 0 35.5 -14.5t14.5 -35.5q0 -16 -9 -31.5t-25 -25t-33 -9.5q-22 0 -36 14.5t-14 36.5q0 24 20.5 44.5t46.5 20.5zM505 84q4 -33 18 -48
t31 -16l-5 -20q-40 3 -109 3q-81 0 -120 -3l5 20q52 2 72 19t14 65l-15 124h-254l-68 -85q-26 -33 -35.5 -58t3.5 -43.5t53 -21.5v-20q-30 3 -91 3q-62 0 -87 -3v20q44 12 109 93l402 502h15zM158 248h236l-31 254z" />
    <glyph glyph-name="aring" unicode="&#xe5;" horiz-adv-x="632" 
d="M449 642q-36 0 -59.5 21.5t-23.5 58.5q0 43 32 73t77 30q37 0 61.5 -22t24.5 -58q0 -42 -33.5 -72.5t-78.5 -30.5zM471 804q-20 0 -38.5 -11.5t-29.5 -30t-11 -39.5q0 -19 9 -33t22.5 -20.5t29.5 -6.5q21 0 39.5 10.5t30.5 30t12 42.5q0 27 -19.5 42.5t-44.5 15.5z
M505 84q3 -23 11 -37.5t17.5 -20t20.5 -6.5l-5 -20q-40 3 -109 3q-81 0 -120 -3l5 20q52 2 72 19t14 65l-15 124h-254l-68 -85q-26 -33 -35.5 -58t3.5 -43.5t53 -21.5v-20q-30 3 -91 3q-62 0 -87 -3v20q44 12 109 93l402 502h15zM158 248h236l-31 254z" />
    <glyph glyph-name="ae" unicode="&#xe6;" horiz-adv-x="910" 
d="M706 605q144 0 207 3q-13 -36 -38 -118q-9 -30 -13 -62h-22q16 88 -2.5 122.5t-78.5 34.5h-93q-50 0 -68 -14.5t-32 -68.5l-50 -186h105q21 0 37.5 8t29 27t19 34t17.5 43h22q-10 -32 -34 -122q-11 -41 -26 -122h-22q0 10 2.5 28.5t2.5 30t-3 24.5t-15.5 20.5t-33.5 8.5
h-106l-51 -190q-14 -55 -3.5 -69t60.5 -14h103q70 0 107 38t72 139h22q-8 -22 -21 -72q-17 -59 -26 -128q-68 3 -226 3q-190 0 -288 -3l4 20q52 2 70.5 17t32.5 69l51 190h-194l-179 -202q-13 -14 -19.5 -24t-8.5 -19t3.5 -15t19.5 -10t38 -6v-20q-27 3 -86 3q-43 0 -67 -3
v20q31 2 86 64l442 500q-11 2 -39 4l5 20q17 -1 54 -1l48 54h26l-48 -55q79 -1 207 -1zM242 316h181l50 186q16 60 -1 74z" />
    <glyph glyph-name="ccedilla" unicode="&#xe7;" horiz-adv-x="665" 
d="M655 608h22q-31 -90 -65 -230h-22q6 51 6 77q0 39 -16 71q-18 38 -54.5 58t-82.5 20q-79 0 -150 -68t-111 -166.5t-40 -193.5q0 -83 37.5 -127.5t103.5 -44.5q46 0 95 20.5t85 57.5q44 45 90 158h22q-47 -173 -59 -240h-22q3 21 3 34q0 40 -33 17q-45 -31 -85.5 -47.5
t-93.5 -17.5l-28 -58q25 7 51 7q25 0 39 -10.5t14 -29.5q0 -27 -25.5 -47t-59 -28t-68.5 -8q-66 0 -100 22l7 15q32 -13 80 -13q19 0 40.5 4t41.5 16.5t20 30.5q0 24 -38 24q-20 0 -41 -7l40 82q-68 3 -116.5 28t-74 71.5t-25.5 110.5q0 59 18 119.5t54 115.5t84.5 97.5
t114.5 68t139 25.5q55 0 88.5 -17.5t59.5 -47.5q25 -31 55 51z" />
    <glyph glyph-name="egrave" unicode="&#xe8;" horiz-adv-x="619" 
d="M430 669q-41 33 -91.5 69t-66.5 51q-8 8 -13 17t-6 21t7 21q14 13 33 8.5t33 -19.5q8 -9 16.5 -20.5t18 -26t20 -30t26.5 -37.5t33 -44zM407 605q151 0 217 3q-19 -47 -36 -108q-15 -58 -17 -72h-23q18 89 -2 123t-96 34h-73q-52 0 -70.5 -14.5t-32.5 -68.5l-50 -186h93
q17 0 31 5t25.5 15.5t19.5 20t16 25.5t11.5 23.5t9.5 22.5h23q-24 -71 -36 -122q-1 -5 -7 -27t-11 -43.5t-9 -51.5h-23q3 17 3.5 27.5t0.5 25.5t-4 24t-11 18t-21 13t-34 4h-83l-51 -190q-14 -55 -3.5 -69t62.5 -14h73q81 0 126 39t82 138h23q-18 -53 -24 -82
q-11 -37 -25 -118q-70 3 -235 3q-185 0 -280 -3l5 20q52 2 70.5 17t32.5 69l107 396q13 55 3 69.5t-61 16.5l5 20q94 -3 279 -3z" />
    <glyph glyph-name="eacute" unicode="&#xe9;" horiz-adv-x="619" 
d="M555 766q-21 -12 -91.5 -38.5t-130.5 -55.5l-7 11q55 37 114.5 83t81.5 59q18 11 36.5 11.5t29.5 -16.5q6 -14 -4.5 -29t-28.5 -25zM407 605q151 0 217 3q-19 -47 -36 -108q-15 -58 -17 -72h-23q18 89 -2 123t-96 34h-73q-52 0 -70.5 -14.5t-32.5 -68.5l-50 -186h93
q17 0 31 5t25.5 15.5t19.5 20t16 25.5t11.5 23.5t9.5 22.5h23q-24 -71 -36 -122q-1 -5 -7 -27t-11 -43.5t-9 -51.5h-23q3 17 3.5 27.5t0.5 25.5t-4 24t-11 18t-21 13t-34 4h-83l-51 -190q-14 -55 -3.5 -69t62.5 -14h73q81 0 126 39t82 138h23q-18 -53 -24 -82
q-11 -37 -25 -118q-70 3 -235 3q-185 0 -280 -3l5 20q52 2 70.5 17t32.5 69l107 396q13 55 3 69.5t-61 16.5l5 20q94 -3 279 -3z" />
    <glyph glyph-name="ecircumflex" unicode="&#xea;" horiz-adv-x="619" 
d="M414 740q-111 -47 -206 -68l-5 14q152 47 235 130h18q19 -32 36.5 -54t43.5 -42.5t59 -33.5l-4 -14q-19 4 -35.5 7.5t-31.5 9t-25 9t-24.5 10.5t-20 9.5t-21 11.5t-19.5 11zM407 605q151 0 217 3q-19 -47 -36 -108q-15 -58 -17 -72h-23q18 89 -2 123t-96 34h-73
q-52 0 -70.5 -14.5t-32.5 -68.5l-50 -186h93q17 0 31 5t25.5 15.5t19.5 20t16 25.5t11.5 23.5t9.5 22.5h23q-24 -71 -36 -122q-1 -5 -7 -27t-11 -43.5t-9 -51.5h-23q3 17 3.5 27.5t0.5 25.5t-4 24t-11 18t-21 13t-34 4h-83l-51 -190q-14 -55 -3.5 -69t62.5 -14h73
q81 0 126 39t82 138h23q-18 -53 -24 -82q-11 -37 -25 -118q-70 3 -235 3q-185 0 -280 -3l5 20q52 2 70.5 17t32.5 69l107 396q14 55 3.5 69.5t-61.5 16.5l5 20q94 -3 279 -3z" />
    <glyph glyph-name="edieresis" unicode="&#xeb;" horiz-adv-x="619" 
d="M290 672q-22 0 -36 14.5t-14 36.5q0 24 20.5 44.5t46.5 20.5q21 0 35.5 -14.5t14.5 -35.5q0 -25 -20 -45.5t-47 -20.5zM502 672q-22 0 -36 14.5t-14 36.5q0 24 20.5 44.5t46.5 20.5q21 0 35.5 -14.5t14.5 -35.5q0 -25 -20 -45.5t-47 -20.5zM407 605q151 0 217 3
q-19 -47 -36 -108q-15 -58 -17 -72h-23q18 89 -2 123t-96 34h-73q-52 0 -70.5 -14.5t-32.5 -68.5l-50 -186h93q17 0 31 5t25.5 15.5t19.5 20t16 25.5t11.5 23.5t9.5 22.5h23q-24 -71 -36 -122q-1 -5 -7 -27t-11 -43.5t-9 -51.5h-23q3 17 3.5 27.5t0.5 25.5t-4 24t-11 18
t-21 13t-34 4h-83l-51 -190q-14 -55 -3.5 -69t62.5 -14h73q81 0 126 39t82 138h23q-18 -53 -24 -82q-11 -37 -25 -118q-70 3 -235 3q-185 0 -280 -3l5 20q52 2 70.5 17t32.5 69l107 396q13 55 3 69.5t-61 16.5l5 20q94 -3 279 -3z" />
    <glyph glyph-name="igrave" unicode="&#xec;" horiz-adv-x="344" 
d="M295 669q-41 33 -91.5 69t-66.5 51q-8 8 -13 17t-6 21t7 21q14 13 33 8.5t33 -19.5t47.5 -65.5t66.5 -92.5zM168 106q-14 -55 -3.5 -69.5t62.5 -16.5l-4 -20q-46 3 -127 3q-84 0 -127 -3l5 20q51 2 69 17t32 69l105 396q13 55 2.5 69.5t-61.5 16.5l5 20q40 -3 127 -3
q80 0 128 3l-5 -20q-52 -2 -70.5 -17t-32.5 -69z" />
    <glyph glyph-name="iacute" unicode="&#xed;" horiz-adv-x="344" 
d="M191 683q55 37 114.5 83t81.5 59q11 7 23.5 10t25 0t17.5 -15q6 -14 -4.5 -29t-28.5 -25q-21 -12 -91.5 -38.5t-130.5 -55.5zM168 106q-14 -55 -3.5 -69.5t62.5 -16.5l-4 -20q-46 3 -127 3q-84 0 -127 -3l5 20q51 2 69 17t32 69l105 396q13 55 2.5 69.5t-61.5 16.5l5 20
q40 -3 127 -3q80 0 128 3l-5 -20q-37 -2 -54 -8t-28 -23t-21 -55z" />
    <glyph glyph-name="icircumflex" unicode="&#xee;" horiz-adv-x="344" 
d="M279 740q-111 -47 -206 -68l-5 14q152 47 235 130h18q19 -32 36.5 -54t43.5 -42.5t59 -33.5l-4 -14q-19 4 -35.5 7.5t-31.5 9t-25 9t-24.5 10.5t-19.5 9.5t-21 11.5t-20 11zM168 106q-14 -55 -3.5 -69.5t62.5 -16.5l-4 -20q-46 3 -127 3q-84 0 -127 -3l5 20q51 2 69 17
t32 69l105 396q13 55 2.5 69.5t-61.5 16.5l5 20q40 -3 127 -3q80 0 128 3l-5 -20q-37 -2 -54 -8t-28 -23t-21 -55z" />
    <glyph glyph-name="idieresis" unicode="&#xef;" horiz-adv-x="344" 
d="M105 723q0 24 20.5 44.5t46.5 20.5q21 0 35.5 -14.5t14.5 -35.5q0 -25 -20 -45.5t-47 -20.5q-22 0 -36 14.5t-14 36.5zM317 723q0 24 20.5 44.5t46.5 20.5q21 0 35.5 -14.5t14.5 -35.5q0 -25 -20 -45.5t-47 -20.5q-22 0 -36 14.5t-14 36.5zM168 106q-14 -55 -3.5 -69.5
t62.5 -16.5l-4 -20q-46 3 -127 3q-84 0 -127 -3l5 20q51 2 69 17t32 69l105 396q13 55 2.5 69.5t-61.5 16.5l5 20q40 -3 127 -3q80 0 128 3l-5 -20q-52 -2 -70.5 -17t-32.5 -69z" />
    <glyph glyph-name="eth" unicode="&#xf0;" horiz-adv-x="724" 
d="M398 608q282 0 282 -221q0 -168 -122.5 -277.5t-325.5 -109.5q-13 0 -65 1.5t-75 1.5q-81 0 -120 -3l3 20q49 2 67.5 17.5t32.5 68.5l50 188h-109l6 25h109l49 183q16 49 5.5 67t-63.5 19l3 20q61 -4 122 -3q138 3 151 3zM220 18q185 0 274.5 106t89.5 288
q0 91 -51 134.5t-163 43.5q-46 0 -64.5 -17t-32.5 -69l-49 -185h210l-6 -25h-210l-50 -190q-15 -46 -6 -66t58 -20z" />
    <glyph glyph-name="ntilde" unicode="&#xf1;" horiz-adv-x="797" 
d="M408 745q-38 0 -70 -58l-18 5q22 52 57 77.5t73 25.5q31 0 56 -11.5t39 -25t34.5 -25t43.5 -11.5q38 0 70 58l18 -5q-22 -52 -57 -77.5t-73 -25.5q-31 0 -56 11.5t-39 25t-34.5 25t-43.5 11.5zM811 654q60 0 60 -51q0 -27 -16 -49.5t-43 -22.5q-20 0 -29 11.5t-9 27.5
q0 35 32 63h-3q-46 -1 -82 -51q-88 -123 -201 -587h-22l-228 548q-107 -468 -176 -554q-16 -19 -27.5 -30.5t-33 -22t-46.5 -10.5q-60 0 -60 52q0 27 16 49t43 22q14 0 23 -6.5t12 -14.5t3 -18q0 -33 -32 -63h2q48 1 84 52q72 107 170 541q2 28 -13.5 37t-63.5 11l5 20
q31 -3 89 -3q47 0 81 3l190 -471q96 360 167 453q48 64 108 64z" />
    <glyph glyph-name="ograve" unicode="&#xf2;" horiz-adv-x="732" 
d="M499 669q-34 27 -68 51.5t-55.5 40t-34.5 28.5t-17.5 27.5t5.5 31.5q14 13 33 8.5t33 -19.5t47.5 -65.5t66.5 -92.5zM292 -14q-112 0 -179 61t-67 180q0 67 29 136.5t79.5 127.5t127 94.5t162.5 36.5q112 0 179 -61t67 -180q0 -53 -18 -109t-53.5 -107t-83 -91t-111 -64
t-132.5 -24zM435 604q-79 0 -145 -58t-101.5 -147.5t-35.5 -185.5q0 -108 39.5 -158.5t108.5 -50.5q79 0 145 58t101.5 147.5t35.5 185.5q0 73 -19.5 121t-51.5 68t-77 20z" />
    <glyph glyph-name="oacute" unicode="&#xf3;" horiz-adv-x="732" 
d="M395 683q44 30 84 60.5t66.5 50t45.5 31.5q8 5 17.5 8t19 3.5t17.5 -3.5t12 -13q4 -10 -0.5 -21t-13 -19t-19.5 -14q-21 -12 -91.5 -38.5t-130.5 -55.5zM292 -14q-112 0 -179 61t-67 180q0 67 29 136.5t79.5 127.5t127 94.5t162.5 36.5q112 0 179 -61t67 -180
q0 -67 -29 -136.5t-79.5 -127.5t-127 -94.5t-162.5 -36.5zM435 604q-79 0 -145 -58t-101.5 -147.5t-35.5 -185.5q0 -108 39.5 -158.5t108.5 -50.5q79 0 145 58t101.5 147.5t35.5 185.5q0 73 -19.5 121t-51.5 68t-77 20z" />
    <glyph glyph-name="ocircumflex" unicode="&#xf4;" horiz-adv-x="732" 
d="M483 740q-111 -47 -206 -68l-5 14q72 22 134 56.5t101 73.5h18q28 -48 59.5 -79.5t79.5 -50.5l-4 -14q-19 4 -35.5 7.5t-31.5 9t-25 9t-24.5 10.5t-20 9.5t-21 11.5t-19.5 11zM292 -14q-112 0 -179 61t-67 180q0 67 29 136.5t79.5 127.5t127 94.5t162.5 36.5
q112 0 179 -61t67 -180q0 -53 -18 -109t-53.5 -107t-83 -91t-111 -64t-132.5 -24zM435 604q-79 0 -145 -58t-101.5 -147.5t-35.5 -185.5q0 -108 39.5 -158.5t108.5 -50.5q79 0 145 58t101.5 147.5t35.5 185.5q0 73 -19.5 121t-51.5 68t-77 20z" />
    <glyph glyph-name="otilde" unicode="&#xf5;" horiz-adv-x="732" 
d="M407 795q31 0 56 -11.5t39 -25t34.5 -25t43.5 -11.5q38 0 70 58l18 -5q-22 -52 -57 -77.5t-73 -25.5q-31 0 -56 11.5t-39 25t-34.5 25t-43.5 11.5q-38 0 -70 -58l-18 5q22 52 57 77.5t73 25.5zM292 -14q-112 0 -179 61t-67 180q0 67 29 136.5t79.5 127.5t127 94.5
t162.5 36.5q112 0 179 -61t67 -180q0 -53 -18 -109t-53.5 -107t-83 -91t-111 -64t-132.5 -24zM435 604q-79 0 -145 -58t-101.5 -147.5t-35.5 -185.5q0 -108 39.5 -158.5t108.5 -50.5q79 0 145 58t101.5 147.5t35.5 185.5q0 73 -19.5 121t-51.5 68t-77 20z" />
    <glyph glyph-name="odieresis" unicode="&#xf6;" horiz-adv-x="732" 
d="M309 723q0 24 20.5 44.5t46.5 20.5q21 0 35.5 -14.5t14.5 -35.5q0 -25 -20 -45.5t-47 -20.5q-22 0 -36 14.5t-14 36.5zM521 723q0 24 20.5 44.5t46.5 20.5q21 0 35.5 -14.5t14.5 -35.5q0 -25 -20 -45.5t-47 -20.5q-22 0 -36 14.5t-14 36.5zM292 -14q-112 0 -179 61
t-67 180q0 67 29 136.5t79.5 127.5t127 94.5t162.5 36.5q112 0 179 -61t67 -180q0 -67 -29 -136.5t-79.5 -127.5t-127 -94.5t-162.5 -36.5zM435 604q-79 0 -145 -58t-101.5 -147.5t-35.5 -185.5q0 -108 39.5 -158.5t108.5 -50.5q79 0 145 58t101.5 147.5t35.5 185.5
q0 73 -19.5 121t-51.5 68t-77 20z" />
    <glyph glyph-name="divide" unicode="&#xf7;" horiz-adv-x="657" 
d="M334 499q7 23 28 39t43 16q23 0 35 -16t5 -39q-4 -15 -15.5 -28t-26.5 -20t-30 -7q-23 0 -34.5 16t-4.5 39zM87 340l9 30h501l-9 -30h-501zM251 211q7 23 28 39t43 16q15 0 26 -7.5t14.5 -20t-0.5 -27.5t-15.5 -28t-26.5 -20.5t-30 -7.5q-23 0 -34.5 16.5t-4.5 39.5z" />
    <glyph glyph-name="oslash" unicode="&#xf8;" horiz-adv-x="732" 
d="M624 560q66 -61 66 -179q0 -53 -18 -109t-53.5 -107t-83 -91t-111 -64t-132.5 -24q-104 0 -168 51l-117 -125l-17 14l118 126q-62 62 -62 175q0 91 48.5 180.5t142 152t207.5 62.5q101 0 164 -48l113 118l15 -13zM435 604q-79 0 -145 -58t-101.5 -147.5t-35.5 -185.5
q0 -62 14 -107l391 423q-35 75 -123 75zM301 4q79 0 145 58t101.5 147.5t35.5 185.5q0 66 -16 112l-391 -424q35 -79 125 -79z" />
    <glyph glyph-name="ugrave" unicode="&#xf9;" horiz-adv-x="683" 
d="M473 669q-41 33 -91.5 69t-66.5 51q-8 8 -13 17t-6 21t7 21q14 13 33 8.5t33 -19.5t47.5 -65.5t66.5 -92.5zM574 291q-36 -138 -98 -212q-37 -43 -90.5 -68t-114.5 -25q-112 0 -154 54q-33 42 -35 94.5t25 153.5l57 214q13 55 2.5 69.5t-61.5 16.5l6 20q40 -3 129 -3
q77 0 125 3l-6 -20q-52 -2 -70.5 -17t-32.5 -69l-62 -231q-12 -45 -17.5 -79t-4.5 -68t13 -55t38 -34.5t67 -13.5q105 0 165.5 68t92.5 191l57 212q15 54 0 74t-67 22l5 20q36 -3 101 -3q61 0 94 3l-5 -20q-45 -2 -68 -22t-38 -74z" />
    <glyph glyph-name="uacute" unicode="&#xfa;" horiz-adv-x="683" 
d="M369 683q44 30 84 60.5t66.5 50t45.5 31.5q11 7 23.5 10t25 0t17.5 -15q6 -14 -4.5 -29t-28.5 -25q-21 -12 -91.5 -38.5t-130.5 -55.5zM574 291q-36 -138 -98 -212q-37 -43 -90.5 -68t-114.5 -25q-112 0 -154 54q-33 42 -35 94.5t25 153.5l57 214q13 55 2.5 69.5
t-61.5 16.5l6 20q40 -3 129 -3q77 0 125 3l-6 -20q-52 -2 -70.5 -17t-32.5 -69l-62 -231q-12 -45 -17.5 -79t-4.5 -68t13 -55t38 -34.5t67 -13.5q105 0 165.5 68t92.5 191l57 212q15 54 0 74t-67 22l5 20q36 -3 101 -3q61 0 94 3l-5 -20q-45 -2 -68 -22t-38 -74z" />
    <glyph glyph-name="ucircumflex" unicode="&#xfb;" horiz-adv-x="683" 
d="M457 740q-111 -47 -206 -68l-5 14q152 47 235 130h18q28 -48 59.5 -79.5t79.5 -50.5l-4 -14q-19 4 -35.5 7.5t-31.5 9t-25 9t-24.5 10.5t-20 9.5t-21 11.5t-19.5 11zM574 291q-36 -138 -98 -212q-37 -43 -90.5 -68t-114.5 -25q-112 0 -154 54q-33 42 -35 94.5t25 153.5
l57 214q13 55 2.5 69.5t-61.5 16.5l6 20q40 -3 129 -3q77 0 125 3l-6 -20q-52 -2 -70.5 -17t-32.5 -69l-62 -231q-12 -45 -17.5 -79t-4.5 -68t13 -55t38 -34.5t67 -13.5q105 0 165.5 68t92.5 191l57 212q15 54 0 74t-67 22l5 20q36 -3 101 -3q61 0 94 3l-5 -20
q-45 -2 -68 -22t-38 -74z" />
    <glyph glyph-name="udieresis" unicode="&#xfc;" horiz-adv-x="683" 
d="M283 723q0 15 9 30t25 25t33 10q21 0 35.5 -14.5t14.5 -35.5q0 -25 -20 -45.5t-47 -20.5q-22 0 -36 14.5t-14 36.5zM495 723q0 24 20.5 44.5t46.5 20.5q21 0 35.5 -14.5t14.5 -35.5q0 -25 -20 -45.5t-47 -20.5q-22 0 -36 14.5t-14 36.5zM574 291q-36 -138 -98 -212
q-37 -43 -90.5 -68t-114.5 -25q-112 0 -154 54q-33 42 -35 94.5t25 153.5l57 214q13 55 2.5 69.5t-61.5 16.5l6 20q40 -3 129 -3q77 0 125 3l-6 -20q-52 -2 -70.5 -17t-32.5 -69l-62 -231q-12 -45 -17.5 -79t-4.5 -68t13 -55t38 -34.5t67 -13.5q105 0 165.5 68t92.5 191
l57 212q15 54 0 74t-67 22l5 20q36 -3 101 -3q61 0 94 3l-5 -20q-45 -2 -68 -22t-38 -74z" />
    <glyph glyph-name="yacute" unicode="&#xfd;" horiz-adv-x="638" 
d="M573 766q-21 -12 -91.5 -38.5t-130.5 -55.5l-7 11q55 37 114.5 83t81.5 59q11 7 23.5 10t25 0t17.5 -15q6 -14 -4.5 -29t-28.5 -25zM643 622q31 0 44.5 -17t11.5 -42q-2 -24 -17 -44t-42 -20q-40 0 -38 43q2 30 32 59h-3q-25 -1 -55 -22q-122 -91 -216 -306l-43 -167
q-14 -55 -3.5 -69.5t62.5 -16.5l-5 -20q-45 3 -124 3q-88 0 -131 -3l5 20q52 2 71 17t32 69l48 184q-31 277 -94 277q-17 0 -28.5 -11t-19.5 -36l-28 -82h-22l33 97q16 47 36.5 67t61.5 20q21 0 38 -7t30 -24t22.5 -36.5t17.5 -52.5t14 -64t14 -78l8 -49q70 151 170 250
q61 61 118 61z" />
    <glyph glyph-name="thorn" unicode="&#xfe;" horiz-adv-x="591" 
d="M173 125l-5 -19q-14 -55 -3.5 -69.5t62.5 -16.5l-4 -20q-46 3 -127 3q-84 0 -127 -3l5 20q51 2 69 17t32 69l105 396q13 55 2.5 69.5t-61.5 16.5l5 20q40 -3 127 -3q80 0 128 3l-5 -20q-52 -2 -70.5 -17t-32.5 -69l-4 -15q15 0 47 0.5t49 0.5q98 0 148.5 -35t50.5 -96
q0 -101 -102.5 -166.5t-264.5 -65.5h-24zM264 468l-86 -323h29q69 0 120 17.5t80 49.5t42.5 71.5t13.5 89.5q0 49 -30.5 72.5t-96.5 23.5q-53 0 -72 -1z" />
    <glyph glyph-name="ydieresis" unicode="&#xff;" horiz-adv-x="638" 
d="M308 672q-22 0 -36 14.5t-14 36.5q0 24 20.5 44.5t46.5 20.5q21 0 35.5 -14.5t14.5 -35.5q0 -25 -20 -45.5t-47 -20.5zM520 672q-22 0 -36 14.5t-14 36.5q0 24 20.5 44.5t46.5 20.5q21 0 35.5 -14.5t14.5 -35.5q0 -25 -20 -45.5t-47 -20.5zM643 622q31 0 44.5 -17
t11.5 -42q-2 -24 -17 -44t-42 -20q-40 0 -38 43q2 30 32 59h-3q-25 -1 -55 -22q-122 -91 -216 -306l-43 -167q-14 -55 -3.5 -69.5t62.5 -16.5l-5 -20q-45 3 -124 3q-88 0 -131 -3l5 20q52 2 71 17t32 69l48 184q-31 277 -94 277q-17 0 -28.5 -11t-19.5 -36l-28 -82h-22
l33 97q16 47 36.5 67t61.5 20q21 0 38 -7t30 -24t22.5 -36.5t17.5 -52.5t14 -64t14 -78l8 -49q70 151 170 250q61 61 118 61z" />
    <glyph glyph-name="Amacron" unicode="&#x100;" horiz-adv-x="629" 
d="M286 844h352l-6 -25h-352zM504 84q3 -33 17 -48t32 -16l-4 -20q-41 3 -109 3q-81 0 -120 -3l4 20q51 2 69.5 18.5t16.5 65.5l-9 164h-246l-75 -106q-53 -79 -45.5 -109.5t72.5 -32.5l-5 -20q-55 3 -114 3q-43 0 -75 -3l5 20q46 10 100 87l431 606h15zM169 288h231
l-17 303z" />
    <glyph glyph-name="amacron" unicode="&#x101;" horiz-adv-x="632" 
d="M263 744h352l-6 -25h-352zM505 84q4 -33 18 -48t31 -16l-5 -20q-40 3 -109 3q-81 0 -120 -3l5 20q52 2 72 19t14 65l-15 124h-254l-68 -85q-26 -33 -35.5 -58t3.5 -43.5t53 -21.5v-20q-30 3 -91 3q-62 0 -87 -3v20q44 12 109 93l402 502h15zM158 248h236l-31 254z" />
    <glyph glyph-name="Abreve" unicode="&#x102;" horiz-adv-x="629" 
d="M463 782q-62 0 -101 32.5t-50 83.5l16 5q26 -30 61 -42t91 -12q123 0 221 58l10 -11q-43 -43 -116 -78.5t-132 -35.5zM504 84q3 -33 17 -48t32 -16l-4 -20q-41 3 -109 3q-81 0 -120 -3l4 20q51 2 69.5 18.5t16.5 65.5l-9 164h-246l-75 -106q-53 -79 -45.5 -109.5
t72.5 -32.5l-5 -20q-55 3 -114 3q-43 0 -75 -3l5 20q46 10 100 87l431 606h15zM169 288h231l-17 303z" />
    <glyph glyph-name="abreve" unicode="&#x103;" horiz-adv-x="632" 
d="M417 682q-42 0 -74 16t-51 41.5t-26 58.5l16 5q17 -20 39 -32t48.5 -17t64.5 -5q54 0 114.5 15t106.5 43l10 -11q-43 -43 -116 -78.5t-132 -35.5zM505 84q4 -33 18 -48t31 -16l-5 -20q-40 3 -109 3q-81 0 -120 -3l5 20q52 2 72 19t14 65l-15 124h-254l-68 -85
q-26 -33 -35.5 -58t3.5 -43.5t53 -21.5v-20q-30 3 -91 3q-62 0 -87 -3v20q44 12 109 93l402 502h15zM158 248h236l-31 254z" />
    <glyph glyph-name="Aogonek" unicode="&#x104;" horiz-adv-x="629" 
d="M546 -114l11 -17q-60 -57 -129 -57q-36 0 -55 15.5t-19 42.5q0 44 46.5 78t106.5 54q-21 1 -67 1q-81 0 -120 -3l4 20q51 2 69.5 18.5t16.5 65.5l-9 164h-246l-75 -106q-53 -79 -45.5 -109.5t72.5 -32.5l-5 -20q-55 3 -114 3q-43 0 -75 -3l5 20q46 10 100 87l431 606h15
l40 -629q3 -33 17 -48t32 -16l-4 -20q-6 0 -9 1q-45 -14 -77.5 -41t-32.5 -63q0 -37 39 -37q43 0 77 26zM169 288h231l-17 303z" />
    <glyph glyph-name="aogonek" unicode="&#x105;" horiz-adv-x="632" 
d="M518 2q-28 -8 -52 -21.5t-42.5 -36t-18.5 -47.5q0 -37 39 -37q19 0 41 8t36 18l11 -17q-60 -57 -129 -57q-36 0 -55 15.5t-19 42.5q0 24 14.5 45.5t39.5 38t49.5 28t51.5 21.5h-44q-81 0 -120 -3l5 20q52 2 72 19t14 65l-15 124h-254l-68 -85q-26 -33 -35.5 -58
t3.5 -43.5t53 -21.5v-20q-30 3 -91 3q-62 0 -87 -3v20q44 12 109 93l402 502h15l62 -531q8 -62 49 -64l-5 -20q-5 1 -15 1.5t-16 0.5zM158 248h236l-31 254z" />
    <glyph glyph-name="Cacute" unicode="&#x106;" horiz-adv-x="670" 
d="M479 783q55 37 114.5 83t81.5 59q18 11 36.5 11.5t29.5 -16.5q6 -14 -4.5 -29t-28.5 -25q-21 -12 -91.5 -38.5t-130.5 -55.5zM712 708q-33 -86 -64 -230h-22q14 99 -10 148q-18 37 -53.5 57.5t-77.5 20.5q-83 0 -162 -79.5t-125.5 -196.5t-46.5 -228q0 -96 38 -146
t105 -50q44 0 93 20.5t85 57.5q43 43 90 158h22q-47 -173 -59 -240h-22q3 21 3 34q0 22 -8 25t-25 -8q-35 -23 -55.5 -34t-56.5 -21t-77 -10q-111 0 -172 60t-61 175q0 85 33.5 174t89.5 161.5t139 119t174 46.5q40 0 70.5 -10.5t44.5 -22t34 -32.5q7 -7 13 -8t13 4.5t14 19
t15 35.5h21z" />
    <glyph glyph-name="cacute" unicode="&#x107;" horiz-adv-x="665" 
d="M374 683q44 30 84 60.5t66.5 50t45.5 31.5q11 7 23.5 10t25 0t17.5 -15q6 -14 -4.5 -29t-28.5 -25q-21 -12 -91.5 -38.5t-130.5 -55.5zM274 -14q-73 0 -125 24t-79.5 71.5t-27.5 114.5q0 59 18 119.5t54 115.5t84.5 97.5t114.5 68t139 25.5q38 0 67.5 -10t46.5 -22.5
t34 -32.5q25 -31 55 51h22q-31 -90 -65 -230h-22q6 51 6 77q0 39 -16 71q-18 38 -54.5 58t-82.5 20q-60 0 -116.5 -40.5t-96.5 -102.5t-64 -138.5t-24 -146.5q0 -83 37.5 -127.5t103.5 -44.5q46 0 95 20.5t85 57.5q26 27 45 61t45 97h22q-47 -173 -59 -240h-22q3 21 3 34
q0 40 -33 17q-46 -32 -89.5 -48.5t-100.5 -16.5z" />
    <glyph glyph-name="Ccircumflex" unicode="&#x108;" horiz-adv-x="670" 
d="M505 840q-111 -47 -206 -68l-5 14q152 47 235 130h18q57 -98 139 -130l-4 -14q-19 4 -35.5 7.5t-31.5 9t-25 9t-24.5 10.5t-20 9.5t-21 11.5t-19.5 11zM712 708q-33 -86 -64 -230h-22q14 99 -10 148q-18 37 -53.5 57.5t-77.5 20.5q-83 0 -162 -79.5t-125.5 -196.5
t-46.5 -228q0 -96 38 -146t105 -50q44 0 93 20.5t85 57.5q43 43 90 158h22q-47 -173 -59 -240h-22q3 21 3 34q0 22 -8 25t-25 -8q-35 -23 -55.5 -34t-56.5 -21t-77 -10q-111 0 -172 60t-61 175q0 85 33.5 174t89.5 161.5t139 119t174 46.5q40 0 70.5 -10.5t44.5 -22
t34 -32.5q7 -7 13 -8t13 4.5t14 19t15 35.5h21z" />
    <glyph glyph-name="ccircumflex" unicode="&#x109;" horiz-adv-x="665" 
d="M462 740q-111 -47 -206 -68l-5 14q152 47 235 130h18q9 -15 17.5 -28t18.5 -25.5t21 -23t23.5 -20.5t27 -18t31.5 -15l-4 -14q-19 4 -35.5 7.5t-31.5 9t-25 9t-24.5 10.5t-20 9.5t-21 11.5t-19.5 11zM274 -14q-110 0 -171 54.5t-61 155.5q0 59 18 119.5t54 115.5
t84.5 97.5t114.5 68t139 25.5q55 0 88.5 -17.5t59.5 -47.5q25 -31 55 51h22q-31 -90 -65 -230h-22q6 51 6 77q0 39 -16 71q-18 38 -54.5 58t-82.5 20q-59 0 -116 -40.5t-97 -102.5t-64 -138.5t-24 -146.5q0 -83 37.5 -127.5t103.5 -44.5q46 0 95 20.5t85 57.5q26 27 45 61.5
t45 96.5h22q-47 -173 -59 -240h-22q3 21 3 34q0 40 -33 17q-17 -12 -32 -21t-33.5 -17.5t-37 -14t-41 -9t-46.5 -3.5z" />
    <glyph glyph-name="Cdotaccent" unicode="&#x10a;" horiz-adv-x="670" 
d="M465 825q0 28 22 51.5t52 23.5q23 0 37 -15t14 -38q0 -28 -22 -51.5t-53 -23.5q-22 0 -36 15t-14 38zM712 708q-33 -86 -64 -230h-22q14 99 -10 148q-18 37 -53.5 57.5t-77.5 20.5q-83 0 -162 -79.5t-125.5 -196.5t-46.5 -228q0 -96 38 -146t105 -50q44 0 93 20.5
t85 57.5q43 43 90 158h22q-47 -173 -59 -240h-22q3 21 3 34q0 22 -8 25t-25 -8q-35 -23 -55.5 -34t-56.5 -21t-77 -10q-111 0 -172 60t-61 175q0 85 33.5 174t89.5 161.5t139 119t174 46.5q40 0 70.5 -10.5t44.5 -22t34 -32.5q7 -7 13 -8t13 4.5t14 19t15 35.5h21z" />
    <glyph glyph-name="cdotaccent" unicode="&#x10b;" horiz-adv-x="665" 
d="M410 725q0 28 22 51.5t52 23.5q23 0 37 -15t14 -38q0 -28 -22 -51.5t-53 -23.5q-11 0 -20.5 4t-16 11t-10 17t-3.5 21zM274 -14q-110 0 -171 54.5t-61 155.5q0 59 18 119.5t54 115.5t84.5 97.5t114.5 68t139 25.5q55 0 88.5 -17.5t59.5 -47.5q25 -31 55 51h22
q-31 -90 -65 -230h-22q6 51 6 77q0 39 -16 71q-18 38 -54.5 58t-82.5 20q-60 0 -116.5 -40.5t-96.5 -102.5t-64 -138.5t-24 -146.5q0 -83 37.5 -127.5t103.5 -44.5q46 0 95 20.5t85 57.5q26 27 45 61.5t45 96.5h22q-25 -93 -38.5 -148t-20.5 -92h-22q3 21 3 34q0 40 -33 17
q-46 -32 -89.5 -48.5t-100.5 -16.5z" />
    <glyph glyph-name="Ccaron" unicode="&#x10c;" horiz-adv-x="670" 
d="M526 856q111 47 206 68l5 -14q-152 -47 -235 -130h-18q-57 98 -139 130l4 14q19 -4 35.5 -7.5t31.5 -9t25 -9t24.5 -10.5t20 -9.5t21 -11.5t19.5 -11zM712 708q-33 -86 -64 -230h-22q14 99 -10 148q-18 37 -53.5 57.5t-77.5 20.5q-83 0 -162 -79.5t-125.5 -196.5
t-46.5 -228q0 -96 38 -146t105 -50q44 0 93 20.5t85 57.5q43 43 90 158h22q-47 -173 -59 -240h-22q3 21 3 34q0 22 -8 25t-25 -8q-35 -23 -55.5 -34t-56.5 -21t-77 -10q-111 0 -172 60t-61 175q0 85 33.5 174t89.5 161.5t139 119t174 46.5q40 0 70.5 -10.5t44.5 -22
t34 -32.5q7 -7 13 -8t13 4.5t14 19t15 35.5h21z" />
    <glyph glyph-name="ccaron" unicode="&#x10d;" horiz-adv-x="665" 
d="M481 756q111 47 206 68l5 -14q-72 -22 -134 -56.5t-101 -73.5h-18q-28 48 -59.5 79.5t-79.5 50.5l4 14q19 -4 35.5 -7.5t31.5 -9t25 -9t24.5 -10.5t20 -9.5t21 -11.5t19.5 -11zM274 -14q-110 0 -171 54.5t-61 155.5q0 59 18 119.5t54 115.5t84.5 97.5t114.5 68t139 25.5
q55 0 88.5 -17.5t59.5 -47.5q25 -31 55 51h22q-31 -90 -65 -230h-22q6 51 6 77q0 39 -16 71q-18 38 -54.5 58t-82.5 20q-59 0 -116 -40.5t-97 -102.5t-64 -138.5t-24 -146.5q0 -83 37.5 -127.5t103.5 -44.5q46 0 95 20.5t85 57.5q26 27 45 61t45 97h22q-47 -173 -59 -240
h-22q3 21 3 34q0 40 -33 17q-46 -32 -89.5 -48.5t-100.5 -16.5z" />
    <glyph glyph-name="Dcaron" unicode="&#x10e;" horiz-adv-x="725" 
d="M445 856q111 47 206 68l5 -14q-152 -47 -235 -130h-18q-57 98 -139 130l4 14q19 -4 35.5 -7.5t31.5 -9t25 -9t24.5 -10.5t20 -9.5t21 -11.5t19.5 -11zM704 487q0 -93 -36 -181.5t-97.5 -156t-151 -108.5t-189.5 -41q-13 0 -65 1.5t-75 1.5q-81 0 -120 -3l3 20
q49 2 67.5 17.5t32.5 68.5l131 496q15 49 5 67t-63 19l3 20q61 -4 122 -3q138 3 151 3q282 0 282 -221zM218 18q93 0 168.5 40.5t123 109.5t73 157t25.5 187q0 91 -51 134.5t-163 43.5q-46 0 -64.5 -17t-32.5 -69l-131 -500q-16 -44 -7 -65t59 -21z" />
    <glyph glyph-name="dcaron" unicode="&#x10f;" horiz-adv-x="724" 
d="M417 756q111 47 206 68l5 -14q-72 -22 -134 -56.5t-101 -73.5h-18q-28 48 -59.5 79.5t-79.5 50.5l4 14q19 -4 35.5 -7.5t31.5 -9t25 -9t24.5 -10.5t20 -9.5t21 -11.5t19.5 -11zM680 387q0 -82 -31.5 -153t-89 -123t-142 -81.5t-185.5 -29.5q-13 0 -65 1.5t-75 1.5
q-81 0 -120 -3l3 20q49 2 67.5 17.5t32.5 68.5l105 396q16 49 5.5 67t-63.5 19l3 20q61 -4 122 -3q139 3 151 3q94 0 157 -25.5t94 -74.5t31 -121zM220 18q94 0 165 29t114 82t64 124t21 159q0 91 -51 134.5t-163 43.5q-46 0 -64.5 -17t-32.5 -69l-105 -400
q-15 -47 -6 -66.5t58 -19.5z" />
    <glyph glyph-name="Dcroat" unicode="&#x110;" horiz-adv-x="725" 
d="M422 708q282 0 282 -221q0 -93 -36 -181.5t-97.5 -156t-151 -108.5t-189.5 -41q-13 0 -65 1.5t-75 1.5q-81 0 -120 -3l3 20q49 2 67.5 17.5t32.5 68.5l62 235h-115l6 25h116l62 236q15 49 5 67t-63 19l3 20q61 -4 122 -3q138 3 151 3zM218 18q93 0 168.5 40.5t123 109.5
t73 157t25.5 187q0 91 -51 134.5t-163 43.5q-46 0 -64.5 -17t-32.5 -69l-62 -238h203l-6 -25h-204l-62 -237q-16 -44 -7 -65t59 -21z" />
    <glyph glyph-name="dcroat" unicode="&#x111;" horiz-adv-x="724" 
d="M398 608q282 0 282 -221q0 -168 -122.5 -277.5t-325.5 -109.5q-13 0 -65 1.5t-75 1.5q-81 0 -120 -3l3 20q49 2 67.5 17.5t32.5 68.5l50 188h-109l6 25h109l49 183q16 49 5.5 67t-63.5 19l3 20q61 -4 122 -3q138 3 151 3zM220 18q185 0 274.5 106t89.5 288
q0 91 -51 134.5t-163 43.5q-46 0 -64.5 -17t-32.5 -69l-49 -185h210l-6 -25h-210l-50 -190q-15 -46 -6 -66t58 -20z" />
    <glyph glyph-name="Emacron" unicode="&#x112;" horiz-adv-x="610" 
d="M603 844l-6 -25h-352l6 25h352zM443 705q140 0 199 3q-26 -72 -38 -118q-11 -36 -14 -62h-23q18 88 1 122.5t-93 34.5h-73q-52 0 -70 -14.5t-33 -68.5l-63 -236h66q21 0 38.5 7t28.5 16t22 26t15.5 27t13 30.5t10.5 25.5h23q-13 -40 -41 -142q-14 -53 -32 -142h-23
q1 5 2 14q3 31 5.5 57t-14 43.5t-54.5 17.5h-66l-64 -240q-14 -55 -3.5 -69t62.5 -14h73q90 0 131.5 37t79.5 140h23q-11 -29 -22 -72q-16 -56 -27 -128q-68 3 -229 3q-192 0 -289 -3l5 20q52 2 70 17t33 69l133 496q14 55 3.5 69.5t-61.5 16.5l5 20q98 -3 290 -3z" />
    <glyph glyph-name="emacron" unicode="&#x113;" horiz-adv-x="619" 
d="M579 744l-6 -25h-352l6 25h352zM407 605q151 0 217 3q-19 -47 -36 -108q-15 -58 -17 -72h-23q18 89 -2 123t-96 34h-73q-52 0 -70.5 -14.5t-32.5 -68.5l-50 -186h93q17 0 31 5t25.5 15.5t19.5 20t16 25.5t11.5 23.5t9.5 22.5h23q-24 -71 -36 -122q-1 -5 -7 -27t-11 -43.5
t-9 -51.5h-23q3 17 3.5 27.5t0.5 25.5t-4 24t-11 18t-21 13t-34 4h-83l-51 -190q-14 -55 -3.5 -69t62.5 -14h73q81 0 126 39t82 138h23q-18 -53 -24 -82q-11 -37 -25 -118q-70 3 -235 3q-185 0 -280 -3l5 20q52 2 70.5 17t32.5 69l107 396q13 55 3 69.5t-61 16.5l5 20
q94 -3 279 -3z" />
    <glyph glyph-name="Ebreve" unicode="&#x114;" horiz-adv-x="610" 
d="M428 782q-62 0 -101 32.5t-50 83.5l16 5q26 -30 61 -42t91 -12q123 0 221 58l10 -11q-43 -43 -116 -78.5t-132 -35.5zM153 708q98 -3 290 -3q140 0 199 3q-26 -72 -38 -118q-11 -36 -14 -62h-23q18 88 1 122.5t-93 34.5h-73q-52 0 -70 -14.5t-33 -68.5l-63 -236h66
q21 0 38.5 7t28.5 16t22 26t15.5 27t13 30.5t10.5 25.5h23q-13 -40 -41 -142q-14 -53 -32 -142h-23q1 5 2 14q3 31 5.5 57t-14 43.5t-54.5 17.5h-66l-64 -240q-14 -55 -3.5 -69t62.5 -14h73q90 0 131.5 37t79.5 140h23q-11 -29 -22 -72q-16 -56 -27 -128q-68 3 -229 3
q-192 0 -289 -3l5 20q52 2 70 17t33 69l133 496q14 55 3.5 69.5t-61.5 16.5z" />
    <glyph glyph-name="ebreve" unicode="&#x115;" horiz-adv-x="619" 
d="M381 682q-62 0 -101 32.5t-50 83.5l16 5q26 -30 61 -42t91 -12q54 0 114.5 15t106.5 43l10 -11q-43 -43 -116 -78.5t-132 -35.5zM128 608q94 -3 279 -3q151 0 217 3q-19 -47 -36 -108q-15 -58 -17 -72h-23q18 89 -2 123t-96 34h-73q-52 0 -70.5 -14.5t-32.5 -68.5
l-50 -186h93q17 0 31 5t25.5 15.5t19.5 20t16 25.5t11.5 23.5t9.5 22.5h23q-24 -71 -36 -122q-1 -5 -7 -27t-11 -43.5t-9 -51.5h-23q3 17 3.5 27.5t0.5 25.5t-4 24t-11 18t-21 13t-34 4h-83l-51 -190q-14 -55 -3.5 -69t62.5 -14h73q81 0 126 39t82 138h23q-18 -53 -24 -82
q-11 -37 -25 -118q-70 3 -235 3q-185 0 -280 -3l5 20q52 2 70.5 17t32.5 69l107 396q13 55 3 69.5t-61 16.5z" />
    <glyph glyph-name="Edotaccent" unicode="&#x116;" horiz-adv-x="610" 
d="M444 772q-22 0 -36 15t-14 38q0 28 22 51.5t52 23.5q23 0 37 -15t14 -38q0 -28 -22 -51.5t-53 -23.5zM443 705q140 0 199 3q-26 -72 -38 -118q-11 -36 -14 -62h-23q18 88 1 122.5t-93 34.5h-73q-52 0 -70 -14.5t-33 -68.5l-63 -236h66q21 0 38.5 7t28.5 16t22 26t15.5 27
t13 30.5t10.5 25.5h23q-13 -40 -41 -142q-14 -53 -32 -142h-23q1 5 2 14q3 31 5.5 57t-14 43.5t-54.5 17.5h-66l-64 -240q-14 -55 -3.5 -69t62.5 -14h73q90 0 131.5 37t79.5 140h23q-11 -29 -22 -72q-16 -56 -27 -128q-68 3 -229 3q-192 0 -289 -3l5 20q52 2 70 17t33 69
l133 496q14 55 3.5 69.5t-61.5 16.5l5 20q98 -3 290 -3z" />
    <glyph glyph-name="edotaccent" unicode="&#x117;" horiz-adv-x="619" 
d="M412 672q-15 0 -26.5 7t-17.5 19t-6 27q0 18 9.5 35t27 28.5t37.5 11.5q23 0 37 -15t14 -38q0 -28 -22 -51.5t-53 -23.5zM407 605q151 0 217 3q-19 -47 -36 -108q-15 -58 -17 -72h-23q18 89 -2 123t-96 34h-73q-52 0 -70.5 -14.5t-32.5 -68.5l-50 -186h93q17 0 31 5
t25.5 15.5t19.5 20t16 25.5t11.5 23.5t9.5 22.5h23q-24 -71 -36 -122q-1 -5 -7 -27t-11 -43.5t-9 -51.5h-23q3 17 3.5 27.5t0.5 25.5t-4 24t-11 18t-21 13t-34 4h-83l-51 -190q-14 -55 -3.5 -69t62.5 -14h73q81 0 126 39t82 138h23q-18 -53 -24 -82q-11 -37 -25 -118
q-70 3 -235 3q-185 0 -280 -3l5 20q52 2 70.5 17t32.5 69l107 396q13 55 3 69.5t-61 16.5l5 20q94 -3 279 -3z" />
    <glyph glyph-name="Eogonek" unicode="&#x118;" horiz-adv-x="610" 
d="M443 705q140 0 199 3q-26 -72 -38 -118q-11 -36 -14 -62h-23q18 88 1 122.5t-93 34.5h-73q-52 0 -70 -14.5t-33 -68.5l-63 -236h66q21 0 38.5 7t28.5 16t22 26t15.5 27t13 30.5t10.5 25.5h23q-13 -40 -41 -142q-14 -53 -32 -142h-23q1 5 2 14q3 31 5.5 57t-14 43.5
t-54.5 17.5h-66l-64 -240q-14 -55 -3.5 -69t62.5 -14h73q90 0 131.5 37t79.5 140h23q-11 -29 -22 -72q-16 -56 -27 -128q-8 0 -12 1q-45 -14 -77.5 -41t-32.5 -63q0 -37 39 -37q43 0 77 26l11 -17q-60 -57 -129 -57q-36 0 -55 15.5t-19 42.5q0 44 46 77.5t106 54.5
q-61 1 -183 1q-192 0 -289 -3l5 20q52 2 70 17t33 69l133 496q14 55 3.5 69.5t-61.5 16.5l5 20q98 -3 290 -3z" />
    <glyph glyph-name="eogonek" unicode="&#x119;" horiz-adv-x="619" 
d="M407 605q151 0 217 3q-19 -47 -36 -108q-15 -58 -17 -72h-23q18 89 -2 123t-96 34h-73q-36 0 -53.5 -6t-28.5 -22.5t-21 -54.5l-50 -186h93q20 0 37 8.5t27.5 18.5t21.5 29t15.5 28.5t11.5 27.5h23q-24 -71 -36 -122q-1 -5 -7 -27t-11 -43.5t-9 -51.5h-23q3 17 3.5 27.5
t0.5 25.5t-4 24t-11 18t-21 13t-34 4h-83l-51 -190q-14 -55 -3.5 -69t62.5 -14h73q81 0 126 39t82 138h23q-18 -53 -24 -82q-11 -37 -25 -118q-5 0 -14 0.5t-13 0.5q-44 -13 -77.5 -40.5t-33.5 -63.5q0 -37 39 -37q19 0 41 8t36 18l11 -17q-60 -57 -129 -57q-36 0 -55 15.5
t-19 42.5q0 23 14.5 45t39 38t48.5 28t51 21q-59 1 -174 1q-185 0 -280 -3l5 20q52 2 70.5 17t32.5 69l107 396q13 55 3 69.5t-61 16.5l5 20q94 -3 279 -3z" />
    <glyph glyph-name="Ecaron" unicode="&#x11a;" horiz-adv-x="610" 
d="M413 780q-57 98 -139 130l4 14q19 -4 35.5 -7.5t31.5 -9t25 -9t24.5 -10.5t20 -9.5t21 -11.5t19.5 -11q111 47 206 68l5 -14q-152 -47 -235 -130h-18zM153 708q98 -3 290 -3q140 0 199 3q-26 -72 -38 -118q-11 -36 -14 -62h-23q18 88 1 122.5t-93 34.5h-73
q-52 0 -70 -14.5t-33 -68.5l-63 -236h66q21 0 38.5 7t28.5 16t22 26t15.5 27t13 30.5t10.5 25.5h23q-13 -40 -41 -142q-14 -53 -32 -142h-23q1 5 2 14q3 31 5.5 57t-14 43.5t-54.5 17.5h-66l-64 -240q-14 -55 -3.5 -69t62.5 -14h73q90 0 131.5 37t79.5 140h23
q-11 -29 -22 -72q-16 -56 -27 -128q-68 3 -229 3q-192 0 -289 -3l5 20q52 2 70 17t33 69l133 496q14 55 3.5 69.5t-61.5 16.5z" />
    <glyph glyph-name="ecaron" unicode="&#x11b;" horiz-adv-x="619" 
d="M391 680q-28 48 -59.5 79.5t-79.5 50.5l4 14q19 -4 35.5 -7.5t31.5 -9t25 -9t24.5 -10.5t20 -9.5t21 -11.5t19.5 -11q111 47 206 68l5 -14q-72 -22 -134 -56.5t-101 -73.5h-18zM128 608q94 -3 279 -3q151 0 217 3q-19 -47 -36 -108q-15 -58 -17 -72h-23q18 89 -2 123
t-96 34h-73q-52 0 -70.5 -14.5t-32.5 -68.5l-50 -186h93q17 0 31 5t25.5 15.5t19.5 20t16 25.5t11.5 23.5t9.5 22.5h23q-24 -71 -36 -122q-1 -5 -7 -27t-11 -43.5t-9 -51.5h-23q3 17 3.5 27.5t0.5 25.5t-4 24t-11 18t-21 13t-34 4h-83l-51 -190q-14 -55 -3.5 -69t62.5 -14
h73q81 0 126 39t82 138h23q-18 -53 -24 -82q-11 -37 -25 -118q-70 3 -235 3q-185 0 -280 -3l5 20q52 2 70.5 17t32.5 69l107 396q14 55 3.5 69.5t-61.5 16.5z" />
    <glyph glyph-name="Gcircumflex" unicode="&#x11c;" horiz-adv-x="705" 
d="M502 840q-111 -47 -206 -68l-5 14q152 47 235 130h18q57 -98 139 -130l-4 -14q-19 4 -35.5 7.5t-31.5 9t-25 9t-24.5 10.5t-20 9.5t-21 11.5t-19.5 11zM316 6q61 0 114 31q34 20 46 63l23 88q15 61 1.5 77.5t-76.5 18.5l5 20q53 -3 140 -3q69 0 105 3l-5 -20
q-34 -2 -46.5 -16.5t-27.5 -69.5l-53 -198h-20q5 17 2.5 37t-14.5 20q-11 0 -38 -17q-85 -54 -170 -54q-122 0 -187 59.5t-65 169.5q0 85 32.5 174.5t88 163.5t139.5 121.5t178 47.5q60 0 95.5 -16.5t68.5 -48.5q15 -16 28.5 -5t28.5 56h22q-33 -86 -64 -230h-22q5 43 5 75
q0 46 -14 73q-21 37 -62 57.5t-92 20.5q-64 0 -120.5 -36.5t-95.5 -93.5t-67.5 -127.5t-42 -138.5t-13.5 -126q0 -90 42.5 -133t130.5 -43z" />
    <glyph glyph-name="gcircumflex" unicode="&#x11d;" horiz-adv-x="697" 
d="M465 740q-111 -47 -206 -68l-5 14q152 47 235 130h18q19 -32 36.5 -54t43.5 -42.5t59 -33.5l-4 -14q-19 4 -35.5 7.5t-31.5 9t-25 9t-24.5 10.5t-19.5 9.5t-21 11.5t-20 11zM534 0h-20q5 14 2.5 30.5t-14.5 16.5q-16 0 -53 -23q-62 -38 -155 -38q-82 0 -138.5 24.5
t-85 71t-28.5 113.5q0 72 28 146.5t78.5 137.5t130 103t173.5 40q60 0 95.5 -16.5t68.5 -48.5q15 -16 28.5 -5t28.5 56h22q-32 -92 -64 -230h-22q5 43 5 75q0 46 -14 73q-21 37 -62 57.5t-92 20.5q-46 0 -87 -17t-72 -45.5t-56.5 -66t-43 -78.5t-29.5 -84t-17.5 -81
t-5.5 -70q0 -79 42.5 -117.5t130.5 -38.5q17 0 35 2.5t38 8t37 14.5t30 23t18 32l18 67q7 26 8.5 41.5t-1.5 26.5t-14 16.5t-26 8t-42 3.5l4 20q53 -3 141 -3q68 0 104 3l-4 -20q-36 -2 -48.5 -16.5t-27.5 -69.5z" />
    <glyph glyph-name="Gbreve" unicode="&#x11e;" horiz-adv-x="705" 
d="M513 849q123 0 221 58l10 -11q-43 -43 -116 -78.5t-132 -35.5q-62 0 -101 32.5t-50 83.5l16 5q26 -30 61 -42t91 -12zM316 6q61 0 114 31q34 20 46 63l23 88q15 61 1.5 77.5t-76.5 18.5l5 20q53 -3 140 -3q69 0 105 3l-5 -20q-34 -2 -46.5 -16.5t-27.5 -69.5l-53 -198
h-20q5 17 2.5 37t-14.5 20q-11 0 -38 -17q-85 -54 -170 -54q-122 0 -187 59.5t-65 169.5q0 85 32.5 174.5t88 163.5t139.5 121.5t178 47.5q60 0 95.5 -16.5t68.5 -48.5q15 -16 28.5 -5t28.5 56h22q-33 -86 -64 -230h-22q5 43 5 75q0 46 -14 73q-21 37 -62 57.5t-92 20.5
q-64 0 -120.5 -36.5t-95.5 -93.5t-67.5 -127.5t-42 -138.5t-13.5 -126q0 -90 42.5 -133t130.5 -43z" />
    <glyph glyph-name="gbreve" unicode="&#x11f;" horiz-adv-x="697" 
d="M449 749q35 0 73.5 6.5t77.5 20t70 31.5l10 -11q-43 -43 -116 -78.5t-132 -35.5q-62 0 -101 32.5t-50 83.5l16 5q26 -30 61 -42t91 -12zM534 0h-20q5 14 2.5 30.5t-14.5 16.5q-16 0 -53 -23q-62 -38 -155 -38q-82 0 -138.5 24.5t-85 71t-28.5 113.5q0 72 28 146.5
t78.5 137.5t130 103t173.5 40q60 0 95.5 -16.5t68.5 -48.5q15 -16 28.5 -5t28.5 56h22q-32 -92 -64 -230h-22q5 43 5 75q0 46 -14 73q-21 37 -62 57.5t-92 20.5q-46 0 -87 -17t-72 -45.5t-56.5 -66t-43 -78.5t-29.5 -84t-17.5 -81t-5.5 -70q0 -79 42.5 -117.5t130.5 -38.5
q17 0 35 2.5t38 8t37 14.5t30 23t18 32l18 67q7 26 8.5 41.5t-1.5 26.5t-14 16.5t-26 8t-42 3.5l4 20q53 -3 141 -3q68 0 104 3l-4 -20q-36 -2 -48.5 -16.5t-27.5 -69.5z" />
    <glyph glyph-name="Gdotaccent" unicode="&#x120;" horiz-adv-x="705" 
d="M462 825q0 28 22 51.5t52 23.5q23 0 37 -15t14 -38q0 -28 -22 -51.5t-53 -23.5q-22 0 -36 15t-14 38zM316 6q61 0 114 31q34 20 46 63l23 88q15 61 1.5 77.5t-76.5 18.5l5 20q53 -3 140 -3q69 0 105 3l-5 -20q-34 -2 -46.5 -16.5t-27.5 -69.5l-53 -198h-20q5 17 2.5 37
t-14.5 20q-11 0 -38 -17q-85 -54 -170 -54q-122 0 -187 59.5t-65 169.5q0 85 32.5 174.5t88 163.5t139.5 121.5t178 47.5q60 0 95.5 -16.5t68.5 -48.5q15 -16 28.5 -5t28.5 56h22q-33 -86 -64 -230h-22q5 43 5 75q0 46 -14 73q-21 37 -62 57.5t-92 20.5q-64 0 -120.5 -36.5
t-95.5 -93.5t-67.5 -127.5t-42 -138.5t-13.5 -126q0 -90 42.5 -133t130.5 -43z" />
    <glyph glyph-name="gdotaccent" unicode="&#x121;" horiz-adv-x="697" 
d="M413 725q0 28 22 51.5t52 23.5q23 0 37 -15t14 -38q0 -28 -22 -51.5t-53 -23.5q-11 0 -20.5 4t-16 11t-10 17t-3.5 21zM534 0h-20q5 14 2.5 30.5t-14.5 16.5q-16 0 -53 -23q-62 -38 -155 -38q-82 0 -138.5 24.5t-85 71t-28.5 113.5q0 72 28 146.5t78.5 137.5t130 103
t173.5 40q60 0 95.5 -16.5t68.5 -48.5q15 -16 28.5 -5t28.5 56h22q-32 -92 -64 -230h-22q5 43 5 75q0 46 -14 73q-21 37 -62 57.5t-92 20.5q-46 0 -87 -17t-72 -45.5t-56.5 -66t-43 -78.5t-29.5 -84t-17.5 -81t-5.5 -70q0 -79 42.5 -117.5t130.5 -38.5q17 0 35 2.5t38 8
t37 14.5t30 23t18 32l18 67q7 26 8.5 41.5t-1.5 26.5t-14 16.5t-26 8t-42 3.5l4 20q52 -3 141 -3q68 0 104 3l-4 -20q-36 -2 -48.5 -16.5t-27.5 -69.5z" />
    <glyph glyph-name="Gcommaaccent" unicode="&#x122;" horiz-adv-x="705" 
d="M316 6q61 0 114 31q34 20 46 63l23 88q15 61 1.5 77.5t-76.5 18.5l5 20q53 -3 140 -3q69 0 105 3l-5 -20q-34 -2 -46.5 -16.5t-27.5 -69.5l-53 -198h-20q5 17 2.5 37t-14.5 20q-11 0 -38 -17q-85 -54 -170 -54q-122 0 -187 59.5t-65 169.5q0 85 32.5 174.5t88 163.5
t139.5 121.5t178 47.5q60 0 95.5 -16.5t68.5 -48.5q15 -16 28.5 -5t28.5 56h22q-33 -86 -64 -230h-22q5 43 5 75q0 46 -14 73q-21 37 -62 57.5t-92 20.5q-64 0 -120.5 -36.5t-95.5 -93.5t-67.5 -127.5t-42 -138.5t-13.5 -126q0 -90 42.5 -133t130.5 -43zM293 -69
q26 0 40.5 -16.5t14.5 -41.5q0 -81 -98 -114l-7 17q27 8 49.5 25t24.5 39q-18 -16 -44 -16q-20 0 -32.5 11t-12.5 31q0 24 18 44.5t47 20.5z" />
    <glyph glyph-name="gcommaaccent" unicode="&#x123;" horiz-adv-x="697" 
d="M534 0h-20q5 14 2.5 30.5t-14.5 16.5q-16 0 -53 -23q-62 -38 -155 -38q-82 0 -138.5 24.5t-85 71t-28.5 113.5q0 72 28 146.5t78.5 137.5t130 103t173.5 40q60 0 95.5 -16.5t68.5 -48.5q15 -16 28.5 -5t28.5 56h22q-32 -92 -64 -230h-22q5 43 5 75q0 46 -14 73
q-21 37 -62 57.5t-92 20.5q-46 0 -87 -17t-72 -45.5t-56.5 -66t-43 -78.5t-29.5 -84t-17.5 -81t-5.5 -70q0 -79 42.5 -117.5t130.5 -38.5q17 0 35 2.5t38 8t37 14.5t30 23t18 32l18 67q7 26 8.5 41.5t-1.5 26.5t-14 16.5t-26 8t-42 3.5l4 20q52 -3 141 -3q68 0 104 3l-4 -20
q-36 -2 -48.5 -16.5t-27.5 -69.5zM283 -69q26 0 40.5 -16.5t14.5 -41.5q0 -37 -21 -66t-77 -48l-7 17q17 5 32.5 13.5t28 22t13.5 28.5q-18 -16 -44 -16q-20 0 -32.5 11t-12.5 31q0 24 18 44.5t47 20.5z" />
    <glyph glyph-name="Hcircumflex" unicode="&#x124;" horiz-adv-x="755" 
d="M501 840q-111 -47 -206 -68l-5 14q152 47 235 130h18q57 -98 139 -130l-4 -14q-19 4 -35.5 7.5t-31.5 9t-25 9t-24.5 10.5t-20 9.5t-21 11.5t-19.5 11zM691 705q85 0 129 3l-5 -20q-52 -2 -70.5 -17t-32.5 -69l-132 -496q-14 -55 -3.5 -69.5t62.5 -16.5l-4 -20
q-42 3 -128 3q-81 0 -127 -3l4 20q52 2 70.5 17t32.5 69l64 240h-321l-64 -240q-14 -55 -3.5 -69.5t62.5 -16.5l-4 -20q-47 3 -127 3q-84 0 -127 -3l5 20q51 2 69 17t32 69l132 496q13 55 2.5 69.5t-61.5 16.5l5 20q41 -3 127 -3q80 0 128 3l-5 -20q-52 -2 -70.5 -17
t-32.5 -69l-63 -236h321l63 236q14 55 3 69.5t-62 16.5l5 20q45 -3 126 -3z" />
    <glyph glyph-name="hcircumflex" unicode="&#x125;" horiz-adv-x="758" 
d="M484 740q-111 -47 -206 -68l-5 14q152 47 235 130h18q57 -98 139 -130l-4 -14q-19 4 -35.5 7.5t-31.5 9t-25 9t-24.5 10.5t-20 9.5t-21 11.5t-19.5 11zM666 605q86 0 129 3l-5 -20q-52 -2 -70.5 -17t-32.5 -69l-105 -396q-14 -55 -3.5 -69.5t62.5 -16.5l-4 -20
q-42 3 -128 3q-81 0 -127 -3l4 20q52 2 70.5 17t32.5 69l50 190h-321l-50 -190q-14 -55 -3.5 -69.5t62.5 -16.5l-4 -20q-47 3 -127 3q-83 0 -127 -3l5 20q51 2 69 17t32 69l105 396q13 55 2.5 69.5t-61.5 16.5l5 20q41 -3 127 -3q80 0 128 3l-5 -20q-52 -2 -70.5 -17
t-32.5 -69l-49 -186h321l49 186q14 55 3 69.5t-62 16.5l5 20q45 -3 126 -3z" />
    <glyph glyph-name="Hbar" unicode="&#x126;" horiz-adv-x="755" 
d="M712 602l-18 -69h123l-5 -20h-124l-108 -407q-14 -55 -3.5 -69.5t62.5 -16.5l-4 -20q-42 3 -128 3q-81 0 -127 -3l4 20q52 2 70.5 17t32.5 69l64 240h-321l-64 -240q-14 -55 -3.5 -69.5t62.5 -16.5l-4 -20q-47 3 -127 3q-84 0 -127 -3l5 20q51 2 69 17t32 69l108 407
h-122l5 20h123l18 69q13 55 2.5 69.5t-61.5 16.5l5 20q41 -3 127 -3q80 0 128 3l-5 -20q-52 -2 -70.5 -17t-32.5 -69l-18 -69h321l18 69q14 55 3 69.5t-62 16.5l5 20q45 -3 126 -3q85 0 129 3l-5 -20q-52 -2 -70.5 -17t-32.5 -69zM556 366l39 147h-321l-39 -147h321z" />
    <glyph glyph-name="hbar" unicode="&#x127;" horiz-adv-x="758" 
d="M669 434l-87 -328q-14 -55 -3.5 -69.5t62.5 -16.5l-4 -20q-42 3 -128 3q-81 0 -127 -3l4 20q52 2 70.5 17t32.5 69l50 190h-321l-50 -190q-14 -55 -3.5 -69.5t62.5 -16.5l-4 -20q-47 3 -127 3q-83 0 -127 -3l5 20q51 2 69 17t32 69l87 328h-109l5 20h109l13 48
q13 55 2.5 69.5t-61.5 16.5l5 20q41 -3 127 -3q80 0 128 3l-5 -20q-52 -2 -70.5 -17t-32.5 -69l-13 -48h321l13 48q14 55 3 69.5t-62 16.5l5 20q45 -3 126 -3q86 0 129 3l-5 -20q-52 -2 -70.5 -17t-32.5 -69l-13 -48h137l-5 -20h-137zM545 316l31 118h-321l-31 -118h321z
" />
    <glyph glyph-name="Itilde" unicode="&#x128;" horiz-adv-x="341" 
d="M263 895q39 0 67.5 -18.5t53 -36.5t52.5 -18q38 0 70 58l18 -5q-22 -52 -57 -77.5t-73 -25.5q-31 0 -56 11.5t-39 25t-34.5 25t-43.5 11.5q-38 0 -70 -58l-18 5q22 52 57 77.5t73 25.5zM166 106q-14 -55 -3.5 -69.5t62.5 -16.5l-4 -20q-47 3 -127 3q-84 0 -127 -3l5 20
q51 2 69 17t32 69l132 496q13 55 2.5 69.5t-61.5 16.5l5 20q41 -3 127 -3q80 0 128 3l-5 -20q-52 -2 -70.5 -17t-32.5 -69z" />
    <glyph glyph-name="itilde" unicode="&#x129;" horiz-adv-x="344" 
d="M203 795q31 0 56 -11.5t39 -25t34.5 -25t43.5 -11.5q38 0 70 58l18 -5q-22 -52 -57 -77.5t-73 -25.5q-31 0 -56 11.5t-39 25t-34.5 25t-43.5 11.5q-38 0 -70 -58l-18 5q22 52 57 77.5t73 25.5zM168 106q-14 -55 -3.5 -69.5t62.5 -16.5l-4 -20q-46 3 -127 3q-84 0 -127 -3
l5 20q51 2 69 17t32 69l105 396q13 55 2.5 69.5t-61.5 16.5l5 20q40 -3 127 -3q80 0 128 3l-5 -20q-37 -2 -54 -8t-28 -23t-21 -55z" />
    <glyph glyph-name="Imacron" unicode="&#x12a;" horiz-adv-x="341" 
d="M481 844l-6 -25h-352l6 25h352zM166 106q-14 -55 -3.5 -69.5t62.5 -16.5l-4 -20q-47 3 -127 3q-84 0 -127 -3l5 20q51 2 69 17t32 69l132 496q13 55 2.5 69.5t-61.5 16.5l5 20q41 -3 127 -3q80 0 128 3l-5 -20q-52 -2 -70.5 -17t-32.5 -69z" />
    <glyph glyph-name="imacron" unicode="&#x12b;" horiz-adv-x="344" 
d="M444 744l-6 -25h-352l6 25h352zM168 106q-14 -55 -3.5 -69.5t62.5 -16.5l-4 -20q-46 3 -127 3q-84 0 -127 -3l5 20q51 2 69 17t32 69l105 396q13 55 2.5 69.5t-61.5 16.5l5 20q40 -3 127 -3q80 0 128 3l-5 -20q-37 -2 -54 -8t-28 -23t-21 -55z" />
    <glyph glyph-name="Ibreve" unicode="&#x12c;" horiz-adv-x="341" 
d="M323 849q123 0 221 58l10 -11q-43 -43 -116 -78.5t-132 -35.5q-62 0 -101 32.5t-50 83.5l16 5q26 -30 61 -42t91 -12zM166 106q-14 -55 -3.5 -69.5t62.5 -16.5l-4 -20q-47 3 -127 3q-84 0 -127 -3l5 20q51 2 69 17t32 69l132 496q13 55 2.5 69.5t-61.5 16.5l5 20
q41 -3 127 -3q80 0 128 3l-5 -20q-52 -2 -70.5 -17t-32.5 -69z" />
    <glyph glyph-name="ibreve" unicode="&#x12d;" horiz-adv-x="344" 
d="M263 749q35 0 73.5 6.5t77.5 20t70 31.5l10 -11q-27 -27 -68 -52.5t-90.5 -43.5t-89.5 -18q-62 0 -101 32.5t-50 83.5l16 5q26 -30 61 -42t91 -12zM168 106q-14 -55 -3.5 -69.5t62.5 -16.5l-4 -20q-46 3 -127 3q-84 0 -127 -3l5 20q51 2 69 17t32 69l105 396
q13 55 2.5 69.5t-61.5 16.5l5 20q40 -3 127 -3q80 0 128 3l-5 -20q-52 -2 -70.5 -17t-32.5 -69z" />
    <glyph glyph-name="Iogonek" unicode="&#x12e;" horiz-adv-x="341" 
d="M278 705q80 0 128 3l-5 -20q-52 -2 -70.5 -17t-32.5 -69l-132 -496q-14 -55 -3.5 -69.5t62.5 -16.5l-3 -17h9l-10 -3q-44 -14 -76 -40.5t-32 -62.5q0 -37 39 -37q43 0 77 26l11 -17q-60 -57 -129 -57q-36 0 -55 15.5t-19 42.5q0 44 46 77.5t106 54.5q-29 1 -95 1
q-84 0 -127 -3l5 20q51 2 69 17t32 69l132 496q13 55 2.5 69.5t-61.5 16.5l5 20q41 -3 127 -3z" />
    <glyph glyph-name="iogonek" unicode="&#x12f;" horiz-adv-x="344" 
d="M253 605q80 0 128 3l-5 -20q-52 -2 -70.5 -17t-32.5 -69l-105 -396q-14 -55 -3.5 -69.5t62.5 -16.5l-4 -20h-9q-44 -13 -76.5 -40t-32.5 -63q0 -37 39 -37q19 0 41 8t36 18l11 -17q-60 -57 -129 -57q-24 0 -41 7.5t-25 20t-8 30.5q0 23 14.5 44.5t39 38t48.5 28.5t51 21
q-27 1 -86 1q-84 0 -127 -3l5 20q51 2 69 17t32 69l105 396q13 55 2.5 69.5t-61.5 16.5l5 20q40 -3 127 -3z" />
    <glyph glyph-name="Idotaccent" unicode="&#x130;" horiz-adv-x="341" 
d="M272 825q0 28 22 51.5t52 23.5q23 0 37 -15t14 -38q0 -28 -22 -51.5t-53 -23.5q-22 0 -36 15t-14 38zM166 106q-14 -55 -3.5 -69.5t62.5 -16.5l-4 -20q-47 3 -127 3q-84 0 -127 -3l5 20q51 2 69 17t32 69l132 496q13 55 2.5 69.5t-61.5 16.5l5 20q41 -3 127 -3
q80 0 128 3l-5 -20q-52 -2 -70.5 -17t-32.5 -69z" />
    <glyph glyph-name="dotlessi" unicode="&#x131;" horiz-adv-x="302" 
d="M158 429q21 62 -14 62q-23 0 -41 -24t-38 -78l-14 -37h-19l26 73q37 103 124 103q100 0 50 -140l-107 -303q-22 -62 16 -62q21 0 39 23t39 79l14 37h19l-26 -73q-37 -103 -123 -103q-103 0 -52 140z" />
    <glyph glyph-name="IJ" unicode="&#x132;" horiz-adv-x="798" 
d="M898 730q26 -21 -37 -52q-12 -6 -28 -12q-62 -52 -97.5 -121t-61.5 -179h108l-4 -20h-109q0 -1 -0.5 -3t-0.5 -3l-61 -275q-9 -41 -22.5 -77.5t-33.5 -69t-44.5 -56t-57 -37t-69.5 -13.5q-46 0 -74 14t-30 41q-2 23 13.5 41t39.5 18q18 0 30 -11.5t14 -28.5
q3 -34 -38 -53q15 -5 35 -5q16 0 30.5 5t25.5 12.5t21.5 21.5t18 26.5t15 33.5t12.5 37t11 42.5t10 44t10 47.5t10 47l32 150q7 33 13 51h-122l4 20h124q16 50 37.5 89.5t53.5 75.5t55 57.5t70 60.5q10 9 16 14q-115 -60 -196 -60q-74 0 -188.5 28t-189.5 28q-21 0 -38 -4
t-29 -11.5t-19 -20t-7 -27.5q0 -18 10 -32.5t25.5 -23t36.5 -14t40 -7.5t39 -2q69 0 130 39l8 -15q-32 -22 -85 -36l-116 -399q-16 -49 -5 -67t64 -19l-4 -20q-46 3 -127 3q-84 0 -127 -3l5 20q35 2 52 8.5t27.5 23t21.5 54.5l114 392q-28 2 -53 9t-48 19.5t-36.5 34.5
t-13.5 51q0 54 41 90.5t103 36.5q45 0 87.5 -11t77.5 -27t69.5 -31.5t76.5 -26.5t86 -11q46 0 81.5 10t93.5 35q47 76 74 53z" />
    <glyph glyph-name="ij" unicode="&#x133;" horiz-adv-x="818" 
d="M876 620q7 -8 5.5 -17t-20 -21.5t-52.5 -25.5q-62 -51 -98 -118.5t-71 -181.5h100l-3 -20h-103q0 -1 -0.5 -3t-1.5 -3l-70 -235q-24 -80 -85 -131.5t-151 -51.5q-30 0 -52.5 6t-35.5 18.5t-14 30.5q-1 23 15 41t40 18q18 0 29.5 -11.5t12.5 -28.5q1 -34 -40 -53
q15 -5 35 -5q19 0 34.5 3t29 12t23.5 17t20 25.5t16 29.5t15 38t14 42t15 49q6 20 9 31l33 110q6 22 17 51h-126l3 20h131q12 30 27 58t26.5 48t33.5 45t33 37t39 37.5t38.5 34t44.5 37.5q-127 -60 -218 -60q-70 0 -176 28t-177 28q-43 0 -68 -16t-25 -47q0 -22 14.5 -38.5
t38.5 -25t48.5 -12t49.5 -3.5q77 0 150 29l5 -15q-57 -25 -126 -32l-84 -283q-15 -54 -4 -69t63 -17l-4 -20q-46 3 -127 3q-84 0 -127 -3l5 20q50 2 67.5 17t33.5 69l85 285q-26 4 -47.5 11.5t-41 20t-30.5 33t-11 46.5q0 54 41 90.5t103 36.5q51 0 102 -16.5t86 -37t85 -37
t100 -16.5q36 0 71 6.5t57.5 14t68.5 24.5q49 76 76 53z" />
    <glyph glyph-name="Jcircumflex" unicode="&#x134;" horiz-adv-x="636" 
d="M494 840q-111 -47 -206 -68l-5 14q152 47 235 130h18q57 -98 139 -130l-4 -14q-19 4 -35.5 7.5t-31.5 9t-25 9t-24.5 10.5t-20 9.5t-21 11.5t-19.5 11zM737 730q7 -8 5.5 -17t-20 -21.5t-52.5 -25.5q-140 -93 -208 -300h99l-3 -20h-102q-8 -26 -11 -39l-62 -242
q-29 -112 -88 -182.5t-148 -70.5q-46 0 -73.5 14t-28.5 41q-1 23 15 41t40 18q18 0 29.5 -11.5t12.5 -28.5q1 -34 -40 -53q15 -5 35 -5q18 0 33.5 5t28.5 17t23 24.5t19.5 34t16.5 38.5t15 46t13 48t13 52t13 52l30 117q13 48 28 84h-133l3 20h138q42 91 107 157t168 140
q-116 -60 -198 -60q-48 0 -122.5 28t-123.5 28q-68 0 -65 -66q1 -59 74 -73l-3 -20q-107 19 -110 116q-2 54 29.5 88.5t86.5 34.5q37 0 72.5 -16.5t60 -37t59.5 -37t71 -16.5q46 0 82 10t95 35q49 76 76 53z" />
    <glyph glyph-name="jcircumflex" unicode="&#x135;" horiz-adv-x="615" 
d="M437 740q-111 -47 -206 -68l-5 14q152 47 235 130h18q28 -48 59.5 -79.5t79.5 -50.5l-4 -14q-19 4 -35.5 7.5t-31.5 9t-25 9t-24.5 10.5t-20 9.5t-21 11.5t-19.5 11zM673 620q7 -8 5.5 -17t-20.5 -21.5t-52 -25.5q-43 -35 -74.5 -81t-51.5 -94.5t-43 -124.5h100l-3 -20
h-103q-1 -1 -1.5 -3t-0.5 -3l-70 -235q-16 -52 -46.5 -92t-79.5 -65.5t-110 -25.5q-46 0 -73.5 14t-28.5 41q-1 23 15 41t40 18q18 0 29.5 -11.5t12.5 -28.5q1 -34 -40 -53q15 -5 35 -5q19 0 34.5 3t29 12t23.5 17t20 25.5t16 29.5t15 38t14 42t15 49q6 20 9 31l33 110
q6 22 17 51h-126l3 20h131q14 35 29 65t37 58t36 45.5t44.5 45.5t43.5 39.5t52 43.5q-100 -60 -168 -60q-46 0 -117.5 28t-118.5 28q-33 0 -50 -17.5t-15 -48.5q1 -59 74 -73l-3 -20q-46 8 -77.5 35.5t-32.5 80.5q-2 54 29.5 88.5t86.5 34.5q25 0 48.5 -8t41.5 -20t38 -25.5
t37.5 -25.5t40.5 -20t47 -8q27 0 52.5 6.5t44 14.5t50.5 24q49 76 76 53z" />
    <glyph glyph-name="Kcommaaccent" unicode="&#x136;" horiz-adv-x="675" 
d="M648 722q63 0 59 -59q-2 -23 -16.5 -43.5t-41.5 -20.5q-21 0 -30.5 12.5t-8.5 30.5q2 30 32 59h-3q-20 -1 -36 -14q-19 -17 -35 -55.5t-30 -79t-33.5 -80.5t-53.5 -68.5t-81 -34.5q56 -11 81 -43t22 -121l-4 -113q-1 -26 4.5 -38.5t25.5 -12.5q25 0 42.5 18.5t31.5 59.5
l17 51h20l-26 -77q-36 -107 -122 -107q-92 0 -84 116l7 113q4 67 -4.5 96t-31.5 47q-88 -22 -88 11q0 34 91 10q48 6 82.5 34.5t53 68.5t32 80.5t30.5 79.5t38 57q29 23 60 23zM225 20l-4 -20q-47 3 -127 3q-84 0 -127 -3l5 20q51 2 69 17t32 69l132 496q13 55 2.5 69.5
t-61.5 16.5l5 20q41 -3 127 -3q80 0 128 3l-5 -20q-52 -2 -70.5 -17t-32.5 -69l-132 -496q-14 -55 -3.5 -69.5t62.5 -16.5zM245 -69q26 0 40.5 -16.5t14.5 -41.5q0 -81 -98 -114l-7 17q27 8 49.5 25t24.5 39q-18 -16 -44 -16q-20 0 -32.5 11t-12.5 31q0 24 18 44.5t47 20.5z
" />
    <glyph glyph-name="kcommaaccent" unicode="&#x137;" horiz-adv-x="674" 
d="M605 622q32 0 46.5 -16.5t12.5 -42.5q-2 -23 -16.5 -43.5t-41.5 -20.5q-21 0 -30.5 12.5t-8.5 30.5q2 30 32 59h-3q-19 0 -36 -14q-16 -15 -30 -48t-26 -67.5t-28.5 -68.5t-45 -58t-67.5 -29q57 -12 84 -46t23 -104l-2 -86q-1 -18 9 -28.5t24 -10.5q25 0 42.5 18.5
t31.5 59.5l17 51h20l-26 -77q-36 -107 -122 -107q-47 0 -68 30t-16 86l6 74q3 32 -1 59.5t-15 46.5t-26 26q-96 -25 -96 8q0 32 94 9q51 5 84.5 41t46 78t31 89t41.5 66q29 23 60 23zM227 20l-4 -20q-46 3 -127 3q-84 0 -127 -3l5 20q51 2 69 17t32 69l105 396
q13 55 2.5 69.5t-61.5 16.5l5 20q40 -3 127 -3q80 0 128 3l-5 -20q-52 -2 -70.5 -17t-32.5 -69l-105 -396q-14 -55 -3.5 -69.5t62.5 -16.5zM260 -69q17 0 29.5 -7.5t19 -20.5t6.5 -30q0 -37 -21 -66t-77 -48l-7 17q17 5 32.5 13.5t28 22t13.5 28.5q-18 -16 -44 -16
q-20 0 -32.5 11t-12.5 31q0 24 18 44.5t47 20.5z" />
    <glyph glyph-name="kgreenlandic" unicode="&#x138;" horiz-adv-x="558" 
d="M463 528q32 0 46.5 -16.5t12.5 -42.5q-1 -14 -6.5 -27.5t-19 -25t-32.5 -11.5q-21 0 -30.5 12.5t-8.5 30.5q2 30 32 59h-2q-18 0 -37 -14q-16 -13 -29.5 -40t-25 -55t-26.5 -56t-40.5 -50t-60.5 -30q33 -2 59 -9t47 -21t30.5 -39t4.5 -59l-10 -70q-3 -23 1 -32t19 -9
q20 0 37.5 23.5t36.5 78.5l12 37h19l-24 -73q-33 -103 -119 -103q-74 0 -61 95l8 56q9 59 -13.5 85t-97.5 33l-64 -255h-87l120 429q18 62 -14 62q-22 0 -40.5 -23.5t-37.5 -78.5l-13 -37h-19l25 73q36 103 121 103q25 0 39 -10t16.5 -30t-0.5 -43t-12 -57l-30 -120
q45 4 76 23.5t48 48.5t28.5 58.5t27 60t34.5 46.5q31 23 60 23z" />
    <glyph glyph-name="Lacute" unicode="&#x139;" horiz-adv-x="586" 
d="M269 783q55 37 114.5 83t81.5 59q18 11 36.5 11.5t29.5 -16.5q6 -14 -4.5 -29t-28.5 -25q-21 -12 -91.5 -38.5t-130.5 -55.5zM535 210q-7 -19 -25 -82q-16 -56 -27 -128q-68 3 -229 3q-192 0 -289 -3l5 20q52 2 70 17t33 69l133 496q14 55 3.5 69.5t-61.5 16.5l5 20
q42 -3 128 -3q81 0 127 3l-5 -20q-52 -2 -70.5 -17t-33.5 -69l-133 -496q-14 -55 -3.5 -69t62.5 -14h73q90 0 132 39t82 148h23z" />
    <glyph glyph-name="lacute" unicode="&#x13a;" horiz-adv-x="594" 
d="M183 683q44 30 84 60.5t66.5 50t45.5 31.5q11 7 23.5 10t25 0t17.5 -15q6 -14 -4.5 -29t-28.5 -25q-21 -12 -91.5 -38.5t-130.5 -55.5zM537 210q-23 -68 -28 -92q-11 -37 -25 -118q-70 3 -238 3q-185 0 -280 -3l5 20q52 2 70.5 17t32.5 69l107 396q13 55 3 69.5t-61 16.5
l5 20q40 -3 127 -3q80 0 128 3l-5 -20q-37 -2 -54.5 -8t-28.5 -23t-21 -55l-107 -396q-14 -55 -3.5 -69t62.5 -14h63q76 0 132 43.5t93 143.5h23z" />
    <glyph glyph-name="Lcommaaccent" unicode="&#x13b;" horiz-adv-x="586" 
d="M535 210q-7 -19 -25 -82q-16 -56 -27 -128q-68 3 -229 3q-192 0 -289 -3l5 20q52 2 70 17t33 69l133 496q14 55 3.5 69.5t-61.5 16.5l5 20q42 -3 128 -3q81 0 127 3l-5 -20q-52 -2 -70.5 -17t-33.5 -69l-133 -496q-14 -55 -3.5 -69t62.5 -14h73q90 0 132 39t82 148h23z
M241 -69q26 0 40.5 -16.5t14.5 -41.5q0 -81 -98 -114l-7 17q27 8 49.5 25t24.5 39q-18 -16 -44 -16q-20 0 -32.5 11t-12.5 31q0 24 18 44.5t47 20.5z" />
    <glyph glyph-name="lcommaaccent" unicode="&#x13c;" horiz-adv-x="594" 
d="M537 210q-23 -68 -28 -92q-11 -37 -25 -118q-70 3 -238 3q-185 0 -280 -3l5 20q52 2 70.5 17t32.5 69l107 396q13 55 3 69.5t-61 16.5l5 20q40 -3 127 -3q80 0 128 3l-5 -20q-37 -2 -54.5 -8t-28.5 -23t-21 -55l-107 -396q-14 -55 -3.5 -69t62.5 -14h63q76 0 132 43.5
t93 143.5h23zM239 -69q17 0 29.5 -7.5t19 -20.5t6.5 -30q0 -24 -7 -43t-29.5 -38.5t-61.5 -32.5l-7 17q27 8 49.5 25t24.5 39q-18 -16 -44 -16q-20 0 -32.5 11t-12.5 31q0 24 18 44.5t47 20.5z" />
    <glyph glyph-name="Lcaron" unicode="&#x13d;" horiz-adv-x="586" 
d="M414 485q71 127 71 183q0 19 -33 19l3 21q8 0 21.5 -0.5t19.5 -0.5q35 0 73 12q1 -2 1 -8q0 -75 -142 -230zM535 210q-7 -19 -25 -82q-16 -56 -27 -128q-68 3 -229 3q-192 0 -289 -3l5 20q52 2 70 17t33 69l133 496q14 55 3.5 69.5t-61.5 16.5l5 20q42 -3 128 -3
q81 0 127 3l-5 -20q-52 -2 -70.5 -17t-33.5 -69l-133 -496q-14 -55 -3.5 -69t62.5 -14h73q90 0 132 39t82 148h23z" />
    <glyph glyph-name="lcaron" unicode="&#x13e;" horiz-adv-x="594" 
d="M385 375q21 46 35.5 87.5t20 66.5t5.5 39q0 19 -13 19l3 21q4 0 11 -0.5t10 -0.5q35 0 73 12q1 -2 1 -8q0 -79 -132 -240zM537 210q-23 -68 -28 -92q-11 -37 -25 -118q-70 3 -238 3q-185 0 -280 -3l5 20q52 2 70.5 17t32.5 69l107 396q13 55 3 69.5t-61 16.5l5 20
q40 -3 127 -3q80 0 128 3l-5 -20q-37 -2 -54.5 -8t-28.5 -23t-21 -55l-107 -396q-14 -55 -3.5 -69t62.5 -14h63q76 0 132 43.5t93 143.5h23z" />
    <glyph glyph-name="Ldot" unicode="&#x13f;" horiz-adv-x="597" 
d="M535 210q-7 -19 -25 -82q-16 -56 -27 -128q-68 3 -229 3q-192 0 -289 -3l5 20q52 2 70 17t33 69l133 496q14 55 3.5 69.5t-61.5 16.5l5 20q42 -3 128 -3q81 0 127 3l-5 -20q-52 -2 -70.5 -17t-33.5 -69l-133 -496q-14 -55 -3.5 -69t62.5 -14h73q90 0 132 39t82 148h23z
M459 355q5 26 26.5 45t46.5 19q26 0 40.5 -18.5t9.5 -45.5t-26.5 -45.5t-47.5 -18.5q-25 0 -39.5 19t-9.5 45z" />
    <glyph glyph-name="ldot" unicode="&#x140;" horiz-adv-x="594" 
d="M537 210q-23 -68 -28 -92q-11 -37 -25 -118q-70 3 -238 3q-185 0 -280 -3l5 20q52 2 70.5 17t32.5 69l107 396q13 55 3 69.5t-61 16.5l5 20q40 -3 127 -3q80 0 128 3l-5 -20q-37 -2 -54.5 -8t-28.5 -23t-21 -55l-107 -396q-14 -55 -3.5 -69t62.5 -14h63q76 0 132 43.5
t93 143.5h23zM460 340q5 26 26.5 45t46.5 19q26 0 40.5 -18.5t9.5 -45.5t-26.5 -45.5t-47.5 -18.5q-17 0 -29.5 8.5t-17.5 23.5t-2 32z" />
    <glyph glyph-name="Lslash" unicode="&#x141;" horiz-adv-x="587" 
d="M514 210h23q-7 -19 -25 -82q-16 -56 -27 -128q-68 3 -229 3q-192 0 -289 -3l5 20q52 2 70 17t33 69l42 155l-102 -51l6 23l102 51l85 318q14 55 3.5 69.5t-61.5 16.5l5 20q42 -3 128 -3q81 0 127 3l-5 -20q-52 -2 -70.5 -17t-33.5 -69l-74 -274l289 145l-6 -23l-289 -145
l-53 -199q-14 -55 -3.5 -69t62.5 -14h73q90 0 132 39t82 148z" />
    <glyph glyph-name="lslash" unicode="&#x142;" horiz-adv-x="596" 
d="M516 210h23q-23 -68 -28 -92q-11 -37 -25 -118q-70 3 -238 3q-185 0 -280 -3l5 20q52 2 70.5 17t32.5 69l30 111l-98 -49l6 23l98 49l71 262q13 55 3 69.5t-61 16.5l5 20q40 -3 127 -3q80 0 128 3l-5 -20q-53 -2 -71.5 -17t-32.5 -69l-59 -218l292 147l-6 -23l-292 -147
l-42 -155q-14 -55 -3.5 -69t62.5 -14h63q76 0 132 43.5t93 143.5z" />
    <glyph glyph-name="Nacute" unicode="&#x143;" horiz-adv-x="770" 
d="M735 866q-21 -12 -91.5 -38.5t-130.5 -55.5l-7 11q55 37 114.5 83t81.5 59q18 11 36.5 11.5t29.5 -16.5q6 -14 -4.5 -29t-28.5 -25zM812 754q60 0 60 -51q0 -27 -16 -49.5t-43 -22.5q-38 0 -38 39q0 33 32 63h-3q-49 -1 -82 -51q-44 -66 -92 -232.5t-109 -454.5h-22
l-228 644q-109 -561 -176 -650q-47 -63 -107 -63t-60 52q0 27 16 49t43 22q38 0 38 -39q0 -33 -32 -63h3q51 1 83 52q67 105 164 603q11 55 -1 69.5t-70 16.5l5 20q32 -3 89 -3q46 0 81 3l189 -553q96 430 168 535q44 64 108 64z" />
    <glyph glyph-name="nacute" unicode="&#x144;" horiz-adv-x="797" 
d="M667 766q-21 -12 -91.5 -38.5t-130.5 -55.5l-7 11q44 30 84 60.5t66.5 50t45.5 31.5q11 7 23.5 10t25 0t17.5 -15q6 -14 -4.5 -29t-28.5 -25zM811 654q60 0 60 -51q0 -27 -16 -49.5t-43 -22.5q-20 0 -29 11.5t-9 27.5q0 35 32 63h-3q-46 -1 -82 -51q-88 -123 -201 -587
h-22l-228 548q-107 -468 -176 -554q-16 -19 -27.5 -30.5t-33 -22t-46.5 -10.5q-60 0 -60 52q0 27 16 49t43 22q14 0 23 -6.5t12 -14.5t3 -18q0 -33 -32 -63h2q48 1 84 52q72 107 170 541q2 28 -13.5 37t-63.5 11l5 20q31 -3 89 -3q47 0 81 3l190 -471q96 360 167 453
q48 64 108 64z" />
    <glyph glyph-name="Ncommaaccent" unicode="&#x145;" horiz-adv-x="770" 
d="M812 754q60 0 60 -51q0 -27 -16 -49.5t-43 -22.5q-38 0 -38 39q0 33 32 63h-3q-49 -1 -82 -51q-44 -66 -92 -232.5t-109 -454.5h-22l-228 644q-109 -561 -176 -650q-47 -63 -107 -63t-60 52q0 27 16 49t43 22q38 0 38 -39q0 -33 -32 -63h3q51 1 83 52q67 105 164 603
q11 55 -1 69.5t-70 16.5l5 20q32 -3 89 -3q46 0 81 3l189 -553q96 430 168 535q44 64 108 64zM272 -69q26 0 40.5 -16.5t14.5 -41.5q0 -81 -98 -114l-7 17q27 8 49.5 25t24.5 39q-18 -16 -44 -16q-20 0 -32.5 11t-12.5 31q0 24 18 44.5t47 20.5z" />
    <glyph glyph-name="ncommaaccent" unicode="&#x146;" horiz-adv-x="797" 
d="M811 654q60 0 60 -51q0 -27 -16 -49.5t-43 -22.5q-20 0 -29 11.5t-9 27.5q0 35 32 63h-3q-46 -1 -82 -51q-88 -123 -201 -587h-22l-228 548q-107 -468 -176 -554q-16 -19 -27.5 -30.5t-33 -22t-46.5 -10.5q-60 0 -60 52q0 27 16 49t43 22q14 0 23 -6.5t12 -14.5t3 -18
q0 -33 -32 -63h2q48 1 84 52q72 107 170 541q2 28 -13.5 37t-63.5 11l5 20q31 -3 89 -3q47 0 81 3l190 -471q96 360 167 453q48 64 108 64zM279 -69q26 0 40.5 -16.5t14.5 -41.5q0 -24 -7 -43t-29.5 -38.5t-61.5 -32.5l-7 17q27 8 49.5 25t24.5 39q-18 -16 -44 -16
q-20 0 -32.5 11t-12.5 31q0 24 18 44.5t47 20.5z" />
    <glyph glyph-name="Ncaron" unicode="&#x147;" horiz-adv-x="770" 
d="M511 780q-57 98 -139 130l4 14q19 -4 35.5 -7.5t31.5 -9t25 -9t24.5 -10.5t20 -9.5t21 -11.5t19.5 -11q111 47 206 68l5 -14q-152 -47 -235 -130h-18zM812 754q60 0 60 -51q0 -27 -16 -49.5t-43 -22.5q-38 0 -38 39q0 33 32 63h-3q-49 -1 -82 -51q-44 -66 -92 -232.5
t-109 -454.5h-22l-228 644q-109 -561 -176 -650q-47 -63 -107 -63t-60 52q0 27 16 49t43 22q38 0 38 -39q0 -33 -32 -63h3q51 1 83 52q67 105 164 603q11 55 -1 69.5t-70 16.5l5 20q32 -3 89 -3q46 0 81 3l189 -553q96 430 168 535q44 64 108 64z" />
    <glyph glyph-name="ncaron" unicode="&#x148;" horiz-adv-x="797" 
d="M503 680q-28 48 -59.5 79.5t-79.5 50.5l4 14q19 -4 35.5 -7.5t31.5 -9t25 -9t24.5 -10.5t19.5 -9.5t21 -11.5t20 -11q111 47 206 68l5 -14q-72 -22 -134 -56.5t-101 -73.5h-18zM811 654q60 0 60 -51q0 -27 -16 -49.5t-43 -22.5q-20 0 -29 11.5t-9 27.5q0 35 32 63h-3
q-46 -1 -82 -51q-88 -123 -201 -587h-22l-228 548q-107 -468 -176 -554q-16 -19 -27.5 -30.5t-33 -22t-46.5 -10.5q-60 0 -60 52q0 27 16 49t43 22q14 0 23 -6.5t12 -14.5t3 -18q0 -33 -32 -63h2q48 1 84 52q72 107 170 541q2 28 -13.5 37t-63.5 11l5 20q31 -3 89 -3
q47 0 81 3l190 -471q96 360 167 453q48 64 108 64z" />
    <glyph glyph-name="Eng" unicode="&#x14a;" horiz-adv-x="701" 
d="M680 705q60 0 94 3l-5 -20q-51 -2 -70.5 -21t-34.5 -75l-139 -525q-29 -130 -78 -192.5t-121 -62.5q-36 0 -62.5 14t-27.5 41q-1 23 15.5 41t39.5 18q18 0 29.5 -11.5t12.5 -28.5q1 -33 -40 -53q15 -5 35 -5q36 0 67 23t52 59t37 85l-243 658l-141 -537
q-15 -55 -2.5 -74.5t69.5 -21.5l-5 -20q-34 3 -101 3q-60 0 -94 -3l5 20q51 2 70.5 21t34.5 75l129 486q13 55 2.5 69.5t-61.5 16.5l5 20q31 -3 89 -3q46 0 81 3l202 -562l117 446q15 55 2.5 74.5t-69.5 21.5l5 20q34 -3 101 -3z" />
    <glyph glyph-name="eng" unicode="&#x14b;" horiz-adv-x="705" 
d="M657 605q61 0 94 3l-5 -20q-51 -2 -72 -21t-35 -75l-112 -425q-29 -130 -78 -192.5t-121 -62.5q-36 0 -62.5 14t-27.5 41q-1 15 6.5 29t20.5 22t28 8q18 0 29.5 -11.5t12.5 -28.5q1 -33 -40 -53q15 -5 35 -5q102 0 156 168l-270 557l-115 -437q-15 -55 -3 -74.5t69 -21.5
l-5 -20q-36 3 -101 3q-61 0 -94 -3l5 20q51 2 71.5 21t35.5 75l102 386q13 55 2.5 69.5t-61.5 16.5l5 20q31 -3 89 -3q42 0 76 3l230 -482l95 366q15 55 3 74.5t-69 21.5l5 20q36 -3 101 -3z" />
    <glyph glyph-name="Omacron" unicode="&#x14c;" horiz-adv-x="729" 
d="M676 844l-6 -25h-352l6 25h352zM54 226q0 84 30.5 171t83 159.5t132.5 119t171 46.5q112 0 174 -63t62 -178q0 -83 -30.5 -170t-83.5 -159.5t-133.5 -119t-170.5 -46.5q-111 0 -173 63t-62 177zM462 704q-75 0 -146 -72t-113.5 -186.5t-42.5 -232.5q0 -97 38 -153
t100 -56q75 0 146 72t113.5 186.5t42.5 232.5q0 97 -38 153t-100 56z" />
    <glyph glyph-name="omacron" unicode="&#x14d;" horiz-adv-x="732" 
d="M648 744l-6 -25h-352l6 25h352zM292 -14q-112 0 -179 61t-67 180q0 91 48.5 180.5t142 152t207.5 62.5q112 0 179 -61t67 -180q0 -53 -18 -109t-53.5 -107t-83 -91t-111 -64t-132.5 -24zM435 604q-79 0 -145 -58t-101.5 -147.5t-35.5 -185.5q0 -108 39.5 -158.5
t108.5 -50.5q79 0 145 58t101.5 147.5t35.5 185.5q0 209 -148 209z" />
    <glyph glyph-name="Obreve" unicode="&#x14e;" horiz-adv-x="729" 
d="M518 849q123 0 221 58l10 -11q-43 -43 -116 -78.5t-132 -35.5q-62 0 -101 32.5t-50 83.5l16 5q26 -30 61 -42t91 -12zM54 226q0 84 30.5 171t83 159.5t132.5 119t171 46.5q112 0 174 -63t62 -178q0 -83 -30.5 -170t-83.5 -159.5t-133.5 -119t-170.5 -46.5q-111 0 -173 63
t-62 177zM462 704q-75 0 -146 -72t-113.5 -186.5t-42.5 -232.5q0 -97 38 -153t100 -56q75 0 146 72t113.5 186.5t42.5 232.5q0 97 -38 153t-100 56z" />
    <glyph glyph-name="obreve" unicode="&#x14f;" horiz-adv-x="732" 
d="M467 749q35 0 73.5 6.5t77.5 20t70 31.5l10 -11q-43 -43 -116 -78.5t-132 -35.5q-42 0 -74 16t-51 41.5t-26 58.5l16 5q26 -30 61 -42t91 -12zM292 -14q-112 0 -179 61t-67 180q0 67 29 136.5t79.5 127.5t127 94.5t162.5 36.5q112 0 179 -61t67 -180q0 -67 -29 -136.5
t-79.5 -127.5t-127 -94.5t-162.5 -36.5zM435 604q-79 0 -145 -58t-101.5 -147.5t-35.5 -185.5q0 -108 39.5 -158.5t108.5 -50.5q79 0 145 58t101.5 147.5t35.5 185.5q0 73 -19.5 121t-51.5 68t-77 20z" />
    <glyph glyph-name="Ohungarumlaut" unicode="&#x150;" horiz-adv-x="729" 
d="M548 784q30 23 80 72t74 66q9 6 19 10.5t22.5 3t19.5 -11.5q19 -27 -28 -61q-25 -17 -87.5 -45t-93.5 -46zM361 784q30 23 80 72t74 66q15 11 31.5 13.5t30.5 -13.5q14 -28 -29 -59q-25 -17 -87.5 -45t-93.5 -46zM54 226q0 84 30.5 171t83 159.5t132.5 119t171 46.5
q112 0 174 -63t62 -178q0 -83 -30.5 -170t-83.5 -159.5t-133.5 -119t-170.5 -46.5q-111 0 -173 63t-62 177zM462 704q-75 0 -146 -72t-113.5 -186.5t-42.5 -232.5q0 -97 38 -153t100 -56q75 0 146 72t113.5 186.5t42.5 232.5q0 97 -38 153t-100 56z" />
    <glyph glyph-name="ohungarumlaut" unicode="&#x151;" horiz-adv-x="732" 
d="M518 684q30 23 80 72t74 66q9 6 19 10.5t22.5 3t19.5 -11.5q10 -14 0.5 -30.5t-28.5 -30.5q-25 -17 -87.5 -45t-93.5 -46zM331 684q30 23 80 72t74 66q9 7 20 11t23 2t19 -13q14 -28 -29 -59q-25 -17 -87.5 -45t-93.5 -46zM292 -14q-112 0 -179 61t-67 180q0 67 29 136.5
t79.5 127.5t127 94.5t162.5 36.5q112 0 179 -61t67 -180q0 -53 -18 -109t-53.5 -107t-83 -91t-111 -64t-132.5 -24zM435 604q-79 0 -145 -58t-101.5 -147.5t-35.5 -185.5q0 -108 39.5 -158.5t108.5 -50.5q79 0 145 58t101.5 147.5t35.5 185.5q0 55 -10.5 96t-31 65.5
t-46.5 36t-60 11.5z" />
    <glyph glyph-name="OE" unicode="&#x152;" horiz-adv-x="956" 
d="M806 705q130 0 187 3q-10 -27 -38 -118q-13 -35 -13 -62h-22q16 88 -2.5 122.5t-78.5 34.5h-83q-50 0 -68 -14.5t-32 -68.5l-63 -236h98q17 0 31.5 6.5t24 15.5t19 26.5t14.5 29t14 34.5h22q-10 -32 -34 -122q-14 -52 -26 -122h-22q0 10 2.5 28.5t2.5 30t-3 24.5
t-15.5 20.5t-33.5 8.5h-99l-64 -240q-14 -55 -3.5 -69t60.5 -14h93q71 0 108 38t71 139h22q-4 -8 -7 -19t-7 -27.5t-7 -25.5q-19 -67 -26 -128q-65 3 -216 3q-150 0 -239 -2q-52 -15 -102 -15q-102 0 -158.5 62.5t-56.5 177.5q0 66 18 136t53 134t82 115t110.5 81t133.5 30
q57 0 101 -15q93 -2 252 -2zM431 106l132 496q4 23 5.5 39t-6 27.5t-16 18.5t-24 10.5t-30.5 5t-36 1.5q-76 0 -145 -72t-109 -186t-40 -233q0 -97 32.5 -153t85.5 -56q66 0 101 22t50 80z" />
    <glyph glyph-name="oe" unicode="&#x153;" horiz-adv-x="931" 
d="M747 605q130 0 187 3q-25 -66 -38 -118q-5 -22 -13 -62h-22q16 88 -2.5 122.5t-78.5 34.5h-73q-50 0 -68 -14.5t-32 -68.5l-50 -186h85q17 0 31.5 6.5t24 15.5t19 26.5t14.5 29t14 34.5h22q-10 -32 -34 -122q-14 -52 -26 -122h-22q0 10 2.5 28.5t2.5 30t-3 24.5
t-15.5 20.5t-33.5 8.5h-86l-51 -190q-14 -55 -3.5 -69t60.5 -14h83q71 0 108 38t71 139h22q-4 -8 -7 -19t-7 -27.5t-7 -25.5q-19 -67 -26 -128q-62 3 -206 3q-155 0 -245 -2q-52 -15 -98 -15q-96 0 -149 54.5t-53 155.5q0 49 12 100t34 98t55.5 88.5t74 72.5t92 49t107.5 18
q32 0 80 -14q132 -3 248 -3zM408 106l106 396q7 30 4.5 49.5t-18 31t-36 16.5t-49.5 5q-71 0 -135 -68t-100 -166.5t-36 -193.5q0 -83 29.5 -127.5t81.5 -44.5q127 0 153 102z" />
    <glyph glyph-name="Racute" unicode="&#x154;" horiz-adv-x="664" 
d="M654 920q6 -14 -4.5 -29t-28.5 -25q-21 -12 -91.5 -38.5t-130.5 -55.5l-7 11q55 37 114.5 83t81.5 59q18 11 36.5 11.5t29.5 -16.5zM620 566q0 -82 -71 -142t-190 -80q13 -1 35 -5q64 -12 89.5 -40t20.5 -92l-8 -102q-3 -36 4 -59.5t28 -22.5q17 1 30.5 21t28.5 63l5 14
h23l-4 -13q-18 -63 -45.5 -92.5t-73.5 -29.5q-47 0 -70 28t-20 68l8 112q3 43 -1.5 67t-24 42.5t-56.5 25.5t-101 7l-61 -230q-16 -46 -5.5 -65.5t64.5 -20.5l-4 -20q-47 3 -124 3q-88 0 -130 -3l4 20q52 2 70.5 17t32.5 69l132 496q15 47 4 66t-63 20l5 20q40 -3 123 -3
q24 0 72.5 1t73.5 1q98 0 148.5 -37.5t50.5 -103.5zM263 356q135 0 195.5 59t60.5 157q0 59 -30 87.5t-97 28.5q-44 0 -62 -17t-32 -69l-65 -246h30z" />
    <glyph glyph-name="racute" unicode="&#x155;" horiz-adv-x="647" 
d="M535 766q-21 -12 -91.5 -38.5t-130.5 -55.5l-7 11q55 37 114.5 83t81.5 59q18 11 36.5 11.5t29.5 -16.5q6 -14 -4.5 -29t-28.5 -25zM562 107l5 14h23l-4 -13q-18 -62 -47.5 -92t-75.5 -30t-67 27.5t-18 68.5l4 63q2 39 -2 62.5t-19.5 41.5t-46 26.5t-80.5 10.5h-6h-13
l-48 -180q-8 -30 -8.5 -48t14.5 -27t53 -11l-4 -20q-46 3 -124 3q-88 0 -130 -3l4 20q52 2 70.5 17t32.5 69l106 396q14 44 3.5 63.5t-62.5 22.5l5 20q40 -3 123 -3q24 0 72.5 1t73.5 1q98 0 148.5 -32.5t50.5 -88.5q0 -75 -68 -125.5t-186 -67.5l21 -3q63 -12 89.5 -40.5
t22.5 -91.5l-3 -53q-3 -42 3.5 -62.5t28.5 -19.5q17 1 30.5 21t28.5 63zM273 502l-52 -196h17q141 0 198.5 43t57.5 143q0 24 -7 42t-22.5 30t-39.5 18t-58 6q-44 0 -62 -17t-32 -69z" />
    <glyph glyph-name="Rcommaaccent" unicode="&#x156;" horiz-adv-x="664" 
d="M587 107l5 14h23l-4 -13q-18 -63 -45.5 -92.5t-73.5 -29.5q-47 0 -70 28t-20 68l8 112q3 43 -1.5 67t-24 42.5t-56.5 25.5t-101 7l-61 -230q-16 -46 -5.5 -65.5t64.5 -20.5l-4 -20q-47 3 -124 3q-88 0 -130 -3l4 20q52 2 70.5 17t32.5 69l132 496q15 47 4 66t-63 20l5 20
q40 -3 123 -3q24 0 72.5 1t73.5 1q98 0 148.5 -37.5t50.5 -103.5q0 -82 -71 -142t-190 -80q13 -1 35 -5q64 -12 89.5 -40t20.5 -92l-8 -102q-3 -36 4 -59.5t28 -22.5q17 1 30.5 21t28.5 63zM298 602l-65 -246h30q135 0 195.5 59t60.5 157q0 59 -30 87.5t-97 28.5
q-44 0 -62 -17t-32 -69zM276 -69q26 0 40.5 -16.5t14.5 -41.5q0 -81 -98 -114l-7 17q27 8 49.5 25t24.5 39q-18 -16 -44 -16q-20 0 -32.5 11t-12.5 31q0 24 18 44.5t47 20.5z" />
    <glyph glyph-name="rcommaaccent" unicode="&#x157;" horiz-adv-x="647" 
d="M562 107l5 14h23l-4 -13q-18 -62 -47.5 -92t-75.5 -30t-67 27.5t-18 68.5l4 63q2 39 -2 62.5t-19.5 41.5t-46 26.5t-80.5 10.5h-6h-13l-48 -180q-8 -30 -8.5 -48t14.5 -27t53 -11l-4 -20q-46 3 -124 3q-88 0 -130 -3l4 20q52 2 70.5 17t32.5 69l106 396q14 44 3.5 63.5
t-62.5 22.5l5 20q40 -3 123 -3q24 0 72.5 1t73.5 1q98 0 148.5 -32.5t50.5 -88.5q0 -75 -68 -125.5t-186 -67.5l21 -3q63 -12 89.5 -40.5t22.5 -91.5l-3 -53q-3 -42 3.5 -62.5t28.5 -19.5q17 1 30.5 21t28.5 63zM273 502l-52 -196h17q141 0 198.5 43t57.5 143q0 24 -7 42
t-22.5 30t-39.5 18t-58 6q-44 0 -62 -17t-32 -69zM261 -69q17 0 29.5 -7.5t19 -20.5t6.5 -30q0 -24 -7 -43t-29.5 -38.5t-61.5 -32.5l-7 17q27 8 49.5 25t24.5 39q-18 -16 -44 -16q-20 0 -32.5 11t-12.5 31q0 24 18 44.5t47 20.5z" />
    <glyph glyph-name="Rcaron" unicode="&#x158;" horiz-adv-x="664" 
d="M397 780q-57 98 -139 130l4 14q19 -4 35.5 -7.5t31.5 -9t25 -9t24.5 -10.5t20 -9.5t21 -11.5t19.5 -11q111 47 206 68l5 -14q-152 -47 -235 -130h-18zM620 566q0 -82 -71 -142t-190 -80q13 -1 35 -5q64 -12 89.5 -40t20.5 -92l-8 -102q-3 -36 4 -59.5t28 -22.5
q17 1 30.5 21t28.5 63l5 14h23l-4 -13q-18 -63 -45.5 -92.5t-73.5 -29.5q-47 0 -70 28t-20 68l8 112q3 43 -1.5 67t-24 42.5t-56.5 25.5t-101 7l-61 -230q-16 -46 -5.5 -65.5t64.5 -20.5l-4 -20q-47 3 -124 3q-88 0 -130 -3l4 20q52 2 70.5 17t32.5 69l132 496q15 47 4 66
t-63 20l5 20q40 -3 123 -3q24 0 72.5 1t73.5 1q98 0 148.5 -37.5t50.5 -103.5zM263 356q135 0 195.5 59t60.5 157q0 59 -30 87.5t-97 28.5q-44 0 -62 -17t-32 -69l-65 -246h30z" />
    <glyph glyph-name="rcaron" unicode="&#x159;" horiz-adv-x="647" 
d="M371 680q-28 48 -59.5 79.5t-79.5 50.5l4 14q19 -4 35.5 -7.5t31.5 -9t25 -9t24.5 -10.5t20 -9.5t21 -11.5t19.5 -11q111 47 206 68l5 -14q-72 -22 -134 -56.5t-101 -73.5h-18zM595 486q0 -50 -31.5 -90t-88 -66t-134.5 -37l21 -3q63 -12 89.5 -40.5t22.5 -91.5l-3 -53
q-3 -42 3.5 -62.5t28.5 -19.5q17 1 30.5 21t28.5 63l5 14h23l-4 -13q-18 -62 -47.5 -92t-75.5 -30t-67 27.5t-18 68.5l4 63q2 39 -2 62.5t-19.5 41.5t-46 26.5t-80.5 10.5h-6h-13l-48 -180q-8 -30 -8.5 -48t14.5 -27t53 -11l-4 -20q-46 3 -124 3q-88 0 -130 -3l4 20
q52 2 70.5 17t32.5 69l106 396q14 44 3.5 63.5t-62.5 22.5l5 20q40 -3 123 -3q24 0 72.5 1t73.5 1q98 0 148.5 -32.5t50.5 -88.5zM238 306q141 0 198.5 43t57.5 143q0 24 -7 42t-22.5 30t-39.5 18t-58 6q-44 0 -62 -17t-32 -69l-52 -196h17z" />
    <glyph glyph-name="Sacute" unicode="&#x15a;" horiz-adv-x="554" 
d="M372 783q55 37 114.5 83t81.5 59q18 11 36.5 11.5t29.5 -16.5q6 -14 -4.5 -29t-28.5 -25q-21 -12 -91.5 -38.5t-130.5 -55.5zM576 715q-36 -91 -59 -204h-20q6 29 6 57q0 59 -35 97t-107 38q-63 0 -101.5 -32t-38.5 -95q0 -41 26 -82t63.5 -75t74.5 -69t63 -78.5
t26 -89.5q0 -65 -40 -111t-95.5 -65.5t-117.5 -19.5q-84 0 -142 46q-19 15 -36 15q-12 0 -20 -12t-21 -42h-20q33 80 68 240h20q-10 -55 -9 -81q6 -146 163 -146q68 0 107.5 31t39.5 94q0 46 -24 87t-57.5 72.5t-67.5 64.5t-58 77t-24 95q0 91 65.5 143t154.5 52
q75 0 130 -42q24 -18 33 -18q14 0 33 53h20z" />
    <glyph glyph-name="sacute" unicode="&#x15b;" horiz-adv-x="563" 
d="M300 683q55 37 114.5 83t81.5 59q11 7 23.5 10t25 0t17.5 -15q4 -10 -0.5 -21t-13 -19t-19.5 -14q-21 -12 -91.5 -38.5t-130.5 -55.5zM556 615q-36 -91 -59 -204h-20q6 28 6 56q0 60 -35 98t-109 38q-40 0 -70.5 -11t-49 -35.5t-18.5 -59.5q0 -48 32 -81.5t98 -76.5
q31 -20 45 -29.5t37 -29t33.5 -35t19.5 -38t9 -47.5t-8 -47.5t-22 -40t-33 -32t-41.5 -24.5t-47.5 -17t-50 -10t-50 -3q-37 0 -67.5 8t-44 16.5t-31.5 21.5q-19 15 -35 15q-13 0 -21 -11.5t-21 -42.5h-20q33 80 68 240h20q-10 -55 -9 -81q5 -146 165 -146q33 0 59 6.5
t45.5 19t30 33t10.5 48.5q0 26 -9 48.5t-27.5 42.5t-35 33t-44.5 32q-3 2 -8 5l-28.5 19.5t-25.5 19.5t-24.5 21.5t-19.5 22.5t-16.5 26.5t-9.5 29t-4 34.5q0 55 32.5 96t82.5 60t108 19q41 0 69 -10t58 -32q25 -18 33 -18q14 0 33 53h20z" />
    <glyph glyph-name="Scircumflex" unicode="&#x15c;" horiz-adv-x="554" 
d="M398 840q-111 -47 -206 -68l-5 14q152 47 235 130h18q57 -98 139 -130l-4 -14q-19 4 -35.5 7.5t-31.5 9t-25 9t-24.5 10.5t-20 9.5t-21 11.5t-19.5 11zM576 715q-36 -91 -59 -204h-20q6 29 6 57q0 59 -35 97t-107 38q-63 0 -101.5 -32t-38.5 -95q0 -41 26 -82t63.5 -75
t74.5 -69t63 -78.5t26 -89.5q0 -65 -40 -111t-95.5 -65.5t-117.5 -19.5q-84 0 -142 46q-19 15 -36 15q-12 0 -20 -12t-21 -42h-20q33 80 68 240h20q-10 -55 -9 -81q6 -146 163 -146q68 0 107.5 31t39.5 94q0 46 -24 87t-57.5 72.5t-67.5 64.5t-58 77t-24 95q0 91 65.5 143
t154.5 52q75 0 130 -42q24 -18 33 -18q14 0 33 53h20z" />
    <glyph glyph-name="scircumflex" unicode="&#x15d;" horiz-adv-x="563" 
d="M388 740q-111 -47 -206 -68l-5 14q152 47 235 130h18q28 -48 59.5 -79.5t79.5 -50.5l-4 -14q-19 4 -35.5 7.5t-31.5 9t-25 9t-24.5 10.5t-20 9.5t-21 11.5t-19.5 11zM556 615q-36 -91 -59 -204h-20q6 29 6 56q0 60 -35 98t-109 38q-40 0 -70.5 -11t-49 -35.5t-18.5 -59.5
q0 -26 9.5 -47.5t30 -41.5t39 -34t51.5 -35q26 -17 37.5 -25t32.5 -23.5t31 -27.5t22 -28.5t16.5 -35t4.5 -39.5q0 -22 -6 -42t-17 -36t-26.5 -30t-33.5 -24.5t-38.5 -18.5t-42.5 -13t-44 -7.5t-44 -2.5q-37 0 -67.5 8t-44 16.5t-31.5 21.5q-19 15 -35 15q-13 0 -21 -11.5
t-21 -42.5h-20q33 80 68 240h20q-10 -55 -9 -81q5 -146 165 -146q33 0 59 6.5t45.5 19t30 33t10.5 48.5q0 27 -9 49t-27.5 42t-35 33t-44.5 32q-3 2 -8 5q-26 18 -39.5 27.5t-33.5 27.5t-29.5 33.5t-17.5 37.5t-8 47q0 55 32.5 96t82.5 60t108 19q41 0 69 -10t58 -32
q25 -18 33 -18q14 0 33 53h20z" />
    <glyph glyph-name="Scedilla" unicode="&#x15e;" horiz-adv-x="554" 
d="M556 715h20q-36 -91 -59 -204h-20q6 29 6 57q0 59 -35 97t-107 38q-63 0 -101.5 -32t-38.5 -95q0 -41 26 -82t63.5 -75t74.5 -69t63 -78.5t26 -89.5q0 -65 -40 -111t-95.5 -65.5t-117.5 -19.5h-1l-27 -58q25 7 51 7q53 0 53 -40t-48.5 -61.5t-104.5 -21.5q-66 0 -100 22
l7 15q33 -13 80 -13q33 0 67.5 12.5t34.5 38.5q0 24 -38 24q-20 0 -41 -7l40 83q-66 5 -115 45q-19 15 -36 15q-12 0 -20 -12t-21 -42h-20q33 80 68 240h20q-10 -55 -9 -81q6 -146 163 -146q68 0 107.5 31t39.5 94q0 46 -24 87t-57.5 72.5t-67.5 64.5t-58 77t-24 95
q0 91 65.5 143t154.5 52q75 0 130 -42q24 -18 33 -18q14 0 33 53z" />
    <glyph glyph-name="scedilla" unicode="&#x15f;" horiz-adv-x="563" 
d="M536 615h20q-36 -91 -59 -204h-20q6 28 6 56q0 60 -35 98t-109 38q-40 0 -70.5 -11t-49 -35.5t-18.5 -59.5q0 -48 32 -81.5t98 -76.5q31 -20 45 -29.5t37 -29t33.5 -35t19.5 -38t9 -47.5q0 -43 -22 -77t-58.5 -54.5t-78.5 -31t-86 -11.5l-28 -58q25 7 51 7q25 0 39 -10.5
t14 -29.5q0 -27 -25.5 -47t-59 -28t-68.5 -8q-66 0 -100 22l7 15q32 -13 80 -13q13 0 29 2.5t33 8t28.5 16t11.5 24.5q0 24 -38 24q-20 0 -41 -7l40 83q-68 4 -123 45q-19 15 -35 15q-13 0 -21 -11.5t-21 -42.5h-20q33 80 68 240h20q-10 -55 -9 -81q5 -146 165 -146
q33 0 59 6.5t45.5 19t30 33t10.5 48.5q0 26 -9 48.5t-27.5 42.5t-35 33t-44.5 32q-3 2 -8 5l-28.5 19.5t-25.5 19.5t-24.5 21.5t-19.5 22.5t-16.5 26.5t-9.5 29t-4 34.5q0 55 32.5 96t82.5 60t108 19q41 0 69 -10t58 -32q25 -18 33 -18q14 0 33 53z" />
    <glyph glyph-name="Scaron" unicode="&#x160;" horiz-adv-x="554" 
d="M419 856q111 47 206 68l5 -14q-152 -47 -235 -130h-18q-57 98 -139 130l4 14q19 -4 35.5 -7.5t31.5 -9t25 -9t24.5 -10.5t20 -9.5t21 -11.5t19.5 -11zM576 715q-36 -91 -59 -204h-20q6 29 6 57q0 59 -35 97t-107 38q-63 0 -101.5 -32t-38.5 -95q0 -41 26 -82t63.5 -75
t74.5 -69t63 -78.5t26 -89.5q0 -65 -40 -111t-95.5 -65.5t-117.5 -19.5q-84 0 -142 46q-19 15 -36 15q-12 0 -20 -12t-21 -42h-20q33 80 68 240h20q-10 -55 -9 -81q6 -146 163 -146q68 0 107.5 31t39.5 94q0 46 -24 87t-57.5 72.5t-67.5 64.5t-58 77t-24 95q0 91 65.5 143
t154.5 52q75 0 130 -42q24 -18 33 -18q14 0 33 53h20z" />
    <glyph glyph-name="scaron" unicode="&#x161;" horiz-adv-x="563" 
d="M407 756q111 47 206 68l5 -14q-72 -22 -134 -56.5t-101 -73.5h-18q-28 48 -59.5 79.5t-79.5 50.5l4 14q19 -4 35.5 -7.5t31.5 -9t25 -9t24.5 -10.5t19.5 -9.5t21 -11.5t20 -11zM556 615q-36 -91 -59 -204h-20q6 28 6 56q0 60 -35 98t-109 38q-40 0 -70.5 -11t-49 -35.5
t-18.5 -59.5q0 -48 32 -81.5t98 -76.5q31 -20 45 -29.5t37 -29t33.5 -35t19.5 -38t9 -47.5t-8 -47.5t-22 -40t-33 -32t-41.5 -24.5t-47.5 -17t-50 -10t-50 -3q-37 0 -67.5 8t-44 16t-31.5 22q-19 15 -35 15q-13 0 -21 -11.5t-21 -42.5h-20q33 80 68 240h20q-10 -56 -9 -81
q5 -146 165 -146q33 0 59 6.5t45.5 19t30 33t10.5 48.5q0 26 -9 48.5t-27.5 42.5t-35 33t-44.5 32q-3 2 -8 5l-28.5 19.5t-25.5 19.5t-24.5 21.5t-19.5 22.5t-16.5 26.5t-9.5 29t-4 34.5q0 55 32.5 96t82.5 60t108 19q41 0 69 -10t58 -32q25 -18 33 -18q14 0 33 53h20z" />
    <glyph glyph-name="uni0162" unicode="&#x162;" horiz-adv-x="659" 
d="M768 817q22 0 33.5 -13.5t11.5 -34.5q0 -43 -47 -72q-53 -33 -158 -33q-44 0 -102 7l-148 -555q-16 -58 -2 -76.5t77 -19.5l-4 -20q-48 3 -134 3l-36 -75q25 7 51 7q53 0 53 -40t-48.5 -61.5t-104.5 -21.5q-66 0 -100 22l7 15q33 -13 80 -13q33 0 67.5 12.5t34.5 38.5
q0 24 -38 24q-20 0 -41 -7l48 99q-89 0 -134 -3l4 20q62 2 86 21.5t41 74.5l151 567q-81 11 -129 11q-87 0 -112 -17q18 -25 18 -58q0 -23 -13 -40.5t-37 -17.5q-44 0 -44 50q0 52 53 78q47 23 134 23q60 0 165.5 -14t163.5 -14q86 0 129 22q-25 25 -25 56q0 22 12.5 38.5
t36.5 16.5z" />
    <glyph glyph-name="uni0163" unicode="&#x163;" horiz-adv-x="611" 
d="M686 717q22 0 33.5 -13.5t11.5 -33.5q0 -40 -46 -74q-56 -32 -138 -32q-38 0 -85 5l-131 -453q-17 -56 -2 -75.5t77 -20.5l-4 -20q-48 3 -132 3l-36 -75q25 7 51 7q25 0 39 -10.5t14 -29.5q0 -27 -25.5 -47t-59 -28t-68.5 -8q-66 0 -100 22l7 15q32 -13 80 -13
q13 0 29 2.5t33 8t28.5 16t11.5 24.5q0 24 -38 24q-20 0 -41 -7l48 99q-91 0 -136 -3l4 20q63 2 86.5 20.5t40.5 75.5l135 466q-88 12 -126 12q-64 0 -94 -17q18 -25 18 -58q0 -23 -13 -40.5t-37 -17.5q-14 0 -24 6.5t-15 17.5t-5 26q0 51 52 78q43 23 113 23q56 0 157 -14
t152 -14q66 0 111 22q-25 25 -25 56q0 22 12.5 38.5t36.5 16.5z" />
    <glyph glyph-name="Tcaron" unicode="&#x164;" horiz-adv-x="659" 
d="M460 780q-57 98 -139 130l4 14q19 -4 35.5 -7.5t31.5 -9t25 -9t24.5 -10.5t20 -9.5t21 -11.5t19.5 -11q111 47 206 68l5 -14q-152 -47 -235 -130h-18zM768 817q22 0 33.5 -13.5t11.5 -34.5q0 -43 -47 -72q-53 -33 -158 -33q-44 0 -102 7l-148 -555q-16 -58 -2 -76.5
t77 -19.5l-4 -20q-53 3 -149 3q-98 0 -146 -3l4 20q62 2 86 21.5t41 74.5l151 567q-81 11 -129 11q-87 0 -112 -17q18 -25 18 -58q0 -23 -13 -40.5t-37 -17.5q-44 0 -44 50q0 52 53 78q47 23 134 23q60 0 165.5 -14t163.5 -14q86 0 129 22q-25 25 -25 56q0 22 12.5 38.5
t36.5 16.5z" />
    <glyph glyph-name="tcaron" unicode="&#x165;" horiz-adv-x="611" 
d="M404 680q-28 48 -59.5 79.5t-79.5 50.5l4 14q19 -4 35.5 -7.5t31.5 -9t25 -9t24.5 -10.5t19.5 -9.5t21 -11.5t20 -11q111 47 206 68l5 -14q-72 -22 -134 -56.5t-101 -73.5h-18zM686 717q22 0 33.5 -13.5t11.5 -33.5q0 -40 -46 -74q-56 -32 -138 -32q-38 0 -85 5
l-131 -453q-17 -56 -2 -75.5t77 -20.5l-4 -20q-52 3 -149 3q-98 0 -146 -3l4 20q63 2 86.5 20.5t40.5 75.5l135 466q-88 12 -126 12q-64 0 -94 -17q18 -25 18 -58q0 -14 -5 -27t-16.5 -22t-28.5 -9q-14 0 -24 6.5t-15 17.5t-5 26q0 51 52 78q43 23 113 23q56 0 157 -14
t152 -14q66 0 111 22q-25 25 -25 56q0 22 12.5 38.5t36.5 16.5z" />
    <glyph glyph-name="Tbar" unicode="&#x166;" horiz-adv-x="659" 
d="M768 817q22 0 33.5 -13.5t11.5 -34.5q0 -43 -47 -72q-53 -33 -158 -33q-44 0 -102 7l-81 -305h152l-6 -25h-153l-60 -225q-16 -58 -2 -76.5t77 -19.5l-4 -20q-53 3 -149 3q-98 0 -146 -3l4 20q62 2 86 21.5t41 74.5l60 225h-166l6 25h167l84 317q-81 11 -129 11
q-87 0 -112 -17q18 -25 18 -58q0 -23 -13 -40.5t-37 -17.5q-44 0 -44 50q0 52 53 78q47 23 134 23q60 0 165.5 -14t163.5 -14q86 0 129 22q-25 25 -25 56q0 22 12.5 38.5t36.5 16.5z" />
    <glyph glyph-name="tbar" unicode="&#x167;" horiz-adv-x="611" 
d="M686 717q22 0 33.5 -13.5t11.5 -33.5q0 -40 -46 -74q-56 -32 -138 -32q-38 0 -85 5l-87 -300h152l-6 -25h-153l-37 -128q-17 -55 -2 -75t77 -21l-4 -20q-52 3 -149 3q-98 0 -146 -3l4 20q63 2 86.5 20.5t40.5 75.5l37 128h-166l6 25h167l91 313q-88 12 -126 12
q-64 0 -94 -17q18 -25 18 -58q0 -23 -13 -40.5t-37 -17.5q-21 0 -32.5 13.5t-11.5 36.5q0 51 52 78q43 23 113 23q56 0 157 -14t152 -14q66 0 111 22q-25 25 -25 56q0 22 12.5 38.5t36.5 16.5z" />
    <glyph glyph-name="Utilde" unicode="&#x168;" horiz-adv-x="682" 
d="M438 895q39 0 67.5 -18.5t53 -36.5t52.5 -18q38 0 70 58l18 -5q-22 -52 -57 -77.5t-73 -25.5q-31 0 -56 11.5t-39 25t-34.5 25t-43.5 11.5q-38 0 -70 -58l-18 5q22 52 57 77.5t73 25.5zM631 592q14 54 -1 74t-66 22l5 20q35 -3 101 -3q60 0 94 3l-5 -20q-51 -2 -71.5 -21
t-34.5 -75l-78 -301q-36 -138 -98 -212q-80 -93 -205 -93q-107 0 -154 54q-34 39 -35 98.5t25 149.5l83 314q13 55 2.5 69.5t-61.5 16.5l6 20q40 -3 129 -3q77 0 125 3l-6 -20q-52 -2 -70.5 -17t-32.5 -69l-88 -331q-12 -45 -17.5 -79t-4.5 -68t13 -55t38 -34.5t67 -13.5
q105 0 165.5 68t92.5 191z" />
    <glyph glyph-name="utilde" unicode="&#x169;" horiz-adv-x="683" 
d="M381 795q31 0 56 -11.5t39 -25t34.5 -25t43.5 -11.5q38 0 70 58l18 -5q-22 -52 -57 -77.5t-73 -25.5q-31 0 -56 11.5t-39 25t-34.5 25t-43.5 11.5q-38 0 -70 -58l-18 5q15 35 37 59t45 34t48 10zM574 291q-36 -138 -98 -212q-37 -43 -90.5 -68t-114.5 -25q-112 0 -154 54
q-33 42 -35 94.5t25 153.5l57 214q13 55 2.5 69.5t-61.5 16.5l6 20q40 -3 129 -3q77 0 125 3l-6 -20q-52 -2 -70.5 -17t-32.5 -69l-62 -231q-12 -45 -17.5 -79t-4.5 -68t13 -55t38 -34.5t67 -13.5q105 0 165.5 68t92.5 191l57 212q15 54 0 74t-67 22l5 20q36 -3 101 -3
q61 0 94 3l-5 -20q-31 -2 -50 -10.5t-32.5 -28.5t-23.5 -57z" />
    <glyph glyph-name="Umacron" unicode="&#x16a;" horiz-adv-x="682" 
d="M656 844l-6 -25h-352l6 25h352zM631 592q14 54 -1 74t-66 22l5 20q35 -3 101 -3q60 0 94 3l-5 -20q-51 -2 -71.5 -21t-34.5 -75l-78 -301q-36 -138 -98 -212q-80 -93 -205 -93q-107 0 -154 54q-34 39 -35 98.5t25 149.5l83 314q13 55 2.5 69.5t-61.5 16.5l6 20
q40 -3 129 -3q77 0 125 3l-6 -20q-52 -2 -70.5 -17t-32.5 -69l-88 -331q-12 -45 -17.5 -79t-4.5 -68t13 -55t38 -34.5t67 -13.5q105 0 165.5 68t92.5 191z" />
    <glyph glyph-name="umacron" unicode="&#x16b;" horiz-adv-x="683" 
d="M622 744l-6 -25h-352l6 25h352zM574 291q-36 -138 -98 -212q-37 -43 -90.5 -68t-114.5 -25q-112 0 -154 54q-33 42 -35 94.5t25 153.5l57 214q13 55 2.5 69.5t-61.5 16.5l6 20q40 -3 129 -3q77 0 125 3l-6 -20q-52 -2 -70.5 -17t-32.5 -69l-62 -231q-12 -45 -17.5 -79
t-4.5 -68t13 -55t38 -34.5t67 -13.5q105 0 165.5 68t92.5 191l57 212q15 54 0 74t-67 22l5 20q36 -3 101 -3q61 0 94 3l-5 -20q-45 -2 -68 -22t-38 -74z" />
    <glyph glyph-name="Ubreve" unicode="&#x16c;" horiz-adv-x="682" 
d="M498 849q123 0 221 58l10 -11q-43 -43 -116 -78.5t-132 -35.5q-62 0 -101 32.5t-50 83.5l16 5q26 -30 61 -42t91 -12zM631 592q14 54 -1 74t-66 22l5 20q35 -3 101 -3q60 0 94 3l-5 -20q-51 -2 -71.5 -21t-34.5 -75l-78 -301q-36 -138 -98 -212q-80 -93 -205 -93
q-107 0 -154 54q-34 39 -35 98.5t25 149.5l83 314q13 55 2.5 69.5t-61.5 16.5l6 20q40 -3 129 -3q77 0 125 3l-6 -20q-52 -2 -70.5 -17t-32.5 -69l-88 -331q-12 -45 -17.5 -79t-4.5 -68t13 -55t38 -34.5t67 -13.5q105 0 165.5 68t92.5 191z" />
    <glyph glyph-name="ubreve" unicode="&#x16d;" horiz-adv-x="683" 
d="M441 749q54 0 114.5 15t106.5 43l10 -11q-43 -43 -116 -78.5t-132 -35.5q-62 0 -101 32.5t-50 83.5l16 5q26 -30 61 -42t91 -12zM574 291q-36 -138 -98 -212q-37 -43 -90.5 -68t-114.5 -25q-112 0 -154 54q-33 42 -35 94.5t25 153.5l57 214q13 55 2.5 69.5t-61.5 16.5
l6 20q40 -3 129 -3q77 0 125 3l-6 -20q-52 -2 -70.5 -17t-32.5 -69l-62 -231q-12 -45 -17.5 -79t-4.5 -68t13 -55t38 -34.5t67 -13.5q105 0 165.5 68t92.5 191l57 212q15 54 0 74t-67 22l5 20q36 -3 101 -3q61 0 94 3l-5 -20q-31 -2 -50 -10.5t-32.5 -28.5t-23.5 -57z" />
    <glyph glyph-name="Uring" unicode="&#x16e;" horiz-adv-x="682" 
d="M505 925q37 0 61.5 -22t24.5 -58q0 -42 -33.5 -72.5t-78.5 -30.5q-36 0 -59.5 21.5t-23.5 58.5q0 43 32 73t77 30zM483 763q32 0 57 24t25 59q0 27 -19.5 42.5t-44.5 15.5q-31 0 -55 -24.5t-24 -56.5q0 -28 18.5 -44t42.5 -16zM631 592q14 54 -1 74t-66 22l5 20
q35 -3 101 -3q60 0 94 3l-5 -20q-51 -2 -71.5 -21t-34.5 -75l-78 -301q-36 -138 -98 -212q-80 -93 -205 -93q-107 0 -154 54q-34 39 -35 98.5t25 149.5l83 314q13 55 2.5 69.5t-61.5 16.5l6 20q40 -3 129 -3q77 0 125 3l-6 -20q-52 -2 -70.5 -17t-32.5 -69l-88 -331
q-12 -45 -17.5 -79t-4.5 -68t13 -55t38 -34.5t67 -13.5q105 0 165.5 68t92.5 191z" />
    <glyph glyph-name="uring" unicode="&#x16f;" horiz-adv-x="683" 
d="M482 825q24 0 43.5 -9.5t31 -28t11.5 -42.5q0 -42 -33.5 -72.5t-78.5 -30.5q-36 0 -59.5 21.5t-23.5 58.5q0 43 32 73t77 30zM460 663q32 0 57 24t25 59q0 27 -19.5 42.5t-44.5 15.5q-31 0 -55 -24.5t-24 -56.5q0 -28 18.5 -44t42.5 -16zM574 291q-36 -138 -98 -212
q-37 -43 -90.5 -68t-114.5 -25q-112 0 -154 54q-33 42 -35 94.5t25 153.5l57 214q13 55 2.5 69.5t-61.5 16.5l6 20q40 -3 129 -3q77 0 125 3l-6 -20q-52 -2 -70.5 -17t-32.5 -69l-62 -231q-12 -45 -17.5 -79t-4.5 -68t13 -55t38 -34.5t67 -13.5q105 0 165.5 68t92.5 191
l57 212q15 54 0 74t-67 22l5 20q36 -3 101 -3q61 0 94 3l-5 -20q-45 -2 -68 -22t-38 -74z" />
    <glyph glyph-name="Uhungarumlaut" unicode="&#x170;" horiz-adv-x="682" 
d="M528 784q30 23 80 72t74 66q9 6 19 10.5t22.5 3t19.5 -11.5q19 -27 -28 -61q-25 -17 -87.5 -45t-93.5 -46zM341 784q30 23 80 72t74 66q15 11 31.5 13.5t30.5 -13.5q14 -28 -29 -59q-25 -17 -87.5 -45t-93.5 -46zM631 592q14 54 -1 74t-66 22l5 20q35 -3 101 -3
q60 0 94 3l-5 -20q-51 -2 -71.5 -21t-34.5 -75l-78 -301q-36 -138 -98 -212q-80 -93 -205 -93q-107 0 -154 54q-34 39 -35 98.5t25 149.5l83 314q13 55 2.5 69.5t-61.5 16.5l6 20q40 -3 129 -3q77 0 125 3l-6 -20q-52 -2 -70.5 -17t-32.5 -69l-88 -331q-12 -45 -17.5 -79
t-4.5 -68t13 -55t38 -34.5t67 -13.5q105 0 165.5 68t92.5 191z" />
    <glyph glyph-name="uhungarumlaut" unicode="&#x171;" horiz-adv-x="683" 
d="M492 684q25 20 54.5 48t54.5 52t45 38q9 6 19 10.5t22.5 3t19.5 -11.5q10 -14 0.5 -30.5t-28.5 -30.5q-25 -17 -87.5 -45t-93.5 -46zM305 684q30 23 80 72t74 66q9 7 20 11t23 2t19 -13q14 -28 -29 -59q-25 -17 -87.5 -45t-93.5 -46zM574 291q-36 -138 -98 -212
q-37 -43 -90.5 -68t-114.5 -25q-112 0 -154 54q-33 42 -35 94.5t25 153.5l57 214q13 55 2.5 69.5t-61.5 16.5l6 20q40 -3 129 -3q77 0 125 3l-6 -20q-52 -2 -70.5 -17t-32.5 -69l-62 -231q-12 -45 -17.5 -79t-4.5 -68t13 -55t38 -34.5t67 -13.5q105 0 165.5 68t92.5 191
l57 212q15 54 0 74t-67 22l5 20q36 -3 101 -3q61 0 94 3l-5 -20q-31 -2 -50 -10.5t-32.5 -28.5t-23.5 -57z" />
    <glyph glyph-name="Uogonek" unicode="&#x172;" horiz-adv-x="682" 
d="M670 705q60 0 94 3l-5 -20q-51 -2 -71.5 -21t-34.5 -75l-78 -301q-36 -138 -98 -212q-54 -63 -136 -84q-93 -37 -93 -98q0 -37 39 -37q43 0 77 26l11 -17q-60 -57 -129 -57q-36 0 -55 15.5t-19 42.5q0 67 113 116h-13q-107 0 -154 54q-34 39 -35 98.5t25 149.5l83 314
q13 55 2.5 69.5t-61.5 16.5l6 20q40 -3 129 -3q77 0 125 3l-6 -20q-52 -2 -70.5 -17t-32.5 -69l-88 -331q-12 -45 -17.5 -79t-4.5 -68t13 -55t38 -34.5t67 -13.5q105 0 165.5 68t92.5 191l82 312q14 54 -1 74t-66 22l5 20q35 -3 101 -3z" />
    <glyph glyph-name="uogonek" unicode="&#x173;" horiz-adv-x="683" 
d="M644 605q61 0 94 3l-5 -20q-31 -2 -50 -10.5t-32.5 -28.5t-23.5 -57l-53 -201q-36 -138 -98 -212q-58 -68 -148 -87q-37 -15 -61.5 -39.5t-24.5 -55.5q0 -37 39 -37q10 0 21 2t21 6t19.5 8.5t15.5 9.5l11 -17q-60 -57 -129 -57q-36 0 -55 15.5t-19 42.5q0 67 112 116h-7
q-112 0 -154 54q-33 42 -35 94.5t25 153.5l57 214q13 55 2.5 69.5t-61.5 16.5l6 20q40 -3 129 -3q77 0 125 3l-6 -20q-37 -2 -54 -8t-28 -23t-21 -55l-62 -231q-12 -45 -17.5 -79t-4.5 -68t13 -55t38 -34.5t67 -13.5q44 0 80.5 13t63.5 35t49 55.5t37.5 71t27.5 84.5l57 212
q15 54 0 74t-67 22l5 20q36 -3 101 -3z" />
    <glyph glyph-name="Wcircumflex" unicode="&#x174;" horiz-adv-x="902" 
d="M586 840q-111 -47 -206 -68l-5 14q152 47 235 130h18q57 -98 139 -130l-4 -14q-19 4 -35.5 7.5t-31.5 9t-25 9t-24.5 10.5t-20 9.5t-21 11.5t-19.5 11zM918 705q44 0 76 3l-5 -20q-59 -13 -95 -87l-299 -606h-16l-72 456l-271 -456h-16l-79 629q-8 62 -55 64l4 20
q40 -3 99 -3q72 0 108 3l-4 -20q-36 -2 -49 -19t-7 -65l56 -477l209 355l-22 142q-10 62 -45 64l4 20q36 -3 89 -3q86 0 128 3l-4 -20q-53 -2 -68.5 -18t-7.5 -66l72 -455l195 397q41 86 30.5 113t-74.5 29l5 20q56 -3 114 -3z" />
    <glyph glyph-name="wcircumflex" unicode="&#x175;" horiz-adv-x="906" 
d="M544 740q-111 -47 -206 -68l-5 14q152 47 235 130h18q28 -48 59.5 -79.5t79.5 -50.5l-4 -14q-19 4 -35.5 7.5t-31.5 9t-25 9t-24.5 10.5t-20 9.5t-21 11.5t-19.5 11zM895 605q63 0 87 3l-5 -20q-31 -9 -55 -30.5t-52 -68.5l-302 -494h-16l-74 453l-269 -453h-16l-66 529
q-8 62 -55 64l4 20q40 -3 99 -3q72 0 108 3l-4 -20q-36 -2 -49 -19t-7 -65l43 -376l207 350l-7 46q-10 62 -45 64l4 20q36 -3 89 -3q86 0 128 3l-4 -20q-54 -2 -69.5 -18t-6.5 -66l64 -376l188 309q27 44 38 73.5t6.5 46t-18.5 23.5t-41 8l5 20q30 -3 91 -3z" />
    <glyph glyph-name="Ycircumflex" unicode="&#x176;" horiz-adv-x="670" 
d="M483 840q-111 -47 -206 -68l-5 14q152 47 235 130h18q57 -98 139 -130l-4 -14q-19 4 -35.5 7.5t-31.5 9t-25 9t-24.5 10.5t-20 9.5t-21 11.5t-19.5 11zM700 722q31 0 44.5 -17t11.5 -42q-2 -24 -17 -44t-42 -20q-40 0 -38 43q1 30 32 59h-3q-27 -1 -55 -22
q-124 -89 -229 -341l-58 -232q-13 -55 -2.5 -69.5t61.5 -16.5l-5 -20q-45 3 -124 3q-88 0 -131 -3l5 20q52 2 71 17t32 69l59 233q-38 328 -117 328q-33 0 -48 -47l-28 -82h-22l33 97q16 47 36.5 67t61.5 20q40 0 68.5 -24.5t47.5 -75.5t30 -111t21 -151q73 183 187 297
q65 65 118 65z" />
    <glyph glyph-name="ycircumflex" unicode="&#x177;" horiz-adv-x="638" 
d="M432 740q-111 -47 -206 -68l-5 14q72 22 134 56.5t101 73.5h18q28 -48 59.5 -79.5t79.5 -50.5l-4 -14q-17 3 -32 7t-27 7t-25 8t-20.5 8.5t-19.5 9.5t-17.5 9t-18 9.5t-17.5 9.5zM643 622q31 0 44.5 -17t11.5 -42q-2 -24 -17 -44t-42 -20q-40 0 -38 43q2 30 32 59h-3
q-25 -1 -55 -22q-122 -91 -216 -306l-43 -167q-14 -55 -3.5 -69.5t62.5 -16.5l-5 -20q-45 3 -124 3q-88 0 -131 -3l5 20q52 2 71 17t32 69l48 184q-31 277 -94 277q-17 0 -28.5 -11t-19.5 -36l-28 -82h-22l33 97q16 47 36.5 67t61.5 20q21 0 38 -7t29.5 -24t22 -36.5
t18 -52.5t14.5 -64t14 -78l8 -49q70 151 170 250q61 61 118 61z" />
    <glyph glyph-name="Ydieresis" unicode="&#x178;" horiz-adv-x="670" 
d="M362 772q-22 0 -36 14.5t-14 36.5q0 24 20.5 44.5t46.5 20.5q21 0 35.5 -14.5t14.5 -35.5q0 -25 -20 -45.5t-47 -20.5zM574 772q-22 0 -36 14.5t-14 36.5q0 24 20.5 44.5t46.5 20.5q21 0 35.5 -14.5t14.5 -35.5q0 -25 -20 -45.5t-47 -20.5zM700 722q31 0 44.5 -17
t11.5 -42q-2 -24 -17 -44t-42 -20q-40 0 -38 43q1 30 32 59h-3q-27 -1 -55 -22q-124 -89 -229 -341l-58 -232q-13 -55 -2.5 -69.5t61.5 -16.5l-5 -20q-45 3 -124 3q-88 0 -131 -3l5 20q52 2 71 17t32 69l59 233q-38 328 -117 328q-33 0 -48 -47l-28 -82h-22l33 97
q16 47 36.5 67t61.5 20q40 0 68.5 -24.5t47.5 -75.5t30 -111t21 -151q73 183 187 297q65 65 118 65z" />
    <glyph glyph-name="Zacute" unicode="&#x179;" horiz-adv-x="652" 
d="M661 866q-21 -12 -91.5 -38.5t-130.5 -55.5l-7 11q55 37 114.5 83t81.5 59q18 11 36.5 11.5t29.5 -16.5q6 -14 -4.5 -29t-28.5 -25zM713 713q6 -8 5 -19.5t-21 -27t-53 -28.5l-277 -272h152l-8 -20h-164l-283 -278q92 54 173 54q42 0 106.5 -28t107.5 -28q68 0 68 66
q0 59 -72 73l4 20q106 -19 106 -116q0 -54 -33 -88.5t-88 -34.5q-27 0 -52 11t-44.5 26.5t-38.5 31.5t-43.5 27t-50.5 11q-38 0 -69 -10.5t-79 -34.5q-23 -33 -48.5 -49t-39.5 -4q-6 8 -5 19.5t21 27t53 28.5l281 276h-162l7 20h175l279 274q-92 -54 -173 -54
q-42 0 -106.5 28t-107.5 28q-68 0 -68 -66q0 -59 72 -73l-4 -20q-106 19 -106 116q0 54 33 88.5t88 34.5q27 0 52 -11t44.5 -27t38.5 -31.5t43.5 -26.5t50.5 -11q38 0 69 10.5t79 34.5q23 34 48 49.5t40 3.5z" />
    <glyph glyph-name="zacute" unicode="&#x17a;" horiz-adv-x="654" 
d="M596 766q-21 -12 -91.5 -38.5t-130.5 -55.5l-7 11q35 24 68 48t52 39.5t39.5 30.5t36.5 24q11 7 23.5 10t25 0t17.5 -15q6 -14 -4.5 -29t-28.5 -25zM694 613q5 -4 6 -10.5t-3 -14.5t-12.5 -16t-24 -17t-35.5 -17l-268 -222h116l-8 -20h-132l-275 -228q92 54 173 54
q42 0 106.5 -28t107.5 -28q33 0 50.5 17.5t17.5 48.5q0 59 -72 73l4 20q45 -8 75.5 -35.5t30.5 -80.5q0 -54 -33 -88.5t-88 -34.5q-23 0 -44.5 8t-37.5 20l-34 25.5t-33.5 25.5t-36.5 20t-43 8q-38 0 -69 -10.5t-79 -34.5q-23 -33 -48.5 -49t-39.5 -4q-5 4 -6 10.5t3 14.5
t12.5 16t24 17t35.5 17l273 226h-114l7 20h131l270 224q-92 -54 -173 -54q-42 0 -106.5 28t-107.5 28q-68 0 -68 -66q0 -59 72 -73l-4 -20q-45 8 -75.5 35.5t-30.5 80.5q0 36 14.5 63.5t42 43.5t64.5 16q27 0 52 -11t44.5 -27t38.5 -31.5t43.5 -26.5t50.5 -11q38 0 69 10.5
t79 34.5q15 22 31.5 37t31.5 19.5t25 -3.5z" />
    <glyph glyph-name="Zdotaccent" unicode="&#x17b;" horiz-adv-x="652" 
d="M468 772q-22 0 -36 15t-14 38q0 28 22 51.5t52 23.5q23 0 37 -15t14 -38q0 -28 -22 -51.5t-53 -23.5zM713 713q6 -8 5 -19.5t-21 -27t-53 -28.5l-277 -272h152l-8 -20h-164l-283 -278q92 54 173 54q42 0 106.5 -28t107.5 -28q68 0 68 66q0 59 -72 73l4 20
q106 -19 106 -116q0 -54 -33 -88.5t-88 -34.5q-27 0 -52 11t-44.5 26.5t-38.5 31.5t-43.5 27t-50.5 11q-38 0 -69 -10.5t-79 -34.5q-23 -33 -48.5 -49t-39.5 -4q-6 8 -5 19.5t21 27t53 28.5l281 276h-162l7 20h175l279 274q-92 -54 -173 -54q-42 0 -106.5 28t-107.5 28
q-68 0 -68 -66q0 -59 72 -73l-4 -20q-106 19 -106 116q0 54 33 88.5t88 34.5q27 0 52 -11t44.5 -27t38.5 -31.5t43.5 -26.5t50.5 -11q38 0 69 10.5t79 34.5q23 34 48 49.5t40 3.5z" />
    <glyph glyph-name="zdotaccent" unicode="&#x17c;" horiz-adv-x="654" 
d="M453 672q-15 0 -26.5 7t-17.5 19t-6 27q0 28 22 51.5t52 23.5q23 0 37 -15t14 -38q0 -28 -22 -51.5t-53 -23.5zM694 613q5 -4 6 -10.5t-3 -14.5t-12.5 -16t-23.5 -17t-36 -17l-268 -222h116l-8 -20h-132l-275 -228q92 54 173 54q42 0 106.5 -28t107.5 -28q33 0 50.5 17.5
t17.5 48.5q0 59 -72 73l4 20q45 -8 75.5 -35.5t30.5 -80.5q0 -54 -33 -88.5t-88 -34.5q-27 0 -52 11t-44.5 27t-38.5 31.5t-43.5 26.5t-50.5 11q-38 0 -69 -10.5t-79 -34.5q-23 -33 -48.5 -49t-39.5 -4q-5 4 -6 10.5t3 14.5t12.5 16t24 17t35.5 17l273 226h-114l7 20h131
l270 224q-92 -54 -173 -54q-42 0 -106.5 28t-107.5 28q-33 0 -50.5 -17.5t-17.5 -48.5q0 -59 72 -73l-4 -20q-45 8 -75.5 35.5t-30.5 80.5q0 36 14.5 63.5t42 43.5t64.5 16q27 0 52 -11t44.5 -27t38.5 -31.5t43.5 -26.5t50.5 -11q38 0 69 10.5t79 34.5q15 22 31.5 37
t31.5 19.5t25 -3.5z" />
    <glyph glyph-name="Zcaron" unicode="&#x17d;" horiz-adv-x="652" 
d="M437 780q-57 98 -139 130l4 14q19 -4 35.5 -7.5t31.5 -9t25 -9t24.5 -10.5t20 -9.5t21 -11.5t19.5 -11q111 47 206 68l5 -14q-152 -47 -235 -130h-18zM713 713q6 -8 5 -19.5t-21 -27t-53 -28.5l-277 -272h152l-8 -20h-164l-283 -278q92 54 173 54q42 0 106.5 -28
t107.5 -28q68 0 68 66q0 59 -72 73l4 20q106 -19 106 -116q0 -54 -33 -88.5t-88 -34.5q-27 0 -52 11t-44.5 26.5t-38.5 31.5t-43.5 27t-50.5 11q-38 0 -69 -10.5t-79 -34.5q-23 -33 -48.5 -49t-39.5 -4q-6 8 -5 19.5t21 27t53 28.5l281 276h-162l7 20h175l279 274
q-92 -54 -173 -54q-42 0 -106.5 28t-107.5 28q-68 0 -68 -66q0 -59 72 -73l-4 -20q-106 19 -106 116q0 54 33 88.5t88 34.5q27 0 52 -11t44.5 -27t38.5 -31.5t43.5 -26.5t50.5 -11q38 0 69 10.5t79 34.5q23 34 48 49.5t40 3.5z" />
    <glyph glyph-name="zcaron" unicode="&#x17e;" horiz-adv-x="654" 
d="M432 680q-28 48 -59.5 79.5t-79.5 50.5l4 14q19 -4 35.5 -7.5t31.5 -9t25 -9t24.5 -10.5t20 -9.5t21 -11.5t19.5 -11q111 47 206 68l5 -14q-72 -22 -134 -56.5t-101 -73.5h-18zM694 613q5 -4 6 -10.5t-3 -14.5t-12.5 -16t-24 -17t-35.5 -17l-268 -222h116l-8 -20h-132
l-275 -228q92 54 173 54q42 0 106.5 -28t107.5 -28q33 0 50.5 17.5t17.5 48.5q0 59 -72 73l4 20q45 -8 75.5 -35.5t30.5 -80.5q0 -54 -33 -88.5t-88 -34.5q-23 0 -44.5 8t-37.5 20l-34 25.5t-33.5 25.5t-36.5 20t-43 8q-38 0 -69 -10.5t-79 -34.5q-23 -33 -48.5 -49
t-39.5 -4q-5 4 -6 10.5t3 14.5t12.5 16t24 17t35.5 17l273 226h-114l7 20h131l270 224q-92 -54 -173 -54q-42 0 -106.5 28t-107.5 28q-33 0 -50.5 -17.5t-17.5 -48.5q0 -59 72 -73l-4 -20q-45 8 -75.5 35.5t-30.5 80.5q0 35 14.5 63t42 44t64.5 16q27 0 52 -11t44.5 -27
t38.5 -31.5t43.5 -26.5t50.5 -11q38 0 69 10.5t79 34.5q15 22 31.5 37t31.5 19.5t25 -3.5z" />
    <glyph glyph-name="florin" unicode="&#x192;" horiz-adv-x="466" 
d="M459 782q52 0 78 -26t17 -63q-6 -22 -24 -36.5t-41 -14.5q-24 0 -35.5 13t-5.5 37q11 38 57 51q-1 6 -6.5 11.5t-16.5 9t-24 3.5q-45 0 -74 -37q-18 -21 -31.5 -61.5t-44.5 -153.5v-1h167l-5 -20h-168l-101 -379q-48 -175 -118 -242q-64 -61 -133 -61q-33 0 -46 15.5
t-7 37.5q5 21 21.5 34t37.5 13q20 0 29 -13t4 -32q-4 -21 -26 -40q41 5 64.5 29t38.5 79l149 559h-122l5 20h123v1q12 46 23 77.5t23.5 58t26.5 45.5t33 36q55 50 132 50z" />
    <glyph glyph-name="uni01F4" unicode="&#x1f4;" horiz-adv-x="705" 
d="M476 783q55 37 114.5 83t81.5 59q18 11 36.5 11.5t29.5 -16.5q6 -14 -4.5 -29t-28.5 -25q-21 -12 -91.5 -38.5t-130.5 -55.5zM316 6q61 0 114 31q34 20 46 63l23 88q15 61 1.5 77.5t-76.5 18.5l5 20q53 -3 140 -3q69 0 105 3l-5 -20q-34 -2 -46.5 -16.5t-27.5 -69.5
l-53 -198h-20q5 17 2.5 37t-14.5 20q-11 0 -38 -17q-85 -54 -170 -54q-122 0 -187 59.5t-65 169.5q0 85 32.5 174.5t88 163.5t139.5 121.5t178 47.5q60 0 95.5 -16.5t68.5 -48.5q15 -16 28.5 -5t28.5 56h22q-33 -86 -64 -230h-22q5 43 5 75q0 46 -14 73q-21 37 -62 57.5
t-92 20.5q-64 0 -120.5 -36.5t-95.5 -93.5t-67.5 -127.5t-42 -138.5t-13.5 -126q0 -90 42.5 -133t130.5 -43z" />
    <glyph glyph-name="uni01F5" unicode="&#x1f5;" horiz-adv-x="697" 
d="M377 683q55 37 114.5 83t81.5 59q11 7 23.5 10t25 0t17.5 -15q6 -14 -4.5 -29t-28.5 -25q-21 -12 -91.5 -38.5t-130.5 -55.5zM534 0h-20q5 14 2.5 30.5t-14.5 16.5q-16 0 -53 -23q-62 -38 -155 -38q-82 0 -138.5 24.5t-85 71t-28.5 113.5q0 72 28 146.5t78.5 137.5
t130 103t173.5 40q60 0 95.5 -16.5t68.5 -48.5q15 -16 28.5 -5t28.5 56h22q-32 -92 -64 -230h-22q5 43 5 75q0 46 -14 73q-21 37 -62 57.5t-92 20.5q-46 0 -87 -17t-72 -45.5t-56.5 -66t-43 -78.5t-29.5 -84t-17.5 -81t-5.5 -70q0 -79 42.5 -117.5t130.5 -38.5q17 0 35 2.5
t38 8t37 14.5t30 23t18 32l18 67q7 26 8.5 41.5t-1.5 26.5t-14 16.5t-26 8t-42 3.5l4 20q53 -3 141 -3q68 0 104 3l-4 -20q-35 -2 -48 -16.5t-28 -69.5z" />
    <glyph glyph-name="Scommaaccent" unicode="&#x218;" horiz-adv-x="554" 
d="M576 715q-36 -91 -59 -204h-20q6 29 6 57q0 59 -35 97t-107 38q-63 0 -101.5 -32t-38.5 -95q0 -41 26 -82t63.5 -75t74.5 -69t63 -78.5t26 -89.5q0 -65 -40 -111t-95.5 -65.5t-117.5 -19.5q-84 0 -142 46q-19 15 -36 15q-12 0 -20 -12t-21 -42h-20q33 80 68 240h20
q-10 -55 -9 -81q6 -146 163 -146q68 0 107.5 31t39.5 94q0 46 -24 87t-57.5 72.5t-67.5 64.5t-58 77t-24 95q0 91 65.5 143t154.5 52q75 0 130 -42q24 -18 33 -18q14 0 33 53h20zM198 -69q26 0 40.5 -16.5t14.5 -41.5q0 -81 -98 -114l-7 17q27 8 49.5 25t24.5 39
q-18 -16 -44 -16q-20 0 -32.5 11t-12.5 31q0 24 18 44.5t47 20.5z" />
    <glyph glyph-name="scommaaccent" unicode="&#x219;" horiz-adv-x="563" 
d="M556 615q-36 -91 -59 -204h-20q6 28 6 56q0 60 -35 98t-109 38q-40 0 -70.5 -11t-49 -35.5t-18.5 -59.5q0 -48 32 -81.5t98 -76.5q31 -20 45 -29.5t37 -29t33.5 -35t19.5 -38t9 -47.5t-8 -47.5t-22 -40t-33 -32t-41.5 -24.5t-47.5 -17t-50 -10t-50 -3q-37 0 -67.5 8
t-44 16.5t-31.5 21.5q-19 15 -35 15q-13 0 -21 -11.5t-21 -42.5h-20q33 80 68 240h20q-10 -55 -9 -81q5 -146 165 -146q33 0 59 6.5t45.5 19t30 33t10.5 48.5q0 26 -9 48.5t-27.5 42.5t-35 33t-44.5 32q-3 2 -8 5l-28.5 19.5t-25.5 19.5t-24.5 21.5t-19.5 22.5t-16.5 26.5
t-9.5 29t-4 34.5q0 55 32.5 96t82.5 60t108 19q41 0 69 -10t58 -32q25 -18 33 -18q14 0 33 53h20zM206 -69q26 0 40.5 -16.5t14.5 -41.5q0 -24 -7 -43t-29.5 -38.5t-61.5 -32.5l-7 17q27 8 49.5 25t24.5 39q-18 -16 -44 -16q-13 0 -23 5t-16 14.5t-6 22.5q0 24 18 44.5
t47 20.5z" />
    <glyph glyph-name="uni021A" unicode="&#x21a;" horiz-adv-x="659" 
d="M768 817q22 0 33.5 -13.5t11.5 -34.5q0 -43 -47 -72q-53 -33 -158 -33q-44 0 -102 7l-148 -555q-16 -58 -2 -76.5t77 -19.5l-4 -20q-53 3 -149 3q-98 0 -146 -3l4 20q62 2 86 21.5t41 74.5l151 567q-81 11 -129 11q-87 0 -112 -17q18 -25 18 -58q0 -23 -13 -40.5
t-37 -17.5q-44 0 -44 50q0 52 53 78q47 23 134 23q60 0 165.5 -14t163.5 -14q86 0 129 22q-25 25 -25 56q0 22 12.5 38.5t36.5 16.5zM264 -69q26 0 40.5 -16.5t14.5 -41.5q0 -81 -98 -114l-7 17q27 8 49.5 25t24.5 39q-18 -16 -44 -16q-20 0 -32.5 11t-12.5 31q0 24 18 44.5
t47 20.5z" />
    <glyph glyph-name="uni021B" unicode="&#x21b;" horiz-adv-x="611" 
d="M686 717q15 0 25.5 -6.5t15 -17t4.5 -23.5q0 -40 -46 -74q-56 -32 -138 -32q-38 0 -85 5l-131 -453q-17 -56 -2 -75.5t77 -20.5l-4 -20q-52 3 -149 3q-98 0 -146 -3l4 20q63 2 86.5 20.5t40.5 75.5l135 466q-88 12 -126 12q-64 0 -94 -17q18 -25 18 -58q0 -23 -13 -40.5
t-37 -17.5q-14 0 -24 6.5t-15 17.5t-5 26q0 51 52 78q43 23 113 23q56 0 157 -14t152 -14q66 0 111 22q-25 25 -25 56q0 22 12.5 38.5t36.5 16.5zM238 -69q17 0 29.5 -7.5t19 -20.5t6.5 -30q0 -24 -7 -43t-29.5 -38.5t-61.5 -32.5l-7 17q27 8 49.5 25t24.5 39
q-18 -16 -44 -16q-20 0 -32.5 11t-12.5 31q0 24 18 44.5t47 20.5z" />
    <glyph glyph-name="uni0237" unicode="&#x237;" horiz-adv-x="276" 
d="M-84 -173q38 5 61 29t38 79l139 494q10 34 6.5 48t-21.5 14q-40 0 -76 -102l-13 -37h-19l24 73q34 103 123 103q24 0 39 -8t21.5 -20.5t6 -32.5t-4 -37.5t-10.5 -41.5l-77 -273q-69 -247 -195 -293q-29 -10 -59 -10q-47 0 -47 39q0 22 18 41.5t41 19.5q15 0 24 -8.5
t9 -22.5q0 -26 -28 -54z" />
    <glyph glyph-name="gravecomb" unicode="&#x300;" 
d="M54 599q-37 53 -83.5 108.5t-59.5 76.5q-12 23 -9.5 38t15.5 22q35 15 59 -28q12 -21 37.5 -87.5t53.5 -123.5z" />
    <glyph glyph-name="acutecomb" unicode="&#x301;" 
d="M-108 608q41 49 86 110t64 80q16 18 34 21.5t29 -6.5q11 -9 7.5 -26t-22.5 -36q-17 -18 -78 -63t-110 -89z" />
    <glyph glyph-name="uni0302" unicode="&#x302;" 
d="M-99 720q-87 -68 -175 -104l-5 14q65 28 122 74t93 98h18q11 -63 38 -103t81 -69l-4 -14q-58 16 -95.5 41t-72.5 63z" />
    <glyph glyph-name="tildecomb" unicode="&#x303;" 
d="M-139 768q27 0 49.5 -11.5t34.5 -25t30.5 -25t38.5 -11.5q38 0 70 58l18 -5q-22 -52 -57 -77.5t-73 -25.5q-27 0 -49.5 11.5t-34.5 25t-30.5 25t-38.5 11.5q-38 0 -70 -58l-18 5q22 52 57 77.5t73 25.5z" />
    <glyph glyph-name="uni0304" unicode="&#x304;" 
d="M93 712l-6 -25h-312l6 25h312z" />
    <glyph glyph-name="uni0306" unicode="&#x306;" 
d="M-107 700q49 0 107 23.5t100 64.5l10 -11q-38 -54 -108 -99t-126 -45q-52 0 -83.5 40.5t-41.5 105.5l16 5q16 -32 33 -50t39 -26t54 -8z" />
    <glyph glyph-name="uni0307" unicode="&#x307;" 
d="M-33 688q0 28 21.5 52.5t52.5 24.5q23 0 37 -14.5t14 -36.5q0 -28 -22 -52.5t-53 -24.5q-22 0 -36 14.5t-14 36.5z" />
    <glyph glyph-name="uni0308" unicode="&#x308;" 
d="M-242 678q0 24 20.5 44.5t46.5 20.5q21 0 35.5 -14.5t14.5 -35.5q0 -25 -20 -45.5t-47 -20.5q-22 0 -36 14.5t-14 36.5zM-30 678q0 24 20.5 44.5t46.5 20.5q6 0 11.5 -1.5t10.5 -3.5t9.5 -5.5t8 -8t5.5 -9.5t3.5 -10.5t1.5 -11.5q0 -25 -20 -45.5t-47 -20.5
q-22 0 -36 14.5t-14 36.5z" />
    <glyph glyph-name="uni030A" unicode="&#x30a;" 
d="M4 791q37 0 61.5 -22t24.5 -58q0 -42 -33.5 -72.5t-78.5 -30.5q-36 0 -59.5 21.5t-23.5 58.5q0 43 32 73t77 30zM-18 629q32 0 57 24t25 59q0 18 -9.5 31.5t-24 20t-30.5 6.5q-31 0 -55 -24.5t-24 -56.5q0 -28 18 -44t43 -16z" />
    <glyph glyph-name="uni030B" unicode="&#x30b;" 
d="M-250 608q32 51 63.5 111.5t45.5 78.5q29 38 60 15q29 -24 0 -62q-15 -18 -66 -63t-92 -89zM-72 608q32 51 63.5 111.5t45.5 78.5t31.5 21.5t28.5 -6.5q13 -10 13.5 -26t-13.5 -36q-15 -18 -66 -63t-92 -89z" />
    <glyph glyph-name="uni030C" unicode="&#x30c;" 
d="M-68 698q87 68 175 104l5 -14q-65 -28 -122 -74t-93 -98h-18q-11 63 -38 103t-81 69l4 14q98 -27 168 -104z" />
    <glyph glyph-name="uni0326" unicode="&#x326;" 
d="M-175 -69q26 0 40.5 -16.5t14.5 -41.5q0 -37 -21 -66t-77 -48l-7 17q27 8 49.5 25t24.5 39q-18 -16 -44 -16q-20 0 -32.5 11t-12.5 31q0 24 18 44.5t47 20.5z" />
    <glyph glyph-name="uni0327" unicode="&#x327;" 
d="M-162 0l-34 -72q19 7 41 7q20 0 31.5 -10.5t11.5 -29.5q0 -40 -38.5 -61.5t-84.5 -21.5q-54 0 -80 22l7 15q29 -13 60 -13q23 0 47.5 12.5t24.5 38.5q0 24 -28 24q-16 0 -31 -7l46 96h27z" />
    <glyph glyph-name="uni0328" unicode="&#x328;" 
d="M-114 3q-43 -11 -80.5 -39t-37.5 -66t38 -38q19 0 38 8.5t30 22.5l12 -11q-56 -68 -122 -68q-17 0 -30.5 4.5t-22.5 12t-14 18.5t-5 24q0 23 15 45t40 38.5t49.5 28t51.5 20.5h38z" />
    <glyph glyph-name="uni0335" unicode="&#x335;" 
d="M73 628l-6 -20h-344l6 20h344z" />
    <glyph glyph-name="uni0337" unicode="&#x337;" 
d="M-93 463l102 123l13 -12l-105 -128zM-93 446l-294 -383l-11 18l295 382zM-397 63l-113 -136l-14 13l116 141z" />
    <glyph glyph-name="uni0338" unicode="&#x338;" 
d="M-92 632l135 141l15 -13l-140 -148zM-596 95l497 537l10 -20l-494 -535zM-591 77l-141 -150l-17 14l145 154z" />
    <glyph glyph-name="Delta" unicode="&#x394;" horiz-adv-x="565" 
d="M272 722l193 -722q-109 3 -220 3t-222 -3l233 722h16zM216 542l-163 -512h304z" />
    <glyph glyph-name="Omega" unicode="&#x3a9;" horiz-adv-x="796" 
d="M405 722q138 0 213 -66t75 -184q0 -62 -23 -122.5t-52 -102t-74 -107t-73 -117.5h48q73 0 104.5 36.5t39.5 130.5h23q-3 -27 -3 -72q0 -52 7 -118q-29 3 -102 3q-23 0 -72.5 -1.5t-69.5 -1.5v16q147 219 147 436q0 124 -44 188t-144 64t-144 -64t-44 -188
q0 -69 15.5 -138.5t40.5 -127.5t46.5 -96.5t44.5 -73.5v-16q-22 0 -50.5 1t-51 1.5t-40.5 0.5q-73 0 -102 -3q7 66 7 118q0 45 -3 72h23q8 -94 39.5 -130.5t104.5 -36.5h48q-28 52 -73 117.5t-74 107t-52 102t-23 122.5q0 118 75 184t213 66z" />
    <glyph glyph-name="mu" unicode="&#x3bc;" horiz-adv-x="638" 
d="M565 224l18 -4q-9 -26 -20 -51.5t-30.5 -60t-39.5 -60.5t-47 -44t-54 -18q-51 0 -51 58q0 26 15 82q-87 -140 -185 -140q-73 0 -62 93q-53 -157 -98 -228q-25 -39 -65 -39q-17 0 -26 9t-9 23q0 7 2 14t4.5 11.5t9 12.5t11 12.5l15.5 15.5l18 18q69 70 108.5 142t60.5 177
q41 208 47 228q18 54 65 54q38 0 30 -42q-3 -19 -21.5 -48t-44.5 -71t-42 -82q-14 -37 -21 -67t-8 -50t2.5 -34.5t9.5 -22.5t15.5 -12.5t17 -5.5t17.5 -1q36 0 66.5 12.5t58 40t52.5 72.5l12 39q39 206 43 218q18 54 65 54q38 0 30 -42q-4 -20 -22 -46.5t-46 -76t-51 -115.5
q-16 -54 -23 -81q-22 -75 36 -75q40 0 72.5 30.5t64.5 100.5z" />
    <glyph glyph-name="pi" unicode="&#x3c0;" horiz-adv-x="606" 
d="M419 429l-76 -261q-22 -75 36 -75q40 0 72.5 30.5t64.5 100.5l18 -4q-9 -26 -20 -51.5t-30.5 -60t-39.5 -60.5t-47 -44t-54 -18q-77 0 -36 134l93 309h-108q-20 -90 -46.5 -166t-52.5 -125.5t-45 -78t-35 -46.5q-24 -27 -59 -27q-16 0 -25.5 9t-9.5 24t8.5 28t16.5 20.5
t31.5 25t35.5 27.5q28 22 44.5 39.5t39 51.5t41.5 87.5t37 130.5h-37q-66 0 -107.5 -27t-83.5 -110l-16 4q18 43 37 75t44.5 59.5t55.5 45t69 27.5t86 10h288l-15 -84h-175z" />
    <glyph glyph-name="uni0401" unicode="&#x401;" horiz-adv-x="610" 
d="M313 772q-22 0 -36 14.5t-14 36.5q0 24 20.5 44.5t46.5 20.5q21 0 35.5 -14.5t14.5 -35.5q0 -25 -20 -45.5t-47 -20.5zM525 772q-22 0 -36 14.5t-14 36.5q0 24 20.5 44.5t46.5 20.5q21 0 35.5 -14.5t14.5 -35.5q0 -25 -20 -45.5t-47 -20.5zM443 705q140 0 199 3
q-26 -72 -38 -118q-11 -36 -14 -62h-23q18 88 1 122.5t-93 34.5h-73q-52 0 -70 -14.5t-33 -68.5l-63 -236h66q21 0 38.5 7t28.5 16t22 26t15.5 27t13 30.5t10.5 25.5h23q-13 -40 -41 -142q-14 -53 -32 -142h-23q1 5 2 14q3 31 5.5 57t-14 43.5t-54.5 17.5h-66l-64 -240
q-14 -55 -3.5 -69t62.5 -14h73q90 0 131.5 37t79.5 140h23q-11 -29 -22 -72q-16 -56 -27 -128q-68 3 -229 3q-192 0 -289 -3l5 20q52 2 70 17t33 69l133 496q14 55 3.5 69.5t-61.5 16.5l5 20q98 -3 290 -3z" />
    <glyph glyph-name="uni0402" unicode="&#x402;" horiz-adv-x="801" 
d="M605 664q-51 0 -132 11l-86 -324q37 28 90.5 46.5t107.5 18.5q77 0 121 -39t44 -115q0 -107 -79 -191.5t-194 -84.5q-48 0 -80 17.5t-32 52.5q0 29 19.5 49.5t49.5 20.5q41 0 41 -37q0 -23 -16.5 -43t-40.5 -28q11 -17 50 -17q58 0 102.5 42t65 99.5t20.5 116.5
q0 125 -114 125q-43 0 -88 -15t-73 -38l-91 -342q-46 14 -125 14q-31 0 -64 -3l5 20q64 2 86.5 19t38.5 77l152 571q-58 7 -99 7q-82 0 -107 -17q18 -25 18 -58q0 -23 -13 -40.5t-37 -17.5q-44 0 -44 50q0 52 53 78q47 23 134 23q60 0 165.5 -14t161.5 -14q69 0 101 22
q-25 25 -25 56q0 22 12.5 38.5t36.5 16.5q22 0 33.5 -13.5t11.5 -34.5q0 -43 -47 -72q-46 -33 -133 -33z" />
    <glyph glyph-name="uni0403" unicode="&#x403;" horiz-adv-x="532" 
d="M364 783q55 37 114.5 83t81.5 59q18 11 36.5 11.5t29.5 -16.5q6 -14 -4.5 -29t-28.5 -25q-21 -12 -91.5 -38.5t-130.5 -55.5zM166 106q-15 -54 -0.5 -69t78.5 -17l-5 -20q-53 3 -147 3q-85 0 -127 -3l5 20q52 2 70 17t33 69l133 496q14 55 3.5 69.5t-61.5 16.5l5 20
q126 -3 133 -3h157q119 0 169 3q-25 -71 -41 -128q-10 -37 -19 -82h-23q18 104 3 145.5t-67 41.5h-63q-52 0 -70 -14.5t-33 -68.5z" />
    <glyph glyph-name="uni0404" unicode="&#x404;" horiz-adv-x="673" 
d="M691 708h21q-33 -86 -64 -230h-22q14 99 -10 148q-18 37 -53.5 57.5t-77.5 20.5q-98 0 -186 -105.5t-127 -248.5q24 37 59.5 58t71.5 21q47 0 106 -41t101 -41q50 0 94 54l13 -9q-82 -103 -164 -103q-40 0 -74 20.5t-66.5 41t-68.5 20.5q-45 0 -79 -52q-14 -62 -14 -119
q0 -96 38 -146t105 -50q44 0 93 20.5t85 57.5q43 43 90 158h22q-47 -173 -59 -240h-22q3 21 3 34q0 22 -8 25t-25 -8q-35 -23 -55.5 -34t-56.5 -21t-77 -10q-111 0 -172 60t-61 175q0 85 33.5 174t89.5 161.5t139 119t174 46.5q40 0 70.5 -10.5t44.5 -22t34 -32.5
q7 -7 13 -8t13 4.5t14 19t15 35.5z" />
    <glyph glyph-name="uni0405" unicode="&#x405;" horiz-adv-x="554" 
d="M576 715q-36 -91 -59 -204h-20q6 29 6 57q0 59 -35 97t-107 38q-63 0 -101.5 -32t-38.5 -95q0 -41 26 -82t63.5 -75t74.5 -69t63 -78.5t26 -89.5q0 -65 -40 -111t-95.5 -65.5t-117.5 -19.5q-84 0 -142 46q-19 15 -36 15q-12 0 -20 -12t-21 -42h-20q33 80 68 240h20
q-10 -55 -9 -81q6 -146 163 -146q68 0 107.5 31t39.5 94q0 46 -24 87t-57.5 72.5t-67.5 64.5t-58 77t-24 95q0 91 65.5 143t154.5 52q75 0 130 -42q24 -18 33 -18q14 0 33 53h20z" />
    <glyph glyph-name="uni0406" unicode="&#x406;" horiz-adv-x="341" 
d="M166 106q-14 -55 -3.5 -69.5t62.5 -16.5l-4 -20q-47 3 -127 3q-84 0 -127 -3l5 20q51 2 69 17t32 69l132 496q13 55 2.5 69.5t-61.5 16.5l5 20q41 -3 127 -3q80 0 128 3l-5 -20q-52 -2 -70.5 -17t-32.5 -69z" />
    <glyph glyph-name="uni0407" unicode="&#x407;" horiz-adv-x="341" 
d="M141 823q0 24 20.5 44.5t46.5 20.5q21 0 35.5 -14.5t14.5 -35.5q0 -25 -20 -45.5t-47 -20.5q-22 0 -36 14.5t-14 36.5zM353 823q0 24 20.5 44.5t46.5 20.5q21 0 35.5 -14.5t14.5 -35.5q0 -25 -20 -45.5t-47 -20.5q-22 0 -36 14.5t-14 36.5zM166 106q-14 -55 -3.5 -69.5
t62.5 -16.5l-4 -20q-47 3 -127 3q-84 0 -127 -3l5 20q51 2 69 17t32 69l132 496q13 55 2.5 69.5t-61.5 16.5l5 20q41 -3 127 -3q80 0 128 3l-5 -20q-52 -2 -70.5 -17t-32.5 -69z" />
    <glyph glyph-name="uni0408" unicode="&#x408;" horiz-adv-x="636" 
d="M737 730q7 -8 5.5 -17t-20 -21.5t-52.5 -25.5q-140 -93 -208 -300h99l-3 -20h-102q-8 -26 -11 -39l-62 -242q-29 -112 -88 -182.5t-148 -70.5q-46 0 -73.5 14t-28.5 41q-1 23 15 41t40 18q18 0 29.5 -11.5t12.5 -28.5q1 -34 -40 -53q15 -5 35 -5q18 0 33.5 5t28.5 17
t23 24.5t19.5 34t16.5 38.5t15 46t13 48t13 52t13 52l30 117q13 48 28 84h-133l3 20h138q42 91 107 157t168 140q-116 -60 -198 -60q-48 0 -122.5 28t-123.5 28q-68 0 -65 -66q1 -59 74 -73l-3 -20q-107 19 -110 116q-2 54 29.5 88.5t86.5 34.5q37 0 72.5 -16.5t60 -37
t59.5 -37t71 -16.5q46 0 82 10t95 35q49 76 76 53z" />
    <glyph glyph-name="uni0409" unicode="&#x409;" horiz-adv-x="935" 
d="M595 376q148 0 216.5 -36t68.5 -129q0 -100 -89.5 -155.5t-208.5 -55.5q-23 0 -79 1.5t-93 1.5q-80 0 -122 -3l4 20q52 2 70.5 17t32.5 69l132 496q14 55 3 70.5t-62 15.5h-14q-48 0 -66 -16t-32 -70q-49 -185 -125 -354t-148 -227q-42 -35 -89 -35q-63 0 -59 59
q2 24 17 44t42 20q40 0 38 -43q-2 -30 -32 -59h2q36 2 67 26q59 48 132.5 200.5t134.5 368.5q13 55 2.5 69.5t-61.5 16.5l5 20q32 -3 93 -3q7 0 34 1.5t55 1.5q43 0 84.5 -1.5t50.5 -1.5q85 0 129 3l-5 -20q-52 -2 -70.5 -17t-32.5 -69l-60 -226h35zM539 23q127 0 184 51.5
t57 151.5q0 69 -43 101t-155 32h-27l-67 -253q-15 -46 -6 -64.5t57 -18.5z" />
    <glyph glyph-name="uni040A" unicode="&#x40a;" horiz-adv-x="1003" 
d="M752 366q99 0 149 -37.5t50 -106.5q0 -71 -56 -123.5t-132.5 -75.5t-158.5 -23q-14 0 -46 1.5t-49 1.5q-83 0 -127 -3l5 20q51 2 69 17t32 69l64 240h-321l-64 -240q-14 -55 -3.5 -69.5t62.5 -16.5l-4 -20q-46 3 -127 3q-83 0 -127 -3l5 20q51 2 69 17t32 69l132 496
q13 55 2.5 69.5t-61.5 16.5l5 20q40 -3 127 -3q80 0 128 3l-5 -20q-52 -2 -70.5 -17t-32.5 -69l-63 -236h321l63 236q13 55 2.5 69.5t-61.5 16.5l5 20q40 -3 127 -3q80 0 128 3l-5 -20q-52 -2 -70.5 -17t-32.5 -69l-63 -236h102zM617 21q109 0 171 58t62 159q0 58 -29.5 83
t-97.5 25h-78l-64 -240q-13 -49 -6 -67t42 -18z" />
    <glyph glyph-name="uni040B" unicode="&#x40b;" horiz-adv-x="809" 
d="M740 817q22 0 33.5 -13.5t11.5 -34.5q0 -43 -47 -72q-44 -33 -128 -33q-54 0 -137 11l-82 -307q86 48 183 48q86 0 126 -49t13 -150l-32 -124q-11 -41 1.5 -56.5t54.5 -15.5l-5 -21q-92 4 -122 4q-29 0 -113 -4l5 21q38 0 56.5 15.5t29.5 56.5l35 127q12 48 12 84.5
t-27 58t-83 21.5q-86 0 -138 -33l-63 -235q-16 -58 -2 -76.5t77 -19.5l-4 -20q-53 3 -149 3q-98 0 -146 -3l4 20q62 2 87.5 21.5t39.5 74.5l152 571q-56 7 -94 7q-87 0 -112 -17q18 -25 18 -58q0 -23 -13 -40.5t-37 -17.5q-44 0 -44 50q0 52 53 78q47 23 134 23
q60 0 165.5 -14t163.5 -14q67 0 99 22q-25 25 -25 56q0 22 12.5 38.5t36.5 16.5z" />
    <glyph glyph-name="uni040C" unicode="&#x40c;" horiz-adv-x="675" 
d="M667 866q-21 -12 -91.5 -38.5t-130.5 -55.5l-7 11q55 37 114.5 83t81.5 59q18 11 36.5 11.5t29.5 -16.5q6 -14 -4.5 -29t-28.5 -25zM648 722q63 0 59 -59q-2 -23 -16.5 -43.5t-41.5 -20.5q-21 0 -30.5 12.5t-8.5 30.5q2 30 32 59h-3q-20 -1 -36 -14q-19 -17 -35 -55.5
t-30 -79t-33.5 -80.5t-53.5 -68.5t-81 -34.5q56 -11 81 -43t22 -121l-4 -113q-1 -26 4.5 -38.5t25.5 -12.5q25 0 42.5 18.5t31.5 59.5l17 51h20l-26 -77q-36 -107 -122 -107q-92 0 -84 116l7 113q4 67 -4.5 96t-31.5 47q-88 -22 -88 11q0 34 91 10q48 6 82.5 34.5t53 68.5
t32 80.5t30.5 79.5t38 57q29 23 60 23zM166 106q-14 -55 -3.5 -69.5t62.5 -16.5l-4 -20q-47 3 -127 3q-84 0 -127 -3l5 20q51 2 69 17t32 69l132 496q13 55 2.5 69.5t-61.5 16.5l5 20q41 -3 127 -3q80 0 128 3l-5 -20q-52 -2 -70.5 -17t-32.5 -69z" />
    <glyph glyph-name="uni040D" unicode="&#x40d;" horiz-adv-x="779" 
d="M524 769q-41 33 -91.5 69t-66.5 51q-33 33 -12 59q14 13 33 8.5t33 -19.5t47.5 -65.5t66.5 -92.5zM718 705q86 0 128 3l-5 -20q-52 -2 -70.5 -17t-33.5 -69l-133 -496q-14 -55 -3.5 -69.5t61.5 -16.5l-5 -20q-42 3 -128 3q-81 0 -127 -3l5 20q52 2 70.5 17t33.5 69
l125 465l-472 -472q-12 -50 -1 -63.5t61 -15.5l-5 -20q-47 3 -127 3q-85 0 -127 -3l5 20q52 2 70 17t33 69l133 496q14 55 3.5 69.5t-61.5 16.5l5 20q42 -3 128 -3q81 0 127 3l-5 -20q-52 -2 -70.5 -17t-33.5 -69l-125 -464l472 472q11 50 0 63t-60 15l5 20q47 -3 127 -3z
" />
    <glyph glyph-name="uni040E" unicode="&#x40e;" horiz-adv-x="635" 
d="M430 757q-24 0 -47 3.5t-46 11.5t-37 24t-14 38q0 27 20 45.5t47 18.5q43 0 43 -42q0 -45 -47 -60q25 -18 88 -18q145 0 254 103l14 -12q-113 -112 -275 -112zM686 705q38 0 65 3l-5 -20q-18 -1 -41.5 -16.5t-44.5 -47.5l-304 -470q-30 -48 -44 -68.5t-40 -49
t-53.5 -39.5t-63.5 -11q-46 0 -73.5 14t-28.5 41q-1 23 15 41t40 18q18 0 29.5 -11.5t12.5 -28.5q1 -34 -40 -53q15 -5 39 -5q48 0 81.5 25t69.5 79l-123 518q-8 32 -30 47.5t-42 16.5l5 20q39 -3 108 -3q76 0 120 3l-5 -20q-48 -2 -59 -17.5t1 -66.5l96 -393l254 393
q30 41 24.5 62t-60.5 22l5 20q28 -3 92 -3z" />
    <glyph glyph-name="uni040F" unicode="&#x40f;" horiz-adv-x="755" 
d="M692 705q84 0 127 3l-5 -20q-51 -2 -69 -17t-32 -69l-132 -496q-13 -55 -2.5 -69.5t61.5 -16.5l-5 -20q-41 3 -127 3q-11 0 -101 -2q-51 -5 -78 -39t-60 -122h-23q19 80 10.5 117.5t-55.5 43.5q-98 2 -106 2q-85 0 -129 -3l5 20q52 2 70.5 17t32.5 69l132 496
q14 55 3.5 69.5t-62.5 16.5l4 20q42 -3 128 -3q81 0 127 3l-4 -20q-52 -2 -70.5 -17t-32.5 -69l-132 -496q-14 -55 -3 -70.5t62 -15.5h164q48 0 66 16t32 70l132 496q14 55 3.5 69.5t-62.5 16.5l4 20q47 -3 127 -3z" />
    <glyph glyph-name="uni0410" unicode="&#x410;" horiz-adv-x="629" 
d="M504 84q3 -33 17 -48t32 -16l-4 -20q-41 3 -109 3q-81 0 -120 -3l4 20q51 2 69.5 18.5t16.5 65.5l-9 164h-246l-75 -106q-53 -79 -45.5 -109.5t72.5 -32.5l-5 -20q-55 3 -114 3q-43 0 -75 -3l5 20q46 10 100 87l431 606h15zM169 288h231l-17 303z" />
    <glyph glyph-name="uni0411" unicode="&#x411;" horiz-adv-x="631" 
d="M439 705q144 0 207 3q-25 -66 -38 -118q-6 -22 -13 -62h-22q16 88 -2.5 122.5t-78.5 34.5h-93q-50 0 -68.5 -14.5t-32.5 -68.5l-60 -226h36q148 0 216.5 -36t68.5 -129q0 -100 -89.5 -155.5t-208.5 -55.5q-23 0 -79 1.5t-93 1.5q-80 0 -122 -3l4 20q52 2 70.5 17t32.5 69
l132 496q13 55 2.5 69.5t-61.5 16.5l5 20q111 -3 121 -3h61h63.5h41.5zM261 359h-27l-67 -253q-15 -46 -6 -64.5t57 -18.5q127 0 184 51.5t57 151.5q0 69 -43 101t-155 32z" />
    <glyph glyph-name="uni0412" unicode="&#x412;" horiz-adv-x="632" 
d="M395 374q164 -27 164 -163q0 -100 -89.5 -155.5t-208.5 -55.5q-23 0 -79 1.5t-93 1.5q-80 0 -122 -3l4 20q52 2 70.5 17t32.5 69l132 496q15 44 5 64.5t-64 21.5l5 20q40 -3 119 -3q23 0 69 1t72 1q93 0 140.5 -34t47.5 -94q0 -72 -59.5 -125t-145.5 -80zM302 617
l-64 -241h66q88 0 142.5 58t54.5 138q0 59 -26 87.5t-82 28.5q-44 0 -62 -14t-29 -57zM218 23q127 0 184 51.5t57 151.5q0 133 -143 133h-82l-67 -253q-15 -46 -6 -64.5t57 -18.5z" />
    <glyph glyph-name="uni0413" unicode="&#x413;" horiz-adv-x="532" 
d="M166 106q-15 -54 -0.5 -69t78.5 -17l-5 -20q-53 3 -147 3q-85 0 -127 -3l5 20q52 2 70 17t33 69l133 496q14 55 3.5 69.5t-61.5 16.5l5 20q126 -3 133 -3h157q119 0 169 3q-25 -71 -41 -128q-10 -37 -19 -82h-23q18 104 3 145.5t-67 41.5h-63q-52 0 -70 -14.5t-33 -68.5z
" />
    <glyph glyph-name="uni0414" unicode="&#x414;" horiz-adv-x="651" 
d="M581 705q85 0 129 3l-5 -20q-52 -2 -70.5 -17t-32.5 -69l-132 -496q-14 -55 -3 -70.5t62 -15.5h31q-22 -56 -44 -148q-6 -22 -13 -62h-22q32 193 -84 193q-13 0 -77.5 -1.5t-130.5 -1.5h-116q-117 0 -195 -190h-22q21 56 23 62q30 89 41 148h72q37 0 69 26
q58 48 129.5 197t127.5 359q14 55 3 69.5t-62 16.5l5 20q31 -3 93 -3q6 0 33.5 1.5t55.5 1.5q43 0 84.5 -1.5t50.5 -1.5zM509 602q14 55 3 70.5t-62 15.5h-14q-48 0 -66 -16t-32 -70q-47 -180 -120.5 -345t-142.5 -223q-10 -8 -20 -14h224q48 0 66 16t32 70z" />
    <glyph glyph-name="uni0415" unicode="&#x415;" horiz-adv-x="610" 
d="M443 705q140 0 199 3q-26 -72 -38 -118q-11 -36 -14 -62h-23q18 88 1 122.5t-93 34.5h-73q-52 0 -70 -14.5t-33 -68.5l-63 -236h66q21 0 38.5 7t28.5 16t22 26t15.5 27t13 30.5t10.5 25.5h23q-13 -40 -41 -142q-14 -53 -32 -142h-23q1 5 2 14q3 31 5.5 57t-14 43.5
t-54.5 17.5h-66l-64 -240q-14 -55 -3.5 -69t62.5 -14h73q90 0 131.5 37t79.5 140h23q-11 -29 -22 -72q-16 -56 -27 -128q-68 3 -229 3q-192 0 -289 -3l5 20q52 2 70 17t33 69l133 496q14 55 3.5 69.5t-61.5 16.5l5 20q98 -3 290 -3z" />
    <glyph glyph-name="uni0416" unicode="&#x416;" horiz-adv-x="947" 
d="M350 358q-31 -18 -56.5 -49t-55.5 -94l-53 -113q-30 -63 -54.5 -89.5t-68.5 -26.5q-79 0 -105 92l15 7q21 -44 60 -44q20 0 31.5 12t24.5 39l58 113q45 89 84.5 120t105.5 44q-78 10 -78 99q0 31 12 95.5t12 87.5q0 50 -38 50h-3q8 -14 8 -32q0 -27 -21 -48.5t-48 -21.5
q-31 0 -31 31q0 36 29 64t69 28q27 0 42 -16t15 -46q0 -24 -13 -90t-13 -97q0 -85 80 -94q21 7 35 8.5t20.5 -3t5.5 -14.5q-3 -20 -26 -20q-11 0 -43 8zM920 722q63 0 59 -59q-2 -23 -16.5 -43.5t-41.5 -20.5q-21 0 -30.5 12.5t-8.5 30.5q2 30 32 59h-3q-20 -1 -36 -14
q-19 -17 -35 -55.5t-30 -79t-33.5 -80.5t-53.5 -68.5t-81 -34.5q56 -11 81 -43t22 -121l-4 -113q-1 -26 4.5 -38.5t25.5 -12.5q25 0 42.5 18.5t31.5 59.5l17 51h20l-26 -77q-36 -107 -122 -107q-92 0 -84 116l7 113q8 101 -36 143q-18 -6 -38 -6q-10 0 -15.5 4t-4.5 13
q3 17 25 17q15 0 36 -7q48 6 82.5 34.5t53 68.5t32 80.5t30.5 79.5t38 57q29 23 60 23zM469 106q-16 -45 -6.5 -64t64.5 -22l-4 -20q-47 3 -129 3t-125 -3l5 20q51 2 69 17t32 69l131 496q15 44 5 63t-63 23l5 20q40 -3 125 -3q82 0 130 3l-5 -20q-52 -2 -70.5 -17
t-32.5 -69z" />
    <glyph glyph-name="uni0417" unicode="&#x417;" horiz-adv-x="559" 
d="M167 3q88 0 155.5 56.5t67.5 140.5q0 62 -38 110.5t-104 55.5q-34 -16 -51 -14q-8 1 -12.5 4.5t-3.5 10.5q1 16 24.5 17.5t36.5 -5.5q84 16 147.5 76t63.5 136q0 49 -28.5 72t-75.5 23q-151 0 -220 -208h-22q45 146 58 230h21q-6 -19 -1.5 -43.5t30.5 -7.5q51 34 88 49.5
t89 15.5q72 0 115 -31.5t43 -89.5q0 -46 -28.5 -86.5t-73.5 -67.5t-91 -45t-90 -27q52 0 100 -18t83.5 -59t35.5 -97q0 -66 -48 -116.5t-119 -74.5t-151 -24q-95 0 -141 36q-29 23 -29 54q0 28 20.5 49t48.5 21q41 0 41 -39q0 -22 -15.5 -40.5t-41.5 -25.5q6 -15 41 -26.5
t75 -11.5z" />
    <glyph glyph-name="uni0418" unicode="&#x418;" horiz-adv-x="779" 
d="M718 705q86 0 128 3l-5 -20q-52 -2 -70.5 -17t-33.5 -69l-133 -496q-14 -55 -3.5 -69.5t61.5 -16.5l-5 -20q-42 3 -128 3q-81 0 -127 -3l5 20q52 2 70.5 17t33.5 69l125 465l-472 -472q-12 -50 -1 -63.5t61 -15.5l-5 -20q-47 3 -127 3q-85 0 -127 -3l5 20q52 2 70 17
t33 69l133 496q14 55 3.5 69.5t-61.5 16.5l5 20q42 -3 128 -3q81 0 127 3l-5 -20q-52 -2 -70.5 -17t-33.5 -69l-125 -464l472 472q11 50 0 63t-60 15l5 20q47 -3 127 -3z" />
    <glyph glyph-name="uni0419" unicode="&#x419;" horiz-adv-x="779" 
d="M477 757q-24 0 -47 3.5t-46 11.5t-37 24t-14 38q0 27 20 45.5t47 18.5q43 0 43 -42q0 -45 -47 -60q25 -18 88 -18q145 0 254 103l14 -12q-113 -112 -275 -112zM718 705q86 0 128 3l-5 -20q-52 -2 -70.5 -17t-33.5 -69l-133 -496q-14 -55 -3.5 -69.5t61.5 -16.5l-5 -20
q-42 3 -128 3q-81 0 -127 -3l5 20q52 2 70.5 17t33.5 69l125 465l-472 -472q-12 -50 -1 -63.5t61 -15.5l-5 -20q-47 3 -127 3q-85 0 -127 -3l5 20q52 2 70 17t33 69l133 496q14 55 3.5 69.5t-61.5 16.5l5 20q42 -3 128 -3q81 0 127 3l-5 -20q-52 -2 -70.5 -17t-33.5 -69
l-125 -464l472 472q11 50 0 63t-60 15l5 20q47 -3 127 -3z" />
    <glyph glyph-name="uni041A" unicode="&#x41a;" horiz-adv-x="675" 
d="M648 722q63 0 59 -59q-2 -23 -16.5 -43.5t-41.5 -20.5q-21 0 -30.5 12.5t-8.5 30.5q2 30 32 59h-3q-20 -1 -36 -14q-19 -17 -35 -55.5t-30 -79t-33.5 -80.5t-53.5 -68.5t-81 -34.5q56 -11 81 -43t22 -121l-4 -113q-1 -26 4.5 -38.5t25.5 -12.5q25 0 42.5 18.5t31.5 59.5
l17 51h20l-26 -77q-36 -107 -122 -107q-92 0 -84 116l7 113q4 67 -4.5 96t-31.5 47q-88 -22 -88 11q0 34 91 10q48 6 82.5 34.5t53 68.5t32 80.5t30.5 79.5t38 57q29 23 60 23zM166 106q-14 -55 -3.5 -69.5t62.5 -16.5l-4 -20q-47 3 -127 3q-84 0 -127 -3l5 20q51 2 69 17
t32 69l132 496q13 55 2.5 69.5t-61.5 16.5l5 20q41 -3 127 -3q80 0 128 3l-5 -20q-52 -2 -70.5 -17t-32.5 -69z" />
    <glyph glyph-name="uni041B" unicode="&#x41b;" horiz-adv-x="663" 
d="M3 7q33 1 66 26q59 48 132.5 200.5t134.5 368.5q13 55 2.5 69.5t-61.5 16.5l5 20q32 -3 93 -3q7 0 34 1.5t55 1.5q43 0 84.5 -1.5t50.5 -1.5q85 0 129 3l-5 -20q-52 -2 -70.5 -17t-32.5 -69l-132 -496q-14 -55 -3.5 -69.5t62.5 -16.5l-4 -20q-42 3 -128 3q-81 0 -127 -3
l4 20q52 2 70.5 17t32.5 69l132 496q14 55 3 70.5t-62 15.5h-14q-48 0 -66 -16t-32 -70q-49 -185 -125 -354t-148 -227q-42 -35 -89 -35q-63 0 -59 59q2 24 17 44t42 20q40 0 38 -43q-2 -30 -32 -59h3z" />
    <glyph glyph-name="uni041C" unicode="&#x41c;" horiz-adv-x="868" 
d="M760 705h48q77 0 125 3l-5 -20q-52 -2 -70.5 -17t-32.5 -69l-132 -496q-13 -55 -2.5 -69.5t61.5 -16.5l-4 -20q-46 3 -124 3q-88 0 -130 -3l4 20q52 2 70.5 17t32.5 69l145 539l-415 -650h-22l-68 658l-142 -537q-15 -55 -2.5 -74.5t69.5 -21.5l-5 -20q-35 3 -101 3
q-59 0 -94 -3l5 20q51 2 70.5 21t34.5 75l130 486q13 55 2.5 69.5t-61.5 16.5l5 20q32 -3 89 -3q53 0 88 3l55 -593z" />
    <glyph glyph-name="uni041D" unicode="&#x41d;" horiz-adv-x="755" 
d="M691 705q85 0 129 3l-5 -20q-52 -2 -70.5 -17t-32.5 -69l-132 -496q-14 -55 -3.5 -69.5t62.5 -16.5l-4 -20q-42 3 -128 3q-81 0 -127 -3l4 20q52 2 70.5 17t32.5 69l64 240h-321l-64 -240q-14 -55 -3.5 -69.5t62.5 -16.5l-4 -20q-47 3 -127 3q-84 0 -127 -3l5 20
q51 2 69 17t32 69l132 496q13 55 2.5 69.5t-61.5 16.5l5 20q41 -3 127 -3q80 0 128 3l-5 -20q-52 -2 -70.5 -17t-32.5 -69l-63 -236h321l63 236q14 55 3 69.5t-62 16.5l5 20q45 -3 126 -3z" />
    <glyph glyph-name="uni041E" unicode="&#x41e;" horiz-adv-x="729" 
d="M54 226q0 84 30.5 171t83 159.5t132.5 119t171 46.5q112 0 174 -63t62 -178q0 -83 -30.5 -170t-83.5 -159.5t-133.5 -119t-170.5 -46.5q-111 0 -173 63t-62 177zM462 704q-75 0 -146 -72t-113.5 -186.5t-42.5 -232.5q0 -97 38 -153t100 -56q75 0 146 72t113.5 186.5
t42.5 232.5q0 97 -38 153t-100 56z" />
    <glyph glyph-name="uni041F" unicode="&#x41f;" horiz-adv-x="756" 
d="M487 708q67 0 130 -1.5t75 -1.5q86 0 129 3l-5 -20q-52 -2 -70.5 -17t-32.5 -69l-132 -496q-14 -55 -3.5 -69.5t62.5 -16.5l-4 -20q-42 3 -128 3q-80 0 -127 -3l4 20q52 2 70.5 17t32.5 69l132 496q14 55 3 70.5t-62 15.5h-164q-48 0 -66 -16t-32 -70l-132 -496
q-14 -55 -3.5 -69.5t62.5 -16.5l-4 -20q-46 3 -127 3q-83 0 -127 -3l5 20q51 2 69 17t32 69l132 496q13 55 2.5 69.5t-61.5 16.5l5 20q40 -3 127 -3q13 0 77.5 1.5t130.5 1.5z" />
    <glyph glyph-name="uni0420" unicode="&#x420;" horiz-adv-x="589" 
d="M421 707q98 0 148.5 -40.5t50.5 -110.5q0 -119 -105 -195.5t-272 -76.5h-30l-47 -178q-16 -46 -6.5 -65.5t65.5 -20.5l-4 -20q-47 3 -124 3q-88 0 -130 -3l4 20q52 2 70.5 17t32.5 69l132 496q15 47 4.5 66t-63.5 20l5 20q40 -3 123 -3q24 0 72.5 1t73.5 1zM253 304
q140 0 203 73t63 195q0 59 -30 87.5t-97 28.5q-44 0 -62 -17t-32 -69l-79 -298h34z" />
    <glyph glyph-name="uni0421" unicode="&#x421;" horiz-adv-x="670" 
d="M712 708q-33 -86 -64 -230h-22q14 99 -10 148q-18 37 -53.5 57.5t-77.5 20.5q-83 0 -162 -79.5t-125.5 -196.5t-46.5 -228q0 -96 38 -146t105 -50q44 0 93 20.5t85 57.5q43 43 90 158h22q-47 -173 -59 -240h-22q3 21 3 34q0 22 -8 25t-25 -8q-35 -23 -55.5 -34t-56.5 -21
t-77 -10q-111 0 -172 60t-61 175q0 85 33.5 174t89.5 161.5t139 119t174 46.5q40 0 70.5 -10.5t44.5 -22t34 -32.5q7 -7 13 -8t13 4.5t14 19t15 35.5h21z" />
    <glyph glyph-name="uni0422" unicode="&#x422;" horiz-adv-x="659" 
d="M768 817q22 0 33.5 -13.5t11.5 -34.5q0 -43 -47 -72q-53 -33 -158 -33q-44 0 -102 7l-148 -555q-16 -58 -2 -76.5t77 -19.5l-4 -20q-53 3 -149 3q-98 0 -146 -3l4 20q62 2 86 21.5t41 74.5l151 567q-81 11 -129 11q-87 0 -112 -17q18 -25 18 -58q0 -23 -13 -40.5
t-37 -17.5q-44 0 -44 50q0 52 53 78q47 23 134 23q60 0 165.5 -14t163.5 -14q86 0 129 22q-25 25 -25 56q0 22 12.5 38.5t36.5 16.5z" />
    <glyph glyph-name="uni0423" unicode="&#x423;" horiz-adv-x="635" 
d="M686 705q38 0 65 3l-5 -20q-18 -1 -41.5 -16.5t-44.5 -47.5l-304 -470q-30 -48 -44 -68.5t-40 -49t-53.5 -39.5t-63.5 -11q-46 0 -73.5 14t-28.5 41q-1 23 15 41t40 18q18 0 29.5 -11.5t12.5 -28.5q1 -34 -40 -53q15 -5 39 -5q48 0 81.5 25t69.5 79l-123 518
q-8 32 -30 47.5t-42 16.5l5 20q39 -3 108 -3q76 0 120 3l-5 -20q-48 -2 -59 -17.5t1 -66.5l96 -393l254 393q30 41 24.5 62t-60.5 22l5 20q28 -3 92 -3z" />
    <glyph glyph-name="uni0424" unicode="&#x424;" horiz-adv-x="937" 
d="M919 361q0 -116 -125.5 -206t-339.5 -98q-68 -245 -238 -245q-41 0 -69 13.5t-29 41.5q-1 22 15.5 40.5t39.5 18.5q18 0 29.5 -11.5t12.5 -28.5q1 -34 -40 -53q15 -5 34 -5q27 0 49 13t36.5 32t28 52.5t21.5 61t19 70.5q-157 8 -242.5 63t-85.5 147q0 57 33.5 111
t95.5 97.5t159 70t214 26.5h14q57 62 187 134q-120 -60 -216 -60q-41 0 -77.5 13.5t-58 29.5t-46.5 29.5t-47 13.5q-43 0 -43 -37q0 -24 23 -42l-14 -16q-38 25 -38 66q0 37 28 58t74 21q36 0 74.5 -15t66.5 -33.5t65.5 -33.5t72.5 -15q49 0 144 35q49 76 76 53
q7 -8 5.5 -17t-20 -21.5t-52.5 -25.5q-90 -59 -139 -140q145 -11 224 -65t79 -143zM142 258q0 -166 226 -182q5 23 17 69l52 194q38 141 98 215h-2q-191 0 -291 -79.5t-100 -216.5zM459 75q172 8 262.5 87t90.5 208q0 159 -207 180q-38 -66 -64 -166z" />
    <glyph glyph-name="uni0425" unicode="&#x425;" horiz-adv-x="699" 
d="M690 722q34 0 47.5 -16.5t11.5 -42.5q-3 -24 -17.5 -44t-41.5 -20q-21 0 -30.5 12.5t-7.5 30.5q4 34 32 59h-3q-35 0 -64 -21q-45 -33 -100.5 -110.5t-106.5 -187.5l26 -227q13 -114 79 -114q29 0 47 18t33 60l17 51h20l-26 -77q-36 -107 -122 -107q-112 0 -131 156
l-18 157q-39 -83 -100.5 -161t-116.5 -117q-46 -35 -92 -35q-34 0 -47.5 16.5t-11.5 42.5q3 24 17.5 44t41.5 20q21 0 30.5 -12.5t7.5 -30.5q-4 -34 -32 -59h4q34 1 63 21q52 34 114.5 112.5t117.5 191.5l-26 221q-13 114 -79 114q-29 0 -47 -18t-33 -60l-17 -51h-20l26 77
q36 107 122 107q112 0 131 -156l18 -155q39 85 92 161.5t100 114.5q46 35 92 35z" />
    <glyph glyph-name="uni0426" unicode="&#x426;" horiz-adv-x="761" 
d="M508 3q-13 0 -77.5 -1.5t-130.5 -1.5t-129 1.5t-76 1.5q-85 0 -129 -3l5 20q52 2 70.5 17t32.5 69l132 496q14 55 3.5 69.5t-62.5 16.5l4 20q42 -3 128 -3q81 0 127 3l-4 -20q-52 -2 -70.5 -17t-32.5 -69l-132 -496q-14 -55 -3 -70.5t62 -15.5h164q48 0 66 16t32 70
l132 496q14 55 3.5 69.5t-62.5 16.5l4 20q47 -3 127 -3q84 0 127 3l-5 -20q-51 -2 -69 -17t-32 -69l-132 -496q-14 -55 -3 -70.5t62 -15.5h31q-22 -56 -44 -148q-5 -22 -13 -62h-22q32 193 -84 193z" />
    <glyph glyph-name="uni0427" unicode="&#x427;" horiz-adv-x="664" 
d="M604 705q80 0 127 3l-5 -20q-52 -2 -70.5 -17t-33.5 -69l-133 -496q-14 -55 -3.5 -69.5t61.5 -16.5l-5 -20q-42 3 -128 3q-94 0 -147 -3l5 20q65 2 87 17t37 69l54 203q-33 -19 -84 -33t-99 -14q-86 0 -126 49t-13 150l41 154q11 41 -1.5 56.5t-54.5 15.5l5 21
q92 -4 122 -4q29 0 113 4l-5 -21q-38 0 -56.5 -15.5t-29.5 -56.5l-44 -157q-12 -48 -12 -84.5t27 -58t83 -21.5q83 0 139 32l74 276q14 55 3.5 69.5t-61.5 16.5l5 20q42 -3 128 -3z" />
    <glyph glyph-name="uni0428" unicode="&#x428;" horiz-adv-x="959" 
d="M402 3q-16 0 -69.5 -1.5t-88.5 -1.5q-24 0 -75.5 1.5t-76.5 1.5q-85 0 -127 -3l5 20q52 2 70 17t33 69l133 496q14 55 3.5 69.5t-61.5 16.5l5 20q42 -3 128 -3q73 0 117 3l-5 -20q-46 -2 -62.5 -17t-31.5 -69l-133 -496q-15 -55 -4 -70.5t62 -15.5h54q51 0 70 15.5
t34 70.5l133 496q14 55 6 69.5t-54 16.5l5 20q44 -3 117 -3q79 0 118 3l-5 -20q-47 -2 -63 -17t-31 -69l-133 -496q-15 -55 -4 -70.5t62 -15.5h54q51 0 70 15.5t34 70.5l133 496q14 55 6 69.5t-54 16.5l5 20q43 -3 117 -3q86 0 128 3l-5 -20q-52 -2 -70.5 -17t-33.5 -69
l-133 -496q-14 -55 -3.5 -69.5t61.5 -16.5l-5 -20q-42 3 -128 3q-26 0 -78.5 -1.5t-74.5 -1.5q-35 0 -87 1.5t-67 1.5z" />
    <glyph glyph-name="uni0429" unicode="&#x429;" horiz-adv-x="962" 
d="M708 2q-20 0 -74 -1t-78 -1q-35 0 -86.5 1.5t-66.5 1.5q-16 0 -70 -1.5t-89 -1.5q-24 0 -75 1.5t-76 1.5q-86 0 -128 -3l5 20q52 2 70.5 17t33.5 69l132 496q14 55 4 69.5t-62 16.5l6 20q40 -3 127 -3q73 0 118 3l-6 -20q-46 -2 -62.5 -17t-31.5 -69l-132 -496
q-15 -55 -4.5 -70.5t61.5 -15.5h54q51 0 70.5 16t34.5 70l132 496q15 55 6.5 69.5t-54.5 16.5l6 20q42 -3 116 -3q79 0 119 3l-6 -20q-46 -2 -62.5 -17t-31.5 -69l-132 -496q-15 -55 -4.5 -70.5t61.5 -15.5h54q51 0 70.5 16t34.5 70l132 496q15 55 6.5 69.5t-54.5 16.5l6 20
q42 -3 116 -3q86 0 129 3l-6 -20q-52 -2 -70.5 -17t-33.5 -69l-132 -496q-14 -55 -4 -69.5t61 -16.5h11q-25 -71 -41 -128q-14 -57 -19 -82h-23q20 110 5 151t-67 41z" />
    <glyph glyph-name="uni042A" unicode="&#x42a;" horiz-adv-x="740" 
d="M403 376q148 0 216.5 -36t68.5 -129q0 -100 -89.5 -155.5t-208.5 -55.5q-23 0 -79 1.5t-93 1.5q-80 0 -122 -3l4 20q52 2 70.5 17t32.5 69l132 496q15 56 5 72t-55 16q-79 0 -115 -27q18 -25 18 -58q0 -23 -13 -40.5t-37 -17.5q-44 0 -44 50q0 49 52 79q55 32 135 32
q10 0 53.5 -1.5t79.5 -1.5q74 0 122 3l-5 -20q-52 -2 -70.5 -17t-32.5 -69l-60 -226h35zM347 23q127 0 184 51.5t57 151.5q0 69 -43 101t-155 32h-27l-67 -253q-15 -46 -6 -64.5t57 -18.5z" />
    <glyph glyph-name="uni042B" unicode="&#x42b;" horiz-adv-x="952" 
d="M274 376q148 0 216.5 -36t68.5 -129q0 -100 -89.5 -155.5t-208.5 -55.5q-23 0 -79 1.5t-93 1.5q-80 0 -122 -3l4 20q52 2 70.5 17t32.5 69l132 496q13 55 2.5 69.5t-61.5 16.5l5 20q40 -3 127 -3q80 0 128 3l-5 -20q-52 -2 -70.5 -17t-32.5 -69l-60 -226h35zM889 705
q80 0 128 3l-5 -20q-52 -2 -70.5 -17t-32.5 -69l-132 -496q-14 -55 -3.5 -69.5t62.5 -16.5l-4 -20q-46 3 -127 3q-83 0 -127 -3l5 20q51 2 69 17t32 69l132 496q13 55 2.5 69.5t-61.5 16.5l5 20q41 -3 127 -3zM218 23q127 0 184 51.5t57 151.5q0 69 -43 101t-155 32h-27
l-67 -253q-15 -46 -6 -64.5t57 -18.5z" />
    <glyph glyph-name="uni042C" unicode="&#x42c;" horiz-adv-x="611" 
d="M274 376q148 0 216.5 -36t68.5 -129q0 -100 -89.5 -155.5t-208.5 -55.5q-23 0 -79 1.5t-93 1.5q-80 0 -122 -3l4 20q52 2 70.5 17t32.5 69l132 496q13 55 2.5 69.5t-61.5 16.5l5 20q40 -3 127 -3q80 0 128 3l-5 -20q-52 -2 -70.5 -17t-32.5 -69l-60 -226h35zM218 23
q127 0 184 51.5t57 151.5q0 69 -43 101t-155 32h-27l-67 -253q-15 -46 -6 -64.5t57 -18.5z" />
    <glyph glyph-name="uni042D" unicode="&#x42d;" horiz-adv-x="675" 
d="M416 722q116 0 175 -70t59 -185q0 -83 -31 -168.5t-85 -155t-135.5 -113.5t-174.5 -44q-59 0 -90.5 16t-63.5 49q-30 31 -56 -51h-22q32 97 69 240h22q-17 -104 6 -158q16 -36 53 -57t84 -21q57 0 109.5 33t90.5 87t66 118t43 132q-23 -40 -60 -62.5t-74 -22.5
q-47 0 -106 41t-101 41q-50 0 -94 -54l-13 9q82 103 164 103q40 0 74 -20.5t66.5 -41t68.5 -20.5q46 0 81 55q10 51 10 102q0 89 -36 144.5t-106 55.5q-42 0 -89.5 -20.5t-84.5 -57.5q-29 -28 -47 -60t-41 -88h-22q45 146 58 230h21q-6 -19 -1.5 -43.5t30.5 -7.5
q31 22 52.5 33.5t56 21.5t74.5 10z" />
    <glyph glyph-name="uni042E" unicode="&#x42e;" horiz-adv-x="1048" 
d="M790 722q112 0 174 -63t62 -178q0 -83 -30.5 -170t-83.5 -159.5t-133.5 -119t-170.5 -46.5q-111 0 -173 63t-62 177q0 60 15 120h-157l-64 -240q-14 -55 -3.5 -69.5t62.5 -16.5l-4 -20q-46 3 -127 3q-83 0 -127 -3l5 20q51 2 69 17t32 69l132 496q13 55 2.5 69.5
t-61.5 16.5l5 20q40 -3 127 -3q80 0 128 3l-5 -20q-52 -2 -70.5 -17t-32.5 -69l-63 -236h157q41 147 148 251.5t249 104.5zM617 4q75 0 146 72t113.5 186.5t42.5 232.5q0 97 -38 153t-100 56q-75 0 -146 -72t-113.5 -186.5t-42.5 -232.5q0 -97 38 -153t100 -56z" />
    <glyph glyph-name="uni042F" unicode="&#x42f;" horiz-adv-x="644" 
d="M581 705q83 0 127 3l-5 -20q-51 -2 -69 -17t-32 -69l-132 -496q-13 -55 -2.5 -69.5t61.5 -16.5l-5 -20q-41 3 -127 3q-80 0 -128 -3l5 20q52 2 70.5 17t32.5 69l63 235q-46 -15 -81 -16q-30 -6 -49.5 -13t-43.5 -29t-39 -58l-53 -123q-26 -60 -54 -88t-76 -28
q-79 0 -105 92l15 7q21 -44 60 -44q23 0 36.5 12.5t26.5 38.5l58 123q28 60 67.5 84t95.5 31q-77 14 -118 56t-41 100q0 72 50.5 124t127.5 75t169 23q14 0 46 -1.5t49 -1.5zM509 602q13 49 6 67t-42 18q-111 0 -172 -54.5t-61 -162.5q0 -65 30 -95.5t97 -30.5q35 0 78 16z
" />
    <glyph glyph-name="uni0430" unicode="&#x430;" horiz-adv-x="632" 
d="M505 84q4 -33 18 -48t31 -16l-5 -20q-40 3 -109 3q-81 0 -120 -3l5 20q52 2 72 19t14 65l-15 124h-254l-68 -85q-26 -33 -35.5 -58t3.5 -43.5t53 -21.5v-20q-30 3 -91 3q-62 0 -87 -3v20q44 12 109 93l402 502h15zM158 248h236l-31 254z" />
    <glyph glyph-name="uni0431" unicode="&#x431;" horiz-adv-x="610" 
d="M413 605q130 0 187 3q-11 -31 -38 -118q-9 -30 -13 -62h-22q16 88 -2.5 122.5t-78.5 34.5h-73q-50 0 -68 -14.5t-32 -68.5l-47 -176h103q107 0 156 -39t49 -96q0 -79 -79.5 -131t-192.5 -60q-29 -2 -87.5 0.5t-84.5 2.5q-80 0 -122 -3l4 20q52 2 70.5 17t32.5 69l105 396
q13 55 2.5 69.5t-61.5 16.5l5 20q97 -3 287 -3zM291 309h-69l-54 -203q-15 -46 -6 -64.5t57 -18.5q123 0 169 47t46 136q0 103 -143 103z" />
    <glyph glyph-name="uni0432" unicode="&#x432;" horiz-adv-x="613" 
d="M370 324q164 -23 164 -133q0 -80 -81 -135.5t-191 -55.5q-23 0 -79 1.5t-93 1.5q-80 0 -122 -3l4 20q52 2 70.5 17t32.5 69l106 396q16 46 5 66t-64 20l5 20q40 -3 119 -3q22 0 68.5 1t72.5 1q62 0 105 -13.5t63 -37.5t20 -57q0 -61 -59.5 -106.5t-145.5 -68.5zM277 517
l-51 -191h53q88 0 142.5 48.5t54.5 117.5q0 49 -26 72.5t-82 23.5q-44 0 -62 -14t-29 -57zM219 23q64 0 107 13t66 39t32.5 57t9.5 74q0 103 -143 103h-69l-54 -203q-15 -46 -6 -64.5t57 -18.5z" />
    <glyph glyph-name="uni0433" unicode="&#x433;" horiz-adv-x="540" 
d="M377 585q-52 0 -70.5 -14.5t-32.5 -68.5l-107 -396q-14 -54 0.5 -69t77.5 -17l-5 -20q-51 3 -146 3q-84 0 -128 -3l5 20q52 2 70.5 17t32.5 69l107 396q13 55 3 69.5t-61 16.5l5 20q97 -3 289 -3q119 0 170 3q-29 -78 -41 -128q-15 -53 -19 -82h-23q18 104 3 145.5
t-67 41.5h-63z" />
    <glyph glyph-name="uni0434" unicode="&#x434;" horiz-adv-x="636" 
d="M538 605q86 0 129 3l-5 -20q-52 -2 -70.5 -17t-32.5 -69l-105 -396q-14 -55 -3 -70.5t62 -15.5h31q-22 -56 -44 -148q-6 -22 -13 -62h-22q31 190 -84 190h-294q-117 0 -195 -190h-22q21 56 23 62q30 89 41 148h62q37 0 69 26q47 41 106 162.5t104 293.5q14 56 3.5 70
t-62.5 16l5 20q31 -3 93 -3q6 0 34 1.5t55 1.5q43 0 84.5 -1.5t50.5 -1.5zM466 502q14 56 3 71t-62 15h-14q-48 0 -66 -16t-32 -70q-38 -145 -99 -281t-117 -187q-10 -8 -20 -14h204q48 0 66 16t32 70z" />
    </font>
</defs>
</svg>
